<?xml version="1.0" encoding="UTF-8"?>
<svg xmlns="http://www.w3.org/2000/svg" version="1.1" viewBox="0 0 275.1 191.4">
  <defs>
    <style>
      .cls-1 {
        fill: #262425;
        fill-rule: evenodd;
      }
    </style>
  </defs>
  <!-- Generator: Adobe Illustrator 28.7.1, SVG Export Plug-In . SVG Version: 1.2.0 Build 142)  -->
  <g>
    <g id="Layer_1">
      <path class="cls-1" d="M242.1,15.1c1.9-.3,1.3,1.9,3.2,1.6,0,2.7-.1,3.7-.5,4.9-1.7.5-1.7-.8-2.7-1.1,0-2.3,1-3.5,0-5.4h0Z"/>
      <path class="cls-1" d="M13.5,61.5c1.1.9,1.2,2.8,1.1,4.9-1.4-.6-1.1-2.9-1.1-4.9Z"/>
      <path class="cls-1" d="M222.7,65.8c1.7-.2,2.4.5,2.2,2.2-1.7.2-2.4-.5-2.2-2.2Z"/>
      <path class="cls-1" d="M16.2,70.1c2.9,2.5,2.3,8.5,3.8,12.4-1.2.4-2.1,1.1-3.8,1.1,0-4.7-4.4-10.7,0-13.5Z"/>
      <path class="cls-1" d="M230.8,80.4c1.2.9,1.3,3,1.6,4.9-2.2,0-1.5-2.8-1.6-4.9Z"/>
      <path class="cls-1" d="M123.5,87.9c-2.9,1.7-5.2-.7,0,0Z"/>
      <path class="cls-1" d="M122.4,90.1c-2.3,1.4-4.5-.4-7,.5,1.1-1.3,5.3-1.5,7-.5Z"/>
      <path class="cls-1" d="M43.7,98.1c-1.3-.2-1.2,1-2.7.5-.3-.4-.6-.9-.5-1.6.8-.8,3.7-1,3.2,1.1Z"/>
      <path class="cls-1" d="M159.1,97.1c2.4,3.8-1.4,13.8,4.9,15.6,2.4-1.5,4.4-6.4,3.8-9.2,2.1-1.4.7,5.1-.5,5.4-.4,2.3-.2,3.6-.5,4.9-3.2,1.5-7-.7-7-3.8,0-.8-1.6-2.7-1.6-2.7-.6-3.3,1.2-7.6,1.1-10.2Z"/>
      <path class="cls-1" d="M163.4,98.7c1.4,1.9,1.9,7.3,1.1,9.7-.9-2.7-1.1-6.1-1.1-9.7Z"/>
      <path class="cls-1" d="M242.7,99.8c.4-1.2,3-.2,4.3-.5-.5,2.1-2.7.5-4.3.5Z"/>
      <path class="cls-1" d="M247,99.8c1.6-.2,1.1,1.8,1.6,2.7-2.1.6-2.6,1.1-4.3.5,1.5.5,0-2-.5-2.2,1.4,0,3.2.3,3.2-1.1h0Z"/>
      <path class="cls-1" d="M22.1,103.5c.5-1.4,2.4.4,2.2,1.6-1.7.5-.7-1.8-2.2-1.6Z"/>
      <path class="cls-1" d="M251.3,177.4c-1-.2-3.2.7-2.7-1.1.8-.9,3.1-.8,2.7,1.1Z"/>
      <path class="cls-1" d="M265.3,106.2c.4,1.8,1.7,2.6,2.2,4.3-1.2,7.9-4.5,12.6-1.6,21-7.1.4-8.8-7.3-9.2-11.9-1.5.6-1.8,3.3-2.2,4.9-.8,3.9-.7,8.4,1.6,12.4,2.4,1.2,5.1,2.1,6.5,4.3-.8,2.5-1.4,4.3-3.2,4.9-8.9,2.5-13.4-15.9-9.7-24.8-3.9,1.6-5.8,8-8.6,13.5-6.9,13.3-12.6,43.8,11.3,43.7,2.6-.8,1.8-5.1,2.7-7.6,8.6.2,3.3,10.3-.5,11.9.8.8,1.6,1.6,2.2,2.7-.4,2.6-1.2,4.9-3.2,5.9-2.8-.5-5.7-.7-6.5-3.2,2-.3,4.6,1.8,5.4-.5,1.3-1.9-2-3.2-2.7-4.9-3.6-.4-7.4-1.5-9.7-3.2-5.3-4-9.4-13.8-9.2-22.6.5-17.3,12.1-33.8,21-41.5.1-2,1.7-2.6,2.2-4.3,3.3,1.6,5.7-5.3,9.2-1.6.1,2.4-3.2,1.4-3.2,4.9.6,1.1,2.1-1.4,2.2-2.7.6,2.2-1.7,6.2-4.3,7,.6,3.9,1.2,7.8,3.8,9.7.7-1,1.6-5,1.1-8.1.6-3,3.6-7.3,2.7-10.2-.9-3.1-4.1-4-7-3.8-7,.5-9.9,11.8-15.1,12.4-.6.6-.6,1.9-.5,3.2-1.4.6-3.3.6-5.4.5.2-1.9,1.4-1.4,2.7-1.1-.3-4.8,7.8-5.5,8.1-9.2.3-3.4-3.2-2.9-3.8-5.4-2.6,0-1.3,1.9-2.2,2.7-2.5.9-5.4,1.4-8.6,1.6-1.2.3-1-.8-1.1-1.6-1,1.4-3.3,1.4-4.3,2.7,1,3.9,5.7,4,8.6,5.9-2.7,2.4-7.5-1.6-9.7-3.2-6,2.5-14.5-.1-20.5-1.1.5-3.8,3.3-5.3,4.9-8.1-5.5-2.7-11.4-5.1-15.1-9.7-2.1-5.1-4.2-10.2-3.2-18.3.7,1.4,1.5.8,2.2-.5.5-2.5-1.8.4-1.6-1.1-.5-5.5,3.4-6.6,4.3-10.8,4.9-3.2,9.4-7.9,15.6-7.5,5.3.3,9.3,6.4,15.1,5.9,2,4.5,6,6.9,8.1,11.3-1,1.1-2.5.3-3.8,0,2.7,5.6,4.2,12.3,8.1,16.7,3.2-3.1,5.7-9.7,12.4-7.6,6.6-4.6,4.1-17.9,2.7-25.3-2.4-3.6-4.4-7.4-6.5-11.3-8-4.8-17-11.5-30.7-10.2-.2,4.2-2.1,12.1-5.9,12.4-5.3.4-4.7-9.4-9.7-11.3-4.7,1.7-11.1,1.9-14.6,4.9-1.6.4-2-.6-3.2-.5-6.1,4.4-15.4,5.4-18.9,12.4-1.6.3-2.8,1.1-4.3,1.6-7.7,8.7-18.1,14.7-27.5,21.6,11.3-2.8,20.9,4.2,28.6,3.2,2-.4,1.3,1.9,2.2,2.7,9.6,2.2,15.3,8.5,21.6,14-1.5,2.6-7.6.7-9.7,2.7-3.9-1.8-6.7-4.9-11.3-5.9-2.2-2.1-2.8-5.9-5.9-7-1.4,3.7,3.2,6.2,3.2,10.2-2.6-1.2-1.9-5.7-4.3-7-1.8.7,1,6.1-1.6,5.9.2-3.4-.3-7.6,0-10.8-7.3-7.2-26-5.3-35.1-1.1,4.1,2.2,10.5,4.4,9.7,9.7-8.8-2.4-20.1,4.4-25.9-1.6-10.4.1-22.6,1.5-33.4.5-14.9-1.3-28.2-8.5-38.3-13.5,1.1,3.7,4.3,5.5,5.4,9.2,4.2,3,10.6,3.8,15.1,6.5-2.8,2.6-6.8,4-9.2,7-2-.4-2.3.9-4.3.5.8,4.6,2.5,6.1,5.4,5.9,3.6-.2,4.5-5.7,8.6-4.9,1.9.4,4.1,3.4,3.8,6.5-.9,8-15.8,10.1-24.8,5.9-3-1.4-5.4-4.3-8.1-7-2.6,3-11.3,4.2-12.9-.5,1.3-1.5,1.8-3.9,3.2-5.4-1.3-2.4-.3-4.2-1.1-6.5-.4-1.2-1.9-1.9-2.2-2.7-.2-.8,2.1-.6.5-2.2-1.4-1.4-.2-1.9,0-4.9-2.2,0-5.4.6-8.1-1.1,0-3.4,1.2-5.6,2.7-7.6-2-4.6,1.6-14.2-3.2-17.8.8-5.7-3.1-7.9-5.4-12.4.4-6.4-.1-9.3.5-14,3.5,3.1,13.6,3.7,18.9,1.6v-3.2c-1.4-1.4-.6,1.2-2.7.5-.5-2.4-3.1-2.6-5.9-2.7-1.5-1.9-3.5-3.3-3.8-6.5-2.4-1.7-3.8-4.5-4.3-8.1,5.2-.3,12.6-1.3,17.3,1.1.6,2.8,2.8,4,3.8,6.5,0,4.3-.9,6.5.5,9.7,2.4.3,3.2-1.1,4.9-1.6,1.8-7.7.5-13.8,4.3-19.4,1.8-2.6,2.2-2.9,4.3-4.9,1.1-1,2.8-3.5,4.9-3.8,1.4.6-.2,4.2,1.1,4.9,2.7-.2,4.5-2.8,7.5-1.1-1.2,3.1-3.4,2.3-4.3,5.4-.7,2.4.7,5,0,7.6-1.1,3.9-5.1,5.7-7,8.1-1.3.3-2.5.8-4.3.5-1.1.7-2,1.6-2.7,2.7,5,0,17.4-1.3,18.9,5.4-11,0-18.7,9.5-28.6,2.7-7.1.3-14.4,1.2-20-1.1.2,3.2,6,4.5,10.2,7.5,4.9,3.5,9.4,9.3,17.3,8.1,4-.6,5.2-4.2,9.2-5.9,4.1,1.8,6.9,6.7,5.4,12.4,9.1,2.2,22.8,2.7,28,9.7,2.5,3.3,3.8,10.1,0,14-4.4.2-5.1-4.7-9.2-3.2,2.7-1.4,0-6.7-1.1-9.2-1.3.1,0,2,.5,2.2-.4,1.7-1.4.7-2.7.5-1.4,2.1,3.1,2.1,2.2,5.4-10.1-.3-20.3-.6-24.8-6.5,2.8-.5,6.7,2.7,11.9,1.6.2,2.2-3.4.6-4.9,1.1,4,2,10.5,1.3,15.6,2.2,1.1-1.4-2.5-2.9-3.8-3.8-.3-2.1,3-.6,4.3-1.1-1-4.1-5.3-4.8-7.5-7.6,5,1,8.6,2.3,10.8,5.9,2,3.3,1.2,8.5,5.4,9.7,1.7-.2,3.1-.8,2.7-3.2-1.1-.9-4.3,3-4.9-1.1,1.5-.4,1.1,1.1,2.2,1.1,2.5-3.1-.4-4.8-1.1-7.6,1.5.7,2.2,2.2,3.2,3.2.7-1.7-2-4.5-4.9-4.3,0-1,.7-1.1.5-2.2-5.5-4.4-17.5-2.3-24.8-4.9,1.2-4.4.7-10.4-2.7-11.9-4.4,1.5-6.4,5.5-11.3,6.5-10.9-2.9-16.3-11.4-26.4-15.1,1.1,1.2-.1.6-.5,1.6.4,1.6,1.2-.5,2.2,0,11,9.5,21.2,19.8,31.8,29.7-3.8.2-6.5-5.4-10.2-7-2.5-4-6.3-6.6-9.7-9.7,6.8,7.8,13.7,15.5,22.7,21,.2.9-.5.9-.5,1.6,12.1,3.5,27.1,10.1,42.6,10.2,7.6,0,15.1-.4,21-3.2,1-2.8-1.2-4.5-1.1-6.5.4-8.2,11.8-11.2,8.6-22.1,6.9,4.1,10.3,16.1,4.9,23.7,1.6.8,4-2.1,5.9-2.7,3.4-5.2,6.1-13,6.5-20.5,0-1.2-1.1-1.7-1.1-2.2,0-1,1.1-1.9,1.1-2.7-.1-1.6-.3-4-1.6-4.9-1.6,1.6-1.6,4.9-3.2,6.5-2.7-4.4-5.6-8.4-13.5-7.5-.2-1.1-1.4-1.1-2.2-1.6-1-.8,0-3.5-1.1-4.3-1.7.5-3.6,2.5-4.3,4.3-.6,1.4.4,2.8,0,4.3-.3,1.5-1.8,4.4-2.7,6.5-2.1,5.1-3.2,7.5-9.2,7-4.1,2.7-7.4,3.4-13.5,2.7-5.9-.7-6.2-1.2-10.2-4.3-5.9-4.6-7.6-9.5-8.6-18.9-.5-5.2-.4-5.8,1.6-10.2,2.2-4.8,4.7-8.2,7-11.3,2.9.3,5.9-2.3,9.2-3.2-.1-3.7-6.3-1.2-6.5-4.9,3.4-4.6,14.1-4.2,20.5-2.7,1-.8,1.3-2.3,2.2-3.2,6.5-.5,9.3,2.6,12.9,4.9,7.2,0,15.8,1.3,18.3,7.6-1.5,1.1-4.7.3-7,.5.8,2.2,3.7.8,5.4,1.1,2.6.4,5.3,1.6,7.6,1.6.8,4.1,5,7,3.8,11.3-2.7-.7-6.3-2.9-9.2-1.6,1.2,4.3,7.1,9.3,8.1,16.7,1.1,7.9-.5,15.5-2.7,22.1-2.1-.3.8-1.8-.5-3.8-1.7,2.1-2.5,5-3.8,7.6,3.3.6,1.8-3.6,5.4-2.7,4.1-6.2,9.3-11.1,13.5-18.3,1.4-2.4,3.3-5.2,3.2-7,0-2.7-2.5-3.6-3.8-5.9-.9-1.7-1.6-4.1-1.6-5.9-.3-8.4,5.8-16.5,3.2-26.4,3.2.9,4.4,4.8,5.9,7.5,2.4,4.3,4.2,8.6,4.3,15.6,3.5-2.2,3.9-7.6,6.5-10.8-.5-.9,0-2.9-1.6-2.7,1.9-2.6-1.3-5.6-1.1-9.2.3-5,3.8-9.4,8.1-10.8.9,2.2,1.2,4.9,1.1,8.1,4.3-2.3,9.8-5.8,16.2-4.3-.6,3-3.8,3.4-5.4,5.4-.3,4.5-3.1,6.6-4.9,9.7-4.9,1.3-9.5,2.7-10.8,7.5,4.2.3,8.9-3.3,14.6-3.2-3.1,4.3-6,8.8-7.6,14.6,1.7.9,3.9-1.7,4.9-3.2,7.9-3,13.2-9.5,21.6-12.4,3.6-1.2,9-1,11.9-3.2.5-2.4,1.3-4.5,2.7-5.9,3.9.5,4.9,3.7,4.9,8.1,2.2,2.8,8,1.5,11.9,1.6,1.6,0,2.9.9,4.3.5,2.9-.7,3.8-3.5,5.9-4.3-1.3-1.8-.8-4.1,0-6.5,2.3-1.3,3.6.8,5.4,1.6-1.5.8-2.5,0-3.8,1.6.5,1.3.7,2.9.5,4.9-6.1,4-11.1,8-21,7,3.4,3.7,14.7,1.9,18.9-.5,2.8-1.6,3.7-5,7-4.9-1.3,3.9-4.2,6.2-8.6,7,2.5,2.7,8.4,2,12.4,3.2,2.5,2.9,7.8,2.9,9.2,7,1.9-.4,2.1.8,3.8.5,3.4,3.9,6.1,8.3,8.6,13.5.4.7.7,1.5,1.1,2.2.3.5,1.5,1.3,1.6,1.6,2.1,4.6,1.4,9,2.2,14.6.1.7,1,1.4,1.1,2.2.7,11.8-4.4,23.3-9.7,32.4h0ZM248.1,36.1c-.6,1.8,1.7.8,2.7,1.1,1.3,1.7,3.4,2.7,5.9,3.2-1.4-2.9-5.4-3.2-8.6-4.3h0ZM118.1,86.8c-.2.9.8,1.4,0,1.6-3.8.8-7.4,1.6-10.8,1.6,1.7,8.9,15.4.6,22.7,3.8-.9-5.1-6-8.5-11.9-7ZM144,70.6c-.8-4.7,8.5-6.5,7.6-11.3-5.4,6.1-11.3,11.7-18.3,16.2,7.7-7.2,16-13.9,22.1-22.7v-2.2c2.2,0,2.4-1.9,3.2-3.2-3.5-.7-4.5,1.3-5.9,2.7-.1-1,.5-2.7-1.1-2.2-2.7,1.1-.4,1.8,0,3.8-1,.1-1.2-.6-2.2-.5-5.3,8.7-11.4,19.5-19.4,23.7,4.3-4.9,9.3-9,12.4-15.1-3.5,3.5-7.3,6.7-9.7,11.3-1.5-.1-2.5,2-3.8,3.2-.9.9-4.4,2.7-2.2,3.2,1.5-.6,3-2.7,4.3-.5-1.4,1.8-5.6.9-5.4,4.3,7.1-2.6,11.9-7.5,18.3-10.8h0ZM152.1,81.4c2.5.8,4.2,2.8,5.9,3.8.7.4,3.2-1.2,1.6,1.1,2.3.3.7-1.5,1.6-1.6,4.8,5.5,9.3,11.2,16.2,14.6,1.6-1.3,6.3.6,7-1.6-5.7-4.6-10.2-10.3-18.9-11.9-1.2-1.1-2.5-2.1-3.8-3.2-1.3.3-2.5.8-4.3.5-10.3-5.3-25.9-5.8-35.1,1.1,8.5-3.6,21.2-5.5,29.7-2.7h0ZM119.7,84.1c2.2-.4,5.6-2.3,4.3-4.3-.2.7-.7,1.1-1.6,1.1.2-.6,2.4-2.8,1.1-1.6-2.2.6-2.4,3.4-3.8,4.9ZM176.3,43.7c-10.8,7.2-21.5,14.4-29.7,24.3,3.6-1.4,6-5.1,8.6-7,1.1-.8,2.8-.8,3.8-1.6,2.1-1.8,3.4-6.1,7-5.9.6-1.6,1.7-2.6,2.7-3.8,5.2-2.9,10.7-5.5,16.2-8.1h3.2c.9-2,4.7-1,5.4-3.2-5.7-.3-11.2,4.3-17.3,5.4ZM160.2,11.3c.5-.9,0-2.9,1.6-2.7.5,5.6-1,8.9,0,12.9,2.9-5.5,4.1-11.4,2.7-18.9h-1.6c-.6,2.8-4.4,5.3-2.7,8.6ZM166.6,18.9c5.3-1.1,9-7.1,10.8-11.3.2-.5.9-1.4-.5-1.6-4.7,3-8.7,6.8-10.2,12.9ZM165.6,17.8c1.5-3.9,3.6-7.2,5.9-10.2-3.9,1.1-6.3,6.6-5.9,10.2ZM39.4,11.9c-2.8-3-5.4,3.2-6.5,5.4,1.7.3,2.1-1.2,3.2,0,.7-2.7,5.5-4.2,4.9-6.5-.2.7-.7,1.1-1.6,1.1ZM95.5,18.9c5.8.5,9.3,3.2,14.6,4.3,2.3-1.8,5-3.2,7.6-4.9-3.5-2-9.4-3.5-14-2.7-3.7-1.7-5.6-5.2-11.3-4.9.6,3.2,2.9,4.6,3.2,8.1ZM36.1,26.4c5.2.5,2.6-6.7,5.9-8.1.2,2.6-.8,3.9-1.1,5.9,6-.8,2.8-9.2,4.9-12.9-5.9,2.6-10.1,7.8-9.7,15.1ZM70.1,15.1c2.1-.5,3.4,2.3,5.9,2.7,2.6.4,5.8-1,8.6-.5,3.6.6,4.9,2.7,7.6,2.7-.6-1.7-2.1-2.4-1.1-4.3-4-4.2-16.5-4.4-21-.5ZM160.7,15.1c0-1.3-.3-2.2-1.1-2.7,0,1.3-.1,2.6,1.1,2.7ZM93.3,16.2c-.2-1.6-.9-2.7-2.2-3.2.2,1.6.9,2.7,2.2,3.2ZM147.2,45.3c.3-2.8,3.2-2.9,3.8-5.4-1.5-.1-1.5-1.8-2.7-2.2-.8,1.9-1.7,3.7-3.2,4.9.4-2,.7-3.9-.5-5.4,0,.9-.4,1.4-1.1,1.6.3-1.6-.7-4.6.5-5.4.8,3.2.6.7,3.8,1.1-.8,2.5,1.6,1.6,2.2,2.2.9.8,0,3.4,1.6,2.2,1.4-3.5.5-6.5,0-9.2-.6-3.1-1.1-6.9-2.2-9.2-.6-1.2-2.1-1.9-2.7-3.2-.5-1,.8-2.2-1.1-1.6.6,12.2-9.2,23.6,1.6,29.7ZM196.3,23.7c-15.8,7.8-31,16.1-40.4,30.2,3.1-1.4,4.4-5.9,7.6-8.6,2.4-2.1,7-4.5,10.8-6.5,5.3-2.8,10.8-6.1,15.6-4.9-1.7,1.9-6.6.6-7.6,3.2,5.2-1,10.3-3.2,14.6-3.2,9.2,0,10.6,8.1,16.2,13.5,4.4-3.8,4.3-11.7,1.1-16.7.8-1.1,1.2-2.8,2.7-3.2-1.5,0-1.3-2.5-.5-3.2-1.2-.8-3.6-.4-3.8-2.2-.1-2.8.5-6.2-2.2-6.5-.9.5-.6,2.3-1.1,3.2-1.4.6-1.8,2.1-3.2,2.7-.4,1.2-3.7-.5-3.2,1.6,5.9-1.8,9.6.7,9.2,4.9-.4,3.9-6.1,4.5-7.6,5.9-.9-3.5,2.9-3.8,4.9-5.9-.3-1.9-2-2.3-2.2-4.3-4.1.4-7.2,1.8-10.8,0h0ZM172,41.5c-5.6,1.4-7.9,6.2-11.9,9.2,4.7-2.3,7.4-6.6,11.9-9.2ZM159.6,53.9c6.8-4.9,13.7-10.6,22.1-14,3.5-1.4,7.2-1.2,10.2-3.8-13.5,1.1-25.6,8.1-32.4,17.8ZM7,18.9c-.2,2.3,3.4,5.1,3.2,9.2,2.4,2.9,5,2.3,10.2,2.2.4-4.3-6.7-5.4-9.2-8.6,6-.9,8.5,6.3,10.8,4.3-1.7-6-7.4-8.6-15.1-7ZM73.3,21.6c2.5.2,3.4-1.3,4.9-2.2-2.6-.3-3.5,1.1-4.9,2.2ZM93.8,24.8c2.2-.6,2.7-4.8.5-5.4-.6,2.6-.2,3-.5,5.4ZM68.5,39.4c8.3-1.4,18.2,3.1,20.5-5.4,1.5-1.3,3-1.3,4.3-1.6-1.9-2.2-5.4-2.9-6.5-5.9-.2-2.1,1.2-2.7,1.1-4.9-11.8-5.1-19.1,8.1-19.4,17.8ZM31.8,31.3c3.2-1.5,3.6-4.6,3.8-8.1-1-.2-1.4-1.2-2.7-1.1-.4,3-1.6,5.2-1.1,9.2ZM71.7,23.7c-10.1,5.2-14.7,21.6-8.6,34,4.8,3.7,10.2,6.7,18.9,6.5,1.4-1.1,2.7-2.3,3.8-3.8,0-4.3,0-6.3-.5-9.2,2.2-2.7,3.6-6.2,3.2-11.3-1.8-.9-3.4.8-5.9,1.1-5.2.5-12.1-1-16.2-.5.8-7,2.7-12.8,6.5-16.7,0,0-1.1,0-1.1,0ZM87.9,25.9c1.6,2.7,4.8,3.8,7,5.9-.3-1.7.7-2.2,1.6-2.7,5.4-.4,6.5,3.5,11.3,3.8-.3-1.7,1.7-1.2,1.1-3.2-1.2-1.5-4.7-.7-4.9-3.2-3.4.4-7.5-1-11.9.5-.9-1.3-1.5-2.8-3.2-3.2-.3.8-.8,1.4-1.1,2.2ZM110.6,24.8c-.5.9-2.5,3.2-1.1,4.3.5-.8.8-1.7,2.2-1.6.9,1.4-.8,2.1,1.1,2.2,3.2.2,5.5.8,8.1,2.7,3.4-.7,4.9,0,8.1-.5-1.2-7.3-10.8-9.2-18.3-7ZM64.2,27.5c2.1-.4,2.7-2.4,4.3-3.2-2,.5-3.5,1.5-4.3,3.2ZM153.2,45.8v1.1c1.8.3,2.5-.4,3.8-.5,1-1.5-2.4-1-.5-1.6,1.7-.5.7,1.8,2.2,1.6,8.4-3.3,9.6-13.8,14-21-5.9,2-12.2,2.1-15.6,6.5-1.1,1.4-.4,3.6-2.7,4.3.3,4-4.8,7.5-2.2,10.2,1.4-4.7,4.1-6,7-9.2,3.1-3.4,4-7.6,8.6-7.5-4.8,5.4-10.1,10.4-14.6,16.2ZM40.4,26.4c-3.3.6-1.4,2.6,0,0ZM59.3,37.2c.9-2.3,3.8-5.6,3.2-7.5-.9,2.3-4.1,5.3-3.2,7.5ZM94.9,36.1c2.2.4,4.8-3,5.9-5.4-1.3-.3-2.5-.8-4.3-.5-.8,1.7-1.4,3.7-1.6,5.9ZM222.7,31.3c-3.5-.6-1.2,1.6,0,0ZM225.4,31.8c5.4-.7,12.4,2,15.1.5-3.9-1.1-11.1-1.6-15.1-.5ZM23.7,35.1c-.3-2-2.1-2.6-3.8-3.2,0,2.2,1.4,3.2,3.8,3.2ZM96.5,37.2c-1.5,2.4-.9,6.5-3.8,8.1-.9-5.1,4.2-9.6-1.6-10.8-1.1.2-1.1,1.5-2.2,1.6,1.6,7.3-.7,11.6,0,17.8,3.6-.4,1.8-6.1,5.9-5.9-.3,1.9-.8,3.5-.5,5.9,4.5,0,3-6,5.9-7.5.1-1.6-1.2-1.7-1.1-3.2.9-1.2,2.2-2.1,2.2-4.3-1.9-.7-2.5,2.4-3.8.5,2-2.4,1.6-5.7,4.9-5.4,3.9.4,2.3,5,3.2,8.1.8,2.7,3.1,2.9,3.2,4.9,7.1-.6,9.9,3,13.5,5.9,1.2-3.8,1.4-6.5,1.6-10.2-2.2-1.7-2.3-2.2-1.6-5.4-2.1-2.2-3.8-4.8-7.6-5.4-2.6,0-2.6,2.5-4.9,2.7-4.2.9-4.6-1.9-7.6-2.2-1.9,1.5-4.4,2.6-5.9,4.9ZM220,32.9c-4-.6-1.7,1.7,0,0ZM224.3,32.9c-.8.3-2.8-.6-2.7.5.8-.3,2.8.6,2.7-.5ZM230.8,33.4c-6.1-2.2-5.2,2.3,0,0ZM247.5,35.6c-.1-2.2-4.7-2.9-5.9-2.2,1.9.8,3.5,1.9,5.9,2.2ZM36.7,35.1c-3.6,1.2-7.2,2.5-9.7,4.9,7.5,4.7,13.3-3.1,20.5-3.8-1.6-3.1-8.1-1.2-11.3-2.7,0,.7.3,1.2.5,1.6ZM233.5,35.6c7.3,1,11.5,5,17.3,7.5,6.2,9.4,14.9,23.2,9.7,38.8,3.8,3.9-1.6,8.9-2.7,12.9,2.8.6,4.2-2.9,5.9-1.6.1,7.3-5.4,7.8-9.2,10.8-1.2,1-1.8,2.6-2.7,3.2-.9.7-3.7,0-3.2,2.2,4.1,1.2,4.8-5.5,10.2-4.9.3-2,2.6-2.2,3.8-3.8.9-1.3,1.1-3.9,2.2-5.9.2-.4,1.4-.5,1.6-1.1,1-2.6.9-6.1,1.6-9.2.4-1.8,1.5-3.3,1.6-4.9.5-5.5-1.2-11-2.2-16.2-.7-3.8-1.2-4.7-1.1-7-2-3.9-5.1-6.8-6.5-11.3-8.4-2.7-15.7-12.5-27.5-11.9-.7,1.7,1.7.4,1.1,2.2h0ZM29.7,36.1c1.4-.2,2.5-.8,3.2-1.6-1.6,0-2.7.5-3.2,1.6ZM217.9,35.6c3.1-.4,7.5.7,9.7-.5-2.5,0-8.3-1.9-9.7.5ZM100.8,37.2c.2-1.2,1.4-1.2,2.2-.5.5-2.6-4.5-.3-2.2.5ZM234,36.1c-1-.1-3.6-1.4-4.3,0,1.9-.8,3.5,1.5,4.3,0ZM16.7,39.4c2.4,1.1,6.9.3,8.1-1.6-2.5.8-6.3.2-8.1,1.6ZM58.2,38.8v1.1c1.3.8,1.6-1.8.5-1.6,0,.3,0,.6-.5.5ZM242.7,40.4c.4-1.5-2.7-2.3-3.2-1.1,1.7-.3,1.2,1.7,3.2,1.1ZM146.1,52.3c3.7-1.8,2.5-6,4.9-9.7-2.2,0-3.4,3.1-2.2,4.9-2.7-.2-2.2,2.9-2.7,4.9ZM58.2,44.2h1.1v-1.1h-1.1v1.1ZM127.3,50.7c1,3.9.8,8.7.5,12.4-.1,1.8-1.8,4.1,0,5.4,1.2-7.8,3.7-18.5-2.2-25.3-1.6,3.2.9,4.8,1.6,7.5ZM250.8,45.8c0-2-4.4-2.4-4.9-2.2,2,.3,2,2.7,4.9,2.2ZM30.2,84.1c-.3-2-.7-4.4-2.2-6.5-1.7-.7-.4,1.7-2.2,1.1-1.8-7.7-7-12.9-11.3-19.4-.7-1.3-2,.6-2.2-.5-1.8-3.6-3.2-6.7-5.4-9.2-.8-.9-2.4-2.6-3.8-2.7,3.5,6.1,6.2,13,7.6,20.5.7,3.8-1.4,8,0,11.9-.8,1.7-3,4.3-2.2,5.9,2.3,1.6,4.8-.4,7-.5-.6,7.6,5.7,17.9.5,25.3,3.7,2.6,7.3-1.2,10.2-2.7,3.7,2.6,8.1,9.1,14.6,9.7,5.9.6,12.6-2.4,15.1-7.6-1.3-1.3-3.2,0-4.9,0,.4-1.8,2.7-1.6,3.8-2.7-4.5-.2-6.8,5.1-11.9,5.9-4.9.8-9.6-1-11.9-2.7-2.3-1.6-5.4-5.9-5.4-7.6,4.9,3.7,7.2,10,17.3,8.6-.8-3.5-3.6-5-3.8-9.2,5.1,1,8.4-2.1,10.8-5.4.8,0,2,.2,2.2-.5-4.3-1.6-9.3-2.6-12.9-4.9-4.1-8.1-8.8-15.7-15.1-21.6.6,4.2,3.9,6.6,5.9,9.7,1.9,2.9,3,6.4,5.4,9.2.5,2.4.5,5.2,1.6,7-1.3,1.2-.8,4.3-2.7,4.9-2.6-1.3-8.2-1.6-11.9-4.3-.8-3.7-4.1-7.8-2.7-11.9,2.3,5.8,3.5,12.6,10.2,14,1.8-3.9-3.1-8.3-2.2-11.3,1.1,2.2,3,8.5,5.4,5.9-2.2-3.2-4.5-6.7-6.5-8.6.7,0,.5-.9,1.1-1.1,1-.2,1.7,2.5,2.2,1.1ZM59.9,51.2c-.9-4.9-1.6.4,0,0ZM87.4,59.3c1.2-1.2,1.6-4.7-.5-5.4,0,3.7-.6,8.1,1.6,9.7,6.3,0,8.7-3.9,9.2-9.7-3.6.4-2.7,5.2-5.4,6.5-1.9-2.7,2-3.6,1.1-7-.7,0-.7-.7-1.6-.5-1.6,2-1.5,5.7-4.3,6.5ZM141.8,59.3c1.8-.4,3.9-3.3,2.7-4.9-.6,2-1.6,3.4-2.7,4.9ZM154.8,56.6c.3-.3,2.2-1.6.5-2.2,0,.7-2.2,1.6-.5,2.2ZM216.8,60.4c-4.9-1.6-3.4,1.7,0,0ZM195.2,87.9c-.2,2.1.7,3.3,1.6,4.3.8-1-.3-3.7-1.6-4.3ZM202.8,64.7c-5.1,3.7-9.2,16.5-5.9,24.8,1.7,4.2,7.3,5.3,8.1,9.2,3.2,1.3,5.8,3.2,10.2,3.2-.7-3.4-3-5.2-3.2-9.2,5.4.6,10.3,2.7,14.6-.5,0-4.9-.2-9.5-1.1-13.5-1.7-.7-.4,1.7-2.2,1.1-.7-5.6-3.9-10.4-3.2-15.6-5-4-13.8-2-17.3.5h0ZM221.6,64.7c-1.4,4.2,1.9,8.1,2.2,12.4,3.7-.6,0-6,1.1-7,1.8,1.8,1.6,5.6,4.9,5.9,1.4-2.5-2.8-6.4-2.2-8.1,2,1.1,2.3,6.7,5.9,4.3-1.8-2.3-4.2-4.1-5.4-7-3.2.2-6-3-8.1-2.2.8.3,1.3.8,1.6,1.6ZM103,85.2c1.4-1.4,2.2-3,3.2-4.9,1-1.7,2.6-3.7,3.2-5.4.5-1.4-.2-4.9,2.2-3.8.3-1.6-.7-4.6.5-5.4-.3,3,1.9,3.5,2.7,5.4-.9.3,0,2.6-1.1,2.7-.7-.2-1-.8-2.2-.5.2,2.8-4.1,4.8-1.6,6.5-1.1,1.6-4,1.4-4.3,3.8-.2,1.5,2-1.4,2.2.5-.8,1.9-2.7-.6-2.7,2.2,10.3.9,14.9-17.6,5.9-23.2-.4,9.6-10.2,11.8-8.1,22.1ZM259.4,68.5c.1-.7-.3-2.1-.5-1.1-.1.7.3,2.1.5,1.1ZM112.2,72.3h1.1v-1.1h-1.1v1.1ZM259.9,76c.6-.6,1.1-3.9,0-4.3-.1,1-1.4,3.6,0,4.3ZM228.1,98.1c-.6,1.5-5,1.7-4.9-.5,3.6-.6,6.3-2.3,7-4.3,1.7.6,3.2,1.5,5.4,1.6-.6-2.1-3.6-4.6-2.7-6.5,2.6,1.6,3.7,9.4,7.6,4.9-5.3-4.6-5.9-13.9-9.7-20-.3,1.9.8,5.1-1.1,5.4-1.7-.1-1.5-3.7-3.2-2.2,2,5.8,0,12.7,2.2,17.8-5.7.6-9.7,1.5-15.1,0,.5,4.2,2.9,6.5,4.9,9.2,2.9-.2,8.1,2.7,9.2-.5-4.2-.3-9.5-2.4-9.7-4.9,5,4.7,14.9,5.7,18.9-.5-2.2-1.9-4.4-.5-5.9.5-.7-.4-5.2-1.4-3.8-.5.5,0,.6.4,1.1.5h0ZM37.2,79.3c-2.1-1-4.2-4.8-6.5-3.8,2.2.9,4.9,4,6.5,3.8ZM73.9,79.3c1.7-.9-1.6-4.8-.5-3.2.3.9-.7,3.2.5,3.2ZM271.8,75.5s0,.5,0,.5c-2.6,2.9,2.6-1,0-.5ZM271.3,82.5c.5-.5,1.2-3.4,0-3.8.7,1.7-1.6,3,0,3.8ZM195.2,83.6c0-1.5.5-3.7-1.1-3.8-.9,1-.1,3.3,1.1,3.8ZM52.8,87.4c-2.5-2.5-8.9-4-11.3-4.9,3.3,2.1,7.4,3.4,11.3,4.9ZM111.6,87.9c.8-1.1,4-.9,1.6-2.2,2.5-.9,5.4-1.5,6.5-3.8-4.4,1.2-7.7,3.4-11.3,5.4,2.3,1,3.3-2,4.3-.5-.9-.4-2.3,1.1-1.1,1.1ZM251.3,86.3c-.4,2.7,2.1-1.2,2.2.5-2.4,1.1-.5,3.4-3.2,4.3-2.2,0-4.4.1-5.9-.5-1.5,2.1-2.4,4.8-5.9,4.9,0,1.6,1.2,2,2.2,2.7,3.4-2.8,8.9-3,14.6-2.2,2.2-3.2,3.2-7.6,5.4-10.8-3.6,1-6.7.6-9.2.5.3,0,.6.4,0,.5ZM31.8,87.9c0-.9-.4-1.4-1.1-1.6,0,.9.4,1.4,1.1,1.6ZM244.8,90.1c1.8-.2,2.7-1.3,3.8-2.2-1.5.4-1.1-1.1-2.2-1.1-.3,1.3-2.1,1.1-1.6,3.2ZM57.7,87.9c-1,.2-3.9-1.2-2.7,0,1-.3,2.2,1.6,2.7,0ZM86.3,91.7c-2,0-5.2-1-6.5,1.1,7.3.8,14.7-.5,18.9-1.6,1.7-.4,5.3.7,4.9-2.2-.1-.4,0-1.1-.5-1.1-3.6,3.1-10,3.7-16.7,3.8ZM78.2,92.8c0-1.5-1.4-1.4-2.2-1.6-4.7-1.1-11.9-1.2-15.6-1.6,5.1,1.8,13.4,2.4,17.8,3.2ZM35.1,92.2c0-1.3,1-1.7-.5-2.2,0,.8-.2,2,.5,2.2ZM104.6,91.7c-3.5-.6-1.2,1.6,0,0ZM211.9,104.1c-1.9-2.7-5.2-2.5-7.6-4.3-2.7-2.2-3.5-5.8-7-7,2,6.6,7.8,9.5,14.6,11.3ZM240.5,99.8c2.4,2.5,4.6,5.1,7,7.6,3.1-.3,4.1-2.8,5.9-4.3,3.4-1.5,6.2-3.5,8.6-5.9,0-.9-.4-1.4-1.1-1.6-4.4,5-16.9-1.4-20.5,4.3h0ZM233,102.5c2,.4,6.5,0,6.5-3.2-2.6-1.3-5.1,1.6-6.5,3.2ZM223.3,106.2c-3-.4-4.9-1.9-7.6-2.7-3.4,2-4.9,5.9-7,9.2,7.2,0,16.9,4.3,18.9-3.2-1.5-1.2-3.1.7-4.3-1.1,2.9-1.6-2.1.3,0-2.2ZM235.7,110.6c.1-1.7,1.2-2.4,1.6-3.8-1.3,0-1.6-.9-3.2-.5-1.5,3.8-.1,2.1,1.6,4.3ZM240,109.5c.1-1.6-.1-2.7-1.1-3.2-.7.7-.1,2.9,1.1,3.2ZM253.5,115.9c-5.3,7.1-6.2,27.4,5.4,28v-3.2c-1.8-.7-3.6-1.4-5.4-2.2-5-10.2,1.4-19.6,5.4-27-4.1.4-3.5,5.5-5.9,7.6.4-.6,1.5-4.6.5-3.2h0ZM255.6,178.5c1.7-.1,3.1-4.3,1.1-4.9-.9,1.1-.4,3.6-1.1,4.9h0ZM252.9,180.1c1.4,0,1.7,1,2.2-.5-.7-.7-1.6-.3-2.2.5ZM249.1,181.7c-.1-1.5-3.2-2.9-4.3-1.6,1.3.7,2,2,4.3,1.6ZM254.5,187.7c.4-2.1-.3-5.8-2.2-3.8,1.5.7.6,2.3,2.2,3.8Z"/>
      <path class="cls-1" d="M171,92.8c.6.5,6.5.3,7,2.7-2.9-.4-5.2-1.3-7-2.7Z"/>
      <path class="cls-1" d="M171,100.8c.9,4.2,1.9,7.2,4.3,10.8,5.5.8,8,4.6,10.8,8.1,2.8-2,.7-8.9-1.6-10.8-1.5.7.4,2.4.5,3.2-.9-.4-3.2-4-4.3-5.9-1-1.4-3.5-1.2-3.2-3.8,1.1-1.1,2.7,0,2.7,1.6,6.9.7,11.2,12.9,6.5,18.3-2,.4-1.3-1.9-2.2-2.7-1.6,1.3-1.8,3.9-2.2,6.5h-2.7c-.9-5.1-6.1-5.8-7-10.8,0-1.4-2-.9-2.7-1.6,3.1-1.7.7-9.8,0-12.9-1.4,0-.6,2.3-2.7,1.6.7-1.7,0-2.4,0-5.4,2.4,1.9,5.7,1.1,8.1,3.8-.5,1.2-3.1-1.7-4.3,0ZM180.1,121.9c.7-3.8-1.3-4.8-1.1-8.1-3.2-.4-5.3-1.9-5.9-4.9-.9,0-1.4.4-1.6,1.1,2.5,4.3,3.9,9.7,8.6,11.9ZM182.3,118.6c0-.9.1-1.7.5-2.2-.3-.2-2.1-1.3-2.2,0,.9,0-.9,2.6,1.6,2.2Z"/>
    </g>
  </g>
</svg>