<?xml version="1.0" encoding="UTF-8"?>
<svg id="Layer_1" xmlns="http://www.w3.org/2000/svg" viewBox="0 0 1238 1406">
  <path fill="#262425" d="M815.95,251.87c1.03,11.95-1.02,23.06-7.47,33.5-2.63,4.26-2.4,10.34-5.18,14.43-8.75,12.86-13,27.48-18.26,41.79-4.2,11.43-10.14,22.09-18.34,31.3-4.91,5.52-7.13,12.18-8.69,19.31-.9,4.09-2.79,8.18-5.13,11.67-3.22,4.82-6.88,9.51-11.07,13.5-10.94,10.43-16.27,23.32-17.93,38-1.38,12.23-2.44,24.5-3.98,36.71-1.43,11.35,2.56,21.39,8.77,29.99,17.06,23.63,37.41,43.97,61.51,60.78,25.54,17.81,50.18,36.91,75.11,55.58,17.59,13.18,35.97,25.54,52.27,40.18,22.02,19.79,42.46,41.34,63.38,62.34,2.84,2.85,4.52,6.87,6.73,10.36.35.56.56,1.22.95,1.75,6.03,8.09,11.67,16.52,18.23,24.16,9.93,11.59,16.93,24.57,21.68,39,2.7,8.2,6.24,16.12,9.2,24.23,5.01,13.74,11.44,27.2,14.43,41.38,4.49,21.3,13.7,39.78,26.88,56.63,4.19,5.36,9.29,9.77,16.5,10.17,3.43.19,6.99-.2,10.37-.92,19.88-4.22,39.34,6.48,46.93,25.41,3.48,8.68,3.04,16.37-1.12,24.83-3.98,8.11-6.16,17.1-9.24,25.66-1.12,3.11-2.49,6.13-3.86,9.14-1.65,3.62-3.83,7.04-5.03,10.79-1.39,4.32-3.6,7-8.32,7.18-.79.03-1.57.38-2.36.58.5.58.93,1.26,1.52,1.73,3.09,2.47,3.06,4.46-.78,5.13-5.98,1.04-12.19,1.54-18.24,1.15-4.56-.3-6.65-4.49-6.02-9.36,1.79-13.76-3.13-20.97-16.68-23.27-8.51-1.45-17.15-2.27-25.76-2.91-8.88-.66-22.32-10.34-25.26-18.74-2.72-7.79-9.6-12.49-17.97-12.28-7.54.19-9.26-2.31-6.43-9.34.56-1.39,1.09-2.83,1.91-4.06,1.41-2.12.27-6.14,4.57-6.14,4.73,0,9.5-.08,12.58,4.41,1.6,2.33,2.86,4.88,4.4,7.25,1.63,2.51,3.27,5.03,5.19,7.3.72.85,2.31,1.44,3.39,1.3.63-.08,1.29-1.81,1.49-2.89,1.75-9.34-5.03-21.91-13.79-25.56-2.14-.89-4.4-1.67-6.68-2-5.74-.84-9.85-3.54-12.28-8.96-.65-1.44-2.46-2.37-3.73-3.53-.94,1.3-2.32,2.46-2.77,3.91-4.65,15.26-9.46,30.48-13.61,45.88-5.4,20.02-13.37,38.89-26.54,54.86-11.64,14.12-17.69,29.98-19.41,47.76-1.02,10.51,1.45,20.59,6.17,29.96,5.33,10.58,21.5,12.63,31.83,4.25,1.42-1.15,2.51-2.91,4.09-3.62,2.26-1.01,5.24-2.35,7.15-1.6,1.56.61,2.66,4.03,2.83,6.29.63,8.25-9.13,18.75-18.22,19.51-23.58,1.96-43.43-4.54-56.89-25.48-1.38-2.15-4.08-3.47-6.16-5.17-1.38,2.54-3.38,4.93-4,7.64-1.42,6.17.51,8.87,6.61,10.7.64.19,1.34.28,1.9.6,1.77,1.01,3.5,2.12,5.24,3.18-1.55,1.32-2.93,2.97-4.69,3.89-6.24,3.24-8.27,7.54-6.37,14.38,2.09,7.52,6.9,12.38,14.39,14.54,7.58,2.18,9.66,8.17,3.67,13.35-4.05,3.5-9.71,6.13-14.99,6.98-10.07,1.63-17.93,6.11-25.07,13.19-8.5,8.42-17.76,16.06-26.66,24.07-2.84,2.56-5.67,5.15-8.34,7.89-4.68,4.82-9.45,8.62-16.72,9.86-5.19.88-10.42,4.56-14.53,8.21-13.18,11.73-25.75,24.16-38.78,36.07-6.01,5.5-12.83,10.12-18.77,15.69-5.41,5.06-10.64,10.49-15.01,16.44-5.1,6.93-10.26,13.58-17.94,17.74-9.31,5.03-14.65,2.87-17.62-7.17-1.02-3.43-3.08-4.49-6.31-4.05-8.22,1.11-11.98,7.02-9.48,14.88,4.99,15.74.08,24.36-15.92,28.75-6.22,1.71-12.15,4.44-18.34,6.28-3.45,1.03-7.22.96-10.75,1.76-7.07,1.59-14.12,3.31-21.1,5.24-3.18.88-6.12,3.02-9.31,3.39-2.61.3-6.7-.36-7.8-2.08-1.14-1.8.33-5.42,1.04-8.15.31-1.19,1.82-2.02,2.3-3.21.7-1.75,1.9-4.38,1.17-5.37-1.02-1.38-3.77-2.45-5.51-2.15-5.04.87-9.97,2.39-14.89,3.85-3.82,1.13-7.52,2.65-11.34,3.78-3.19.94-6.65,1.21-8.21-2.46-1.61-3.8-.24-7.12,3.15-9.58,4.3-3.13,8.41-6.55,12.83-9.49,15.23-10.12,27.96-23.02,41.16-35.51,9-8.52,19.36-15.7,29.63-22.71,8.18-5.58,17.22-9.89,25.76-14.97,13.06-7.76,23.89-18.26,33.54-29.72,21.03-24.96,41.35-50.53,62.18-75.66,3.64-4.39,2.89-6.91-.95-10.57-5.28-5.03-9.96-10.72-14.62-16.36-5.25-6.34-5.96-13.91-5.09-21.76.09-.81.24-1.71.67-2.38,3.89-6.02,7.37-12.39,11.94-17.86,4.41-5.29,5.83-11.39,2.06-15.65-3.12-3.52-5.06-3.38-7,.81-1.26,2.7-2.09,5.6-3.06,8.43-2.53,7.37-7.01,13.23-13.71,17.22-3.69,2.2-7.91,3.79-11.59.5-3.98-3.55-2.79-8.25-.21-11.84,2.32-3.23,5.49-6.47,9.03-8.05,3.89-1.74,6.24-4.11,6.62-7.88.5-4.91,1.23-10.21-.05-14.81-2.74-9.87-6.26-19.58-10.32-28.99-2.41-5.58-5.56-5.82-10.4-2.29-6.86,5-13.96,8.58-22.99,8.06-4.19-.24-8.46,2.56-12.8,3.05-8.92.99-17.98.79-26.84,2.12-9.84,1.48-18.76,13.21-17.49,23.07.41,3.2,3.54,6.52,6.24,8.83,2.56,2.19,6.29,2.95,9.33,4.66,5.09,2.87,5.57,6.22,1.8,10.51-4.34,4.94-9.23,6.2-15.26,3.55-2.56-1.13-5.35-2.44-7.14-4.47-5.78-6.54-13.26-10.38-20.97-13.75-2.93-1.28-6.47-1.46-9.75-1.55-23.01-.61-45.77-4.13-66.76-13.14-30.8-13.23-63.46-19.7-95.19-29.48-7.58-2.34-14.86-5.72-22.5-7.84-6.82-1.89-13.89-3.25-20.93-3.84-9.56-.8-18.7-2.48-27.47-6.59-8.96-4.2-13.7-10.67-13.34-20.73.07-1.96-.35-3.98-.85-5.9-1.69-6.52-9.19-9.89-15-6.41-3.68,2.21-6.83,5.29-10.27,7.9-4.1,3.12-8.06,6.49-12.45,9.14-7.08,4.28-14.03,3.58-21.1-.94-9.19-5.88-19.01-10.14-30.16-11.47-5.04-.6-9.99-3.42-14.58-5.95-3.61-1.99-3.61-5.42-.72-8.39,1.61-1.66,3.54-3.01,5.36-4.46,6.48-5.16,6.27-9.54-1.07-13.19-4.6-2.29-9.57-3.82-14.37-5.68-5.86-2.26-7.51-5.99-4.01-11.17,3.52-5.21,7.77-9.95,11.98-14.65.83-.92,2.99-1.16,4.42-.94,13.48,2.06,26.9,4.55,40.42,6.31,3.92.51,8.08-1.04,12.14-1.44,4.2-.42,8.42-.72,12.64-.8,1.79-.03,3.61,1.05,5.38.94,14.34-.87,27,4.94,39.85,9.92,24.6,9.54,50.43,14.45,76.03,20.21,5.84,1.31,11.7,2.55,17.56,3.75,6.49,1.34,12.68,3.04,18.5-2.98,2.19-2.26,7.24-1.6,10.87-2.66,9.05-2.66,18.23-5.02,26.96-8.52,6.27-2.51,6.53-4.86,3.91-11.06-.32-.77-.61-1.55-.94-2.31-1-2.27-2.01-4.52-3.01-6.79-1.87,1.41-3.57,3.15-5.64,4.13-1.94.92-4.68,1.95-6.29,1.22-1.64-.74-3.37-3.63-3.29-5.49.59-12.97,1.58-25.94,6.34-38.23.64-1.64,1.8-3.27,3.13-4.42,5.4-4.68,10.72-9.52,16.53-13.65,9.2-6.54,18.61-12.82,28.22-18.74,10.26-6.33,21.99-8.51,33.7-10.16,8.22-1.16,16.57-1.44,24.86-2.1.33-.03.71.07.99-.05,3.09-1.29,6.16-2.62,9.24-3.94-1.34-3.05-2.04-6.7-4.17-9.03-4.58-5.02-9.86-9.42-14.94-13.97-3.12-2.79-6.75-3.46-10.71-1.95-4.06,1.55-7.36,1.3-9.63-3.13-1.72-3.35-4.61-4.01-8.07-2.41-7.55,3.49-14.61,2.34-21.14-2.54-8.42-6.3-17.79-9.11-28.35-9.55-9.2-.38-16.93-5.41-22.91-12.06-5.63-6.25-10.27-13.43-14.98-20.44-3.05-4.54-5.42-9.54-8.18-14.29-2.09-3.59-5.01-4.27-8.32-1.71-3.95,3.05-7.61,6.49-11.64,9.41-7.93,5.73-15.87,11.49-24.16,16.67-2.95,1.85-6.92,2.69-10.45,2.77-2.39.06-6.16-1.48-6.9-3.29-.91-2.23-.25-6.4,1.41-8.09,2.78-2.83,6.7-4.81,10.46-6.36,10.08-4.14,15.84-11.15,16.5-22.22.25-4.24-1-6.67-5.63-6.76-10.35-.21-19.16-3.8-25.78-12.06-1.88-2.35-3.75-2.35-6.38-.58-6.62,4.45-13.23,9.08-20.39,12.48-4.46,2.11-9.9,2.6-14.95,2.88-4.53.25-7.39-2.66-7.9-7.35-.53-4.83,2.31-6.5,6.51-7.82,5.66-1.78,11.16-4.2,16.51-6.81,3.5-1.7,4.23-5.14,1.51-7.89-6.38-6.48-12.66-13.28-20.03-18.46-3.39-2.38-9.38-2.22-13.94-1.52-8.5,1.3-16.73,4.28-25.22,5.71-7.31,1.23-14.8,1.47-22.23,1.83-30.26,1.46-60.53,2.71-90.79,4.24-5.12.26-10.25,1.25-15.28,2.32-7.57,1.62-14.28,4.64-17.27,12.68-.45,1.21-1.32,2.35-2.21,3.32-20.04,21.77-32,48.57-45.87,74.14-4.18,7.71-6.76,16.32-11.12,23.91-3.34,5.82-7.9,11.11-12.68,15.88-8.42,8.41-8.63,8.14-3.28,18.79,5.34,10.64,4.71,21.74,1.41,32.63-6.63,21.89-18.36,41.29-30.74,60.29-.8,1.23-1.91,2.8-3.14,3.09-3.24.77-6.77,1.61-9.89.99-1.21-.24-2.1-4.29-2.35-6.68-.38-3.62.21-7.34-.12-10.98-.46-5.16-3.37-6.87-7.89-4.39-4.65,2.55-8.85,5.92-13.41,8.65-2.78,1.67-5.88,3.91-9.15,1.09-3.07-2.64-2.54-5.94-1.66-9.62,6.2-25.88,11.74-51.79,13.53-78.53,2.27-33.83,13.56-64.94,32.04-93.46,7.33-11.31,13.86-23.13,21.07-34.52,12.78-20.18,25.9-40.15,38.64-60.35,3.18-5.04,5.22-10.77,8.16-15.97,4.81-8.51,9.62-17.05,15-25.2,3.82-5.79,9.72-7.25,16.32-4.95,5.76,2,11.25,1.03,17.12-.13,12.38-2.44,24.96-3.85,37.47-5.67.82-.12,1.66-.18,2.47-.34,12.77-2.43,13.07-2.79,12.61-15.96-.17-5,1.83-9.09,5.34-12.46,6.13-5.88,12.27-11.76,18.59-17.43,2.3-2.07,2.69-3.68.85-6.29-5.75-8.18-10.84-16.6-13.66-26.47-1.23-4.32-5.56-7.72-8.36-11.63-2.4-3.35-4.93-6.67-6.76-10.33-.69-1.39-.19-4.19.86-5.36.79-.88,3.55-.69,5.05-.06,2.73,1.15,5.2,2.94,7.72,4.54,5.41,3.44,15.36.44,17.7-5.52,1.67-4.24-1.66-5.49-4.57-6.87-5.09-2.43-10.2-4.81-15.25-7.29-5.97-2.93-8-7.98-6.48-14.13,2.65-10.66-.52-19.64-6.89-28.01-3.02-3.98-5.59-8.3-8.65-12.24-6.78-8.75-11.42-18.12-11.99-29.56-.24-4.78-2.47-9.67-4.66-14.08-4.4-8.87-8.3-17.78-8.61-27.89-.04-1.42-.6-2.99-1.37-4.2-9.5-15.07-18.61-30.42-33.74-40.92-3.48-2.42-5.99-6.2-9.22-9.05-2.21-1.94-4.88-3.35-7.37-4.97-5-3.24-10.18-6.24-15-9.73-15.58-11.25-31.49-21.89-50.53-26.42-12.09-2.87-20.53-10.71-27.71-20.1-1.29-1.69-1.42-5.89-.21-7.59,4.39-6.15,8.95-12.6,17.96-12.33,1.05.03,2.36-.61,3.13-1.36.98-.96,1.54-2.36,2.28-3.58-1.14-.55-2.3-1.58-3.43-1.56-5.64.11-11.29.35-16.9.9-1.49.15-3.38,1.2-4.18,2.43-2.38,3.65-5.47,3.45-9.19,2.92-21.11-3-38.3-12.76-51.75-29.28-2.73-3.36-5.8-6.43-8.63-9.71-5.68-6.57-2.88-15.72,5.53-18.2,7.23-2.13,8.7-5.17,5.66-12.07-.94-2.12-2.51-3.99-3.3-6.15-2.11-5.73-4.86-11.43-5.7-17.38-1.43-10.14,6.46-16.06,16.19-12.65,3.57,1.25,7.03,3.13,10.12,5.31,5.16,3.65,10.29,7.44,14.88,11.77,12.43,11.73,27.26,18.28,43.87,21.17,8.54,1.49,16.28,4.55,23.05,10.08,45.01,36.74,90.49,72.93,134.8,110.49,12.35,10.47,22.82,24.01,31.45,37.83,11.3,18.07,20.89,37.28,32.82,55,5.45,8.1,11.76,15.8,18.68,22.67,9.84,9.77,23.77,7.15,30.75-4.86,4.02-6.91,8.52-13.56,12.16-20.66,6.99-13.63,18.15-23.41,30.27-31.83,6.18-4.29,14.23-6,21.58-8.45,5.35-1.79,10.95-2.82,16.4-4.3,4.83-1.31,6.4-3.8,4.85-8.52-.91-2.79-2.26-5.71-4.21-7.83-12.18-13.25-13.48-29.47-11.76-45.93.84-8.05,4.17-16.04,7.49-23.57,3.78-8.58,10.29-15.31,18.99-19.11,11.85-5.17,23.97-9.72,35.95-14.59,2.45-1,5.02-1.91,7.15-3.42,4.34-3.08,8.56-6.36,12.55-9.88,7.69-6.79,8.62-4.31.24-13.12-6.33-6.64-15.12-6.01-23.26-7.38-9.16-1.53-18.42-2.83-27.32-5.34-8.12-2.29-11.75-8.52-12.8-17.18-.88-7.28-3.28-14.55-6.14-21.35-2.63-6.25-3.63-11.52,1.32-16.97,2.22-2.44,3.8-5.46,5.64-8.24,7.57-11.44,16.13-21.47,27.99-29.29,10.59-6.99,20.91-13.56,33.43-15.93,13.56-2.57,27.11-5.38,40.79-7.03,22.79-2.75,45.66-5.05,68.55-6.79,14.93-1.14,29.96-.77,44.94-1.43,18.05-.79,35.83-2.98,52.18-11.66,4.51-2.4,9.02-2.99,14.36-1.16,2.99,1.03,7.5-.57,10.68-2.22,8.86-4.59,17.28-10.04,26.07-14.78,21.65-11.68,45.03-17.72,69.44-17.98,25.78-.27,51.61.61,77.35,2.1,14.95.87,29.48,4.83,43.27,11.19,7.09,3.27,14.66,5.47,21.82,8.59,8.66,3.79,17.08,8.12,25.67,12.08,4.65,2.14,9.45,3.94,14.15,5.98,15.43,6.72,30.68,13.71,43.23,25.38,1.63,1.52,3.89,3.03,5.99,3.26,8.75.94,16.53,4.53,23.32,9.56,7.93,5.89,16.6,9.24,26.14,10.16,10.22.99,20.52,1.49,30.79,1.5,7.29,0,13.35-3.71,18.49-8.81,2.72-2.7,5.39-5.46,8.15-8.11,7.6-7.31,10.6-7.61,19.75-2.08,7.47,4.51,11.43,13.65,7.2,21.09-5.26,9.22-9.18,19.5-18.3,26.3-11.47,8.55-24.78,11.51-38.34,14.23-21.13,4.23-40.63-1.9-59.79-9.42-17.96-7.05-35.74-14.58-53.45-22.27-35.25-15.31-71.94-25.02-110.2-28.32-18.23-1.57-36.54-2.36-54.84-2.86-7.76-.22-15.58,1.09-23.35,1.93-2.45.26-4.98.92-7.17,2.02-1.91.96-3.38,2.78-5.05,4.22,1.79,1.02,3.47,2.56,5.39,2.96,11.07,2.3,22.17,4.43,33.3,6.41,17.55,3.13,32.61,12.15,48.31,19.8,20.68,10.08,39.27,23.41,56.92,37.75,23.18,18.84,44.4,40.19,60.29,65.58,9.27,14.8,20.54,27.76,30.79,41.63,6.51,8.82,11.98,18.4,18.03,27.57,7.34,11.11,13.99,22.8,22.38,33.05,16.65,20.35,38.82,28.53,64.83,25.2,5.76-.74,11.27-3.81,16.77-6.09,10.67-4.42,16.66-2.94,23.43,6.14,4.87,6.53,3.89,19.03-2.81,23.05-16.58,9.96-34.26,17.45-54.09,16.4-8.85-.47-17.81-2.09-25.61-7.3-1.78-1.19-4.46-1.35-6.74-1.39-8.67-.15-16.61-2.52-24.39-6.34-21.35-10.49-40.76-23.35-58.41-39.65-24.5-22.63-45.9-47.61-65.87-74.21-15.51-20.66-34.28-38.61-53.89-55.5-4.13-3.56-9.04-6.18-13.49-9.39-5.52-3.99-11.28-7.75-16.32-12.29-17.75-16.01-38.12-25.26-62.28-25.67-10.09-.17-11.5,2.79-16.85,10.73-.5.75.36,3.08,1.27,4,4.57,4.61,9.84,8.6,13.98,13.55,6.83,8.15,13.07,16.81,19.34,25.4,1.32,1.81,1.63,4.34,2.61,6.44,2.02,4.32,3.71,8.9,6.39,12.79,6.14,8.9,4.49,14.59-6.08,16.74-4.39.89-9.35.53-13.77-.48-9.55-2.2-18.94-5.12-28.35-7.89-3.64-1.07-5.3-.32-5.1,3.79.22,4.66.05,9.33.05,14ZM717.04,965l.06.08c3.51-2.45,7.16-4.72,10.47-7.41,2.25-1.83,3.22-4.89-.7-5.4-6-.78-12.33-1.41-18.2-.35-10.96,1.98-20.81,6.71-28.45,15.35-3.3,3.73-6.99,7.16-10.84,10.32-2.91,2.39-6.11,5-9.61,5.99-10.84,3.06-18.7,9.93-23.65,19.38-4.54,8.66-5.49,7.41-13.19,6.45-7.9-.99-11.14,1.33-12.12,9.2-.41,3.28-1.71,5.08-5.29,5.32-2.96.2-5.97.82-8.75,1.84-1.22.45-2.62,2.3-2.67,3.57-.06,1.32,1.1,3.32,2.28,3.9,1.16.57,3.9.28,4.41-.57,2.37-3.91,5.55-3.42,9.13-2.61,4.13.94,6.8-.59,7.51-5,.18-1.14.28-2.45.91-3.34,1.14-1.61,2.64-2.95,3.99-4.41,1.42,1.64,3.3,3.07,4.11,4.96.73,1.72.19,3.94.37,5.92.35,3.8.57,7.64,1.35,11.36.27,1.28,2.05,2.25,3.13,3.35.91-1.25,1.94-2.44,2.66-3.79.36-.67.16-1.63.22-2.46.57-8.3,3.98-15.45,9.39-21.54,1.43-1.6,4.2-2.11,6.46-2.8.52-.16,1.61.9,2.09,1.62.15.23-.77,1.22-1.25,1.83-2.33,2.97-5.09,5.7-6.95,8.95-5.27,9.22-4.78,10.09,5.6,12.91.48.13.95.31,1.44.42,3.02.65,4,2.31,3.39,5.45-.53,2.73-.86,5.72-.27,8.38.39,1.76,2.3,3.83,4,4.42,1.07.37,3.42-1.44,4.46-2.82,5.19-6.85,10.24-13.82,15.08-20.92,1.18-1.74,1.39-4.14,2.04-6.24-2.23-.63-4.47-1.77-6.7-1.76-2.59.01-5.16,1.25-7.78,1.55-2.26.26-3.25-1.04-1.76-3.02,1.49-1.98,3.21-3.83,5.07-5.48,14.83-13.08,31.48-23.4,48.98-32.48,6.19-3.21,12.19-6.82,18.08-10.56,2.77-1.76,5.14-4.9,2.84-7.96-1.45-1.93-4.93-3.17-7.53-3.21-4.6-.07-9.23,1-13.84,1.6ZM457.98,669.09l.04-.08c-.25,2.31-.58,4.62-.74,6.94-.85,12.76-2.49,25.54-2.14,38.26.18,6.44,3.72,12.9,6.34,19.09.67,1.59,3.6,2.21,5.5,3.28.74-1.87,1.94-3.7,2.09-5.62.21-2.61-.74-5.31-.58-7.93.34-5.54.63-11.15,1.84-16.53.63-2.79,2.94-2.79,4.26.32,1.16,2.74,2.31,5.53,3.88,8.04.67,1.07,2.49,2.12,3.61,1.96.86-.13,1.71-2.09,2.09-3.38,2.14-7.33,3.47-14.97,6.31-22.02,9.24-22.98,25.3-39.24,49.04-47.3,2.96-1,6.15-1.35,9.26-1.86.7-.11,1.5.39,2.26.62-.44.79-.68,2.01-1.34,2.31-3.47,1.58-6.97,3.22-10.61,4.32-13.54,4.08-24.52,11.94-33.36,22.73-9.07,11.06-12.16,24.21-12,38.23.02,1.35,1.4,2.68,2.15,4.02.96-.76,2.23-1.32,2.82-2.3,5.51-9.19,9.97-19.2,16.58-27.49,6.78-8.49,15.6-15.36,23.62-22.84,1.3-1.22,3.07-2,4.72-2.75.78-.35,1.81-.15,2.72-.2-.36.96-.52,2.1-1.14,2.83-.6.71-1.64,1.16-2.56,1.48-9.83,3.31-13.77,10.99-14.9,20.5-.63,5.31-2.75,9.59-5.87,13.97-4.3,6.03-7.83,12.74-10.79,19.55-2.09,4.79.7,7.53,5.46,5.35,4.18-1.92,8.51-4.8,11.19-8.43,5.49-7.45,9.89-15.7,14.82-23.57,1.14-1.82,2.46-3.6,3.99-5.09.93-.9,2.44-1.22,3.69-1.79-.43,1.45-.43,3.69-1.37,4.21-4.55,2.51-3.97,6.23-3.41,10.37,1.55,11.56-1.78,21.75-9.42,30.49-2.36,2.69-5.16,4.63-9.2,3.82-1.16-.23-2.54.69-3.82,1.09,1.09,1.07,2.1,2.95,3.28,3.07,6.49.65,6.79,5.03,7.73,10.18,1.38,7.58,3.97,14.96,6.48,22.28.47,1.36,2.98,2.03,4.55,3.01.71-1.72,2.15-3.51,2.01-5.15-.97-10.88,1.72-21.19,4.82-31.37.81-2.65,3.16-4.84,4.8-7.24.68,2.94,2.23,5.98,1.9,8.81-2.18,18.8,7.04,34.49,13.54,50.9.55,1.38,3.12,2.74,4.69,2.67,1.19-.05,3.16-2.33,3.26-3.73.36-5.07.84-10.33-.1-15.25-3.91-20.36-2.34-40.25,5.51-59.29,2.9-7.03,8.23-13.08,12.72-19.39.67-.95,2.8-.86,4.25-1.25-.46,1.33-.61,2.91-1.44,3.96-7.43,9.4-11.59,20.17-13.34,31.89-1.27,8.55-2.39,17.14-3.08,25.75-1.11,13.84,1.47,16.63,15.38,16.59,5.25-.02,7.84,2.21,9.39,7.01,1.62,5.04,3.78,9.94,6.03,14.74.61,1.3,2.4,2.04,3.65,3.03.78-1.32,2.12-2.59,2.24-3.98.8-8.95,1.19-17.93,2.04-26.87.39-4.1,1.26-8.19,2.44-12.13.33-1.1,2.52-1.65,3.85-2.45.53,1.29,1.45,2.58,1.49,3.88.06,2.31-.34,4.65-.7,6.95-3.24,20.92,3.57,39.42,13.89,56.99.81,1.37,3.4,1.7,5.16,2.51.33-1.95,1.43-4.19.83-5.78-1.27-3.38-3.56-6.35-5.19-9.61-1.33-2.65-1.45-4.81,2.15-6.35,1.99-.85,3.81-3.19,4.71-5.28,1.55-3.64,2.28-7.63,3.43-11.45,2.61-8.72,5.09-17.49,8.04-26.1.79-2.3,3.09-4.08,4.69-6.1-.22,2.62.09,5.43-.74,7.84-4.46,12.93-7.26,26.32-5.33,39.76,1.8,12.55,5.97,24.77,9.19,37.11.2.76,1.24,1.3,1.88,1.95.74-.85,1.87-1.58,2.15-2.55,2.74-9.55,5.35-19.14,7.98-28.73,1.26-4.62,2.2-9.35,3.85-13.82.64-1.72,2.86-2.86,4.36-4.26,1.09,1.76,2.23,3.48,3.23,5.29.3.54.29,1.31.25,1.97-.49,10.26-1,20.52-1.51,30.77-.2,3.98-.83,8.01-.43,11.93.19,1.91,2.01,4.72,3.6,5.13,1.46.38,4.34-1.5,5.3-3.14,1.82-3.1,2.6-6.8,4.04-10.15.94-2.19,2.26-4.21,3.42-6.3.82,2.37,2.01,4.69,2.38,7.13.91,6.08,1.24,12.24,2.27,18.3.26,1.55,2.24,2.82,3.43,4.22.9-1.63,2.16-3.17,2.64-4.91,1.45-5.26,2.07-10.8,3.97-15.87,3.86-10.27,8.04-20.46,12.7-30.4,3.73-7.94,3-15.04-1.7-22.13-6.8-10.25-11.59-21.28-13.18-33.63-.52-4-1.64-7.96-7.24-7.73-1.23.05-2.72-1.23-3.74-2.24-4.78-4.72-7.84-10.16-7.78-17.21.12-15.92,5.37-30.34,12.41-44.28.54-1.08,1.73-1.84,2.61-2.74.12,1.37.61,2.84.29,4.09-1.89,7.24-4.19,14.38-5.96,21.65-2.74,11.28-2.82,22.49,2.77,33.07.8,1.51,2.93,2.31,4.45,3.43.9-1.61,2.09-3.14,2.67-4.86,2.22-6.58,3.95-13.34,6.5-19.77.81-2.04,3.64-3.29,5.54-4.9-.2,2.22-.23,4.48-.63,6.67-1.51,8.29-5.4,16.88-4.27,24.77,2.98,20.73,11.25,39.73,22.61,57.62,6.53,10.28,11.85,21.8,15.15,33.49,2.45,8.65.95,18.47.8,27.76-.03,2.08-1.79,4.14-2.76,6.2-.66-2.36-1.75-4.69-1.88-7.08-.29-5.44.31-10.96-.3-16.35-.27-2.38-2.6-4.53-3.99-6.78-1.81,2.14-4.5,4.01-5.23,6.47-1.36,4.56-2.03,9.44-2.2,14.22-.49,13.85.1,27.67,4.5,40.98.64,1.94,2.83,3.38,4.3,5.05,1.49-1.4,3.41-2.54,4.39-4.24,4.46-7.71,8.66-15.58,12.92-23.4.22-.4.06-.98.22-1.42.85-2.3,1.1-5.43,2.76-6.72,5.22-4.04,6.53-9.27,6.61-15.39.18-13.99.44-27.98.94-41.96.12-3.45,1.29-6.86,1.98-10.29,1.82,3.24,4.26,6.29,5.37,9.75,7.42,23.2,4.7,46.03-3.36,68.49-.91,2.54-3.07,4.65-4.69,6.93-3.35,4.72-7.1,9.21-9.93,14.23-1.28,2.27-.75,5.56-1.04,8.39,2.84-.78,6.74-.66,8.32-2.51,5.89-6.91,11.33-14.26,16.37-21.83,6.91-10.38,13.36-21.06,19.84-31.72,1.23-2.03,2.36-4.53,2.36-6.82,0-9.99-.61-19.98-.68-29.97-.06-9.66.2-19.32.51-28.97.04-1.24,1.21-2.44,1.86-3.66.83,1.13,1.75,2.21,2.47,3.4.32.53.34,1.29.34,1.95.14,15.12.73,30.26.18,45.35-.29,8.05-2.05,16.16-4.08,24-4.85,18.77-19.57,31.25-30.43,46.18-2.83,3.89-6.04,7.51-8.85,11.42-5.52,7.68-11.11,15.33-16.22,23.29-2.37,3.69-3.96,7.98-5.32,12.18-.41,1.25.82,3.47,1.95,4.57.44.43,3.12-.61,4.02-1.64,2.62-2.99,4.7-6.46,7.3-9.48,2.79-3.26,5.82-6.34,8.98-9.23.68-.62,2.38-.14,3.61-.17-.21,1.07-.11,2.35-.67,3.18-2.25,3.3-5,6.28-7.04,9.69-10.43,17.46-17.34,36.31-21.38,56.19-.81,3.99-.77,8.27-.42,12.35.26,3.05,2.05,6.4,5.64,5.52,1.7-.42,2.84-3.73,3.94-5.89,2.3-4.52,4.29-9.2,6.69-13.66.44-.82,2.2-.92,3.34-1.36-.03,1.09.09,2.22-.13,3.27-6.05,29.13-7.24,57.95,5.1,85.99,1.94,4.41,3.43,9.06,5.8,13.23,2.57,4.52,6.57,4.35,8.54-.49,1.59-3.9,2.85-8.4,2.59-12.52-1.08-16.75-3-33.45-4.24-50.2-.89-12.05,1.29-23.58,7.87-33.95.74-1.17,2.58-1.65,3.91-2.45.51,1.47,1.4,2.94,1.44,4.42.05,1.96-.52,3.94-.91,5.9-1.12,5.71-3.55,11.48-3.2,17.09,1.13,18.06,3.25,36.06,5.1,54.08.1.96,1.31,2.63,1.79,2.56,1.12-.16,2.12-1.18,3.15-1.88,1.76-1.21,3.44-3.41,5.25-3.5,6.26-.31,7.79-1.23,7.88-7.75.12-7.82-.29-15.65-.4-23.48-.08-6.15-.18-12.31.03-18.45.05-1.44,1.3-2.83,2-4.25,1.39,1.07,3.57,1.88,4.01,3.25,1.36,4.22,2.65,8.62,2.9,13.01.71,12.47.87,24.97,1.33,37.45.05,1.23.71,2.43,1.09,3.65,1.21-.68,2.97-1.05,3.55-2.08,2.73-4.91,5.25-9.95,7.6-15.05,1.4-3.03,2.14-6.54,6.3-6.88,12.46-1.03,19.42-9.05,24.79-19.23.83-1.58,1.98-3.12,3.35-4.23.88-.72,2.69-1.18,3.59-.75.84.4,1.51,2.18,1.43,3.29-.27,3.47-.77,6.94-1.46,10.36-2.94,14.56-5.83,29.19-3.32,44.06,1.2,7.12,3.01,14.39,6.06,20.88,3.37,7.16,10.96,6.69,14.62-.43,1.47-2.87,2.09-6.29,2.59-9.54.63-4.1.39-8.35,1.17-12.42.64-3.35,1.9-6.7,3.53-9.7.63-1.15,3.05-1.33,4.65-1.95.31,1.49.91,2.99.86,4.47-.1,2.81-.68,5.61-.83,8.43-.05.86.5,2.39,1.03,2.51.96.22,2.64-.04,3.08-.72,1.71-2.6,3.88-5.31,4.39-8.23,2.32-13.23,5.33-26.52,5.78-39.86.45-13.2-1.71-26.51-3.11-39.73-.34-3.17.46-4.83,3.22-5.69,3.21-1.01,4.56.81,5.18,3.67.49,2.27,1.28,4.49,1.67,6.77,2.08,12.3,4.05,24.61,6.13,36.9.18,1.07.81,2.06,1.23,3.09.67-.84,1.63-1.58,1.95-2.53,1.21-3.6,3.01-7.25,3.14-10.93.28-8.11-.47-16.26-.49-24.39,0-2.47,1.01-4.94,1.55-7.41,1.64,1.55,3.29,3.08,4.9,4.65.47.46.8,1.07,1.26,1.55,2.87,2.97,4.79,2.6,6-1.29.49-1.56.63-3.25.77-4.9.88-10.89-1.38-21.16-5.89-31.05-3.1-6.81-6.11-13.68-8.84-20.65-.59-1.51.14-3.53.26-5.32,2.02.31,4.79-.09,5.91,1.08,2.82,2.95,5.12,6.49,7.23,10.03,2.73,4.57,4.89,9.48,7.7,13.99.86,1.37,3.05,1.92,4.63,2.84.63-1.76,1.84-3.54,1.76-5.26-.12-2.61-1.14-5.17-1.78-7.75-1.76-7.09-3.72-14.15-5.23-21.29-1.64-7.78-1.34-8.05,6.08-11.03,7.43-2.98,8.47-5.97,4.76-13.06-2.31-4.41-5.47-8.69-6.43-13.4-1.41-6.95-4.64-11.99-10.5-15.57-2.5-1.53-2.95-3.12-1.23-5.66,5.9-8.69,9.38-18.46,10.99-28.7,1.28-8.14,1.46-16.47,1.75-24.73.05-1.36-1.83-2.79-2.81-4.19-1.24,1.35-3.17,2.51-3.59,4.08-.85,3.17-1.04,6.54-1.21,9.85-.49,9.34-2.49,18.2-8.58,25.56-1.28,1.54-3.81,2.04-5.77,3.02-.24-2-1.05-4.13-.62-5.98,1.6-6.97,4.17-13.74,5.33-20.77,2.48-14.92,4.27-29.95,6.44-44.92.22-1.53,1.12-2.97,1.71-4.45.84,1.46,1.69,2.92,2.5,4.4.15.27.14.65.16.98.36,5.64.72,11.27,1.05,16.91.39,6.47,1.68,8.9,7.61,8.56,2.9-.17,4.23,1.53,4.32,4.31.18,5.33.47,10.65.47,15.98,0,3.1,1.19,4.21,4.22,3.67,3.44-.62,6.9-1.42,10.36-1.49,2.69-.05,6.16.02,7.95,1.57,5.73,5,8.63,11.75,8.74,19.42.02,1.33-1.43,2.69-2.2,4.03-1.25-.94-2.97-1.62-3.63-2.86-1.15-2.17-1.42-4.79-2.47-7.02-.7-1.5-2.11-2.66-3.21-3.98-1.01,1.41-2.65,2.71-2.9,4.25-.81,4.89-1.61,9.88-1.45,14.81.18,5.56,2.66,6.51,6.78,2.84,3.12-2.79,6.03-2.78,9.58-1.17,9.62,4.35,11.92,2.57,10.88-8.21-.08-.83-.13-1.68-.36-2.47-2.43-8.12-4.98-16.19-7.33-24.33-9.06-31.46-23.84-60.1-44.75-85.13-23.33-27.92-49.32-53.27-78.76-74.92-14.08-10.36-27.75-21.27-41.64-31.89-6.21-4.74-12.5-9.38-18.74-14.08-6.91-5.19-13.9-10.26-20.68-15.62-8.48-6.71-16.23-14.49-25.26-20.31-16.62-10.72-31.73-23.14-46.21-36.49-6.97-6.43-13.79-13.27-21.66-18.41-5.54-3.61-9.22-7.89-11.85-13.55-.91-1.96-1.51-4.06-2.42-6.02-2.44-5.3-4.93-5.76-8.11-1.08-5.4,7.96-9.12,16.67-9.49,26.44-.37,9.52-3.18,17.93-9.82,24.96-5.6,5.94-10.98,12.09-16.59,18.01-1.81,1.92-3.89,3.71-6.16,5.01-1.37.79-3.33.54-5.03.75.19-1.65.08-3.43.67-4.92.59-1.49,1.77-2.83,2.9-4.02,2.68-2.83,3.12-5.45-.39-7.88-2.94-2.04-3.01-4.46-.45-6.56,6.89-5.65,14-11.04,20.96-16.62,1.22-.98,2.77-2.22,3.05-3.57.74-3.55,1.2-7.24,1.16-10.87-.05-4.19-1.96-4.97-5.35-2.26-3.38,2.7-6.49,5.73-9.69,8.65-11.13,10.15-22.39,19.89-38.11,22.47-3.38.55-6.49,3.22-9.53,5.21-2.22,1.44-4.01,3.54-6.22,5.01-1.78,1.18-3.89,1.86-5.85,2.76.77-2.25,1.24-4.66,2.37-6.71,1.59-2.88,4.09-5.31,5.45-8.27,1.8-3.91.01-6.34-4.24-5.83-3.76.45-7.41,1.8-11.15,2.57-11.37,2.35-22.69,5.07-34.16,6.71-5.28.75-10.89-.5-16.29-1.26-1.17-.16-2.1-2.09-3.14-3.21,1.26-.8,2.47-2.17,3.8-2.3,2.96-.3,6-.14,8.98.12,19.86,1.75,38.72-2.35,56.98-9.78,2.44-.99,4.9-2.32,6.81-4.08,1.4-1.29,2.89-3.75,2.56-5.31-.33-1.53-2.73-3.27-4.52-3.7-3.02-.73-6.28-.4-9.42-.69-5.94-.54-11.89-1.11-17.8-1.9-1.08-.15-2.01-1.45-3-2.22,1.04-.57,2.04-1.45,3.14-1.64,2.61-.45,5.28-.6,7.93-.82,7.95-.68,16.04-.66,23.82-2.22,6.77-1.36,13.14-4.64,19.78-6.75,2.49-.79,5.27-.67,7.92-.97-1.86,1.72-3.54,3.72-5.62,5.12-7.9,5.3-13.05,12.41-14.1,21.92-.25,2.31.8,5.61,2.46,7,1.28,1.07,5.12.72,6.7-.48,9.37-7.13,18.64-14.43,27.42-22.26,2.65-2.36,3.56-6.63,5.39-9.96,2.62-4.76,5.32-9.48,8.08-14.15,1.01-1.71,2.87-3.1,3.34-4.9,1.17-4.47,4.79-6.37,7.76-9.24,3.8-3.66,7.1-8.31,9.17-13.15,2.11-4.94-1.14-7.93-6.21-6.29-7.15,2.31-12.81,6.76-17.52,12.69-3.03,3.82-6.31,7.89-10.38,10.34-16.03,9.65-33.73,14.93-52.11,17.77-4.7.73-9.61.28-14.41,0-1.11-.06-2.13-1.63-3.19-2.51,1.07-.64,2.07-1.61,3.22-1.84,2.27-.45,4.64-.42,6.95-.72,8.73-1.12,17.56-1.81,26.16-3.58,9.78-2,19.4-4.8,27.49-11.23,2.48-1.97,2.42-2.86-.41-4.43-6.1-3.4-12.54-3.2-18.98-2.12-8.85,1.49-17.58,3.8-26.46,5.02-5.33.73-10.87.29-16.29-.12-1.44-.11-2.75-1.99-4.12-3.06,1.43-.93,2.74-2.32,4.3-2.7,2.89-.71,5.91-.88,8.88-1.18,10.26-1.03,20.6-1.49,30.76-3.13,14.68-2.37,28.79-6.96,42.02-13.89,12.28-6.43,21.77-15.85,28.59-27.85,2.04-3.59,3.13-8.27-.21-11.14-2.15-1.84-6.38-2-9.57-1.71-4.94.45-9.74,2.18-14.67,2.86-3.04.41-6.32.31-9.27-.44-1.53-.39-2.57-2.7-3.83-4.14,1.51-.86,2.94-1.93,4.54-2.53,1.53-.57,3.24-.75,4.89-.95,16.89-2.06,31.54-9.18,44.44-20,5.42-4.55,8.58-9.46,2.86-17.27-2.86-3.9-.84-7.61,4.02-8.94,2.38-.65,5.04-1.18,6.91-2.62,9.78-7.49,17.44-16.89,23.23-27.73.88-1.64,1.13-4.85.14-5.9-1.02-1.08-4.06-.94-5.93-.38-3.96,1.2-7.68,3.19-11.6,4.54-6.87,2.37-9.62,1.22-14.31-4.09-1.54-1.75-4.35-2.95-6.72-3.23-2.71-.32-5.59.57-8.36,1.13-7.99,1.61-15.99,3.17-23.91,5.08-1.84.45-3.37,2.2-5.04,3.36,1.87.68,3.74,1.93,5.6,1.92,6.15-.03,12.3-.73,18.45-.72,2.96,0,5.91,1.03,8.87,1.59-2.64,1.21-5.17,3.05-7.94,3.53-19.64,3.42-39.45,3.11-59.26,1.97-1.8-.1-3.54-1.47-5.3-2.25,1.78-.88,3.48-2.02,5.36-2.57,1.72-.5,3.62-.42,5.44-.51,4.82-.23,9.65-.35,14.46-.67,1.05-.07,2.06-.79,3.1-1.21-.52-.94-1.04-1.89-1.57-2.83-1.14-2.04-2.29-4.07-3.44-6.1,2.11-1.15,4.13-2.55,6.37-3.35,1.83-.65,3.92-.67,5.9-.82,5.48-.39,11-.41,16.44-1.11,7.62-.98,15.2-2.46,21.13-7.99,4.39-4.1,14.75-10.28,20.67-11.61,19.1-4.26,29.58-18.24,38.02-34.13,3.12-5.88,6.74-10.38,12.84-13.22,7.07-3.28,9.94-9.97,8.19-17.39-.86-3.65-3.07-4.45-5.58-1.61-2.41,2.72-4.35,5.88-6.34,8.95-4.64,7.14-9.19,14.27-16.63,19.01-18.73,11.93-39.05,20.16-60.7,24.58-11.85,2.42-24.11,2.76-36.18,4.12-8.58.97-17.68.58-25.59,3.44-13.62,4.92-27.27,4.93-40.86,2.72-14.58-2.37-28.28-4.12-43.51-.8-18.64,4.05-38.39,2.99-57.65,4.22-11.65.75-12.72-2.04-11.99,13.66.45,9.66,4.62,16.3,14.45,19.12,3.37.97,6.57,3.19,9.32,5.47,2.74,2.28,2.85,5.45.64,8.51-7.11,9.83-24.85,9.81-32.16.2-8.1-10.66-18.19-16.73-32.37-13.85-19.31,3.91-35.9,12.9-50.48,25.85-1.83,1.62-3.55,3.72-4.41,5.95-.73,1.91-.16,4.32-.16,6.5,1.85-.4,3.85-.46,5.52-1.25,9.02-4.23,17.95-8.66,26.94-12.96,1.34-.64,2.83-1.13,4.29-1.28.97-.1,2.02.53,3.03.83-.66.8-1.17,1.89-2.01,2.35-4.65,2.56-9.58,4.66-14.04,7.5-16.16,10.29-32.21,20.74-48.18,31.33-2.18,1.44-3.61,4-5.39,6.04,2.7.87,5.42,2.56,8.09,2.47,16.59-.53,32.63-3.18,47.73-10.97,8.19-4.22,17.14-7.46,26.12-9.54,16.9-3.91,34.12-2.55,51.21-.62,5.96.67,11.85,1.96,17.78,2.96-.08.55-.16,1.1-.25,1.66-9.08-.69-18.18-1.26-27.25-2.1-22.73-2.09-44.55-.02-64.36,12.8-5.86,3.79-12.19,6.84-18.36,10.15-8.69,4.67-17.97,6.87-27.86,6.61-3.83-.1-7.74.55-11.48-.02-11.31-1.74-19.22,2.47-25.41,11.99-4.23,6.51-10.1,11.93-14.76,18.19-2.16,2.9-3.55,6.84-.57,10.17,3,3.36,7.02,2.36,10.12.43,3.7-2.31,6.6-5.85,10.18-8.39,9.58-6.8,19.79-12.13,31.68-13.94,3.74-.57,7.21-2.96,10.81-4.5,3.73-1.6,7.38-3.45,11.23-4.7,4.88-1.58,10.25-1.98,14.85-4.1,14.94-6.89,30.59-11.39,46.65-14.34,9.11-1.68,18.48-1.99,27.75-2.77.88-.07,1.84.9,2.77,1.39-.88.4-1.74.87-2.66,1.18-.62.21-1.31.25-1.97.27-22.17.57-42.87,7.32-63.23,15.3-5.54,2.17-10.75,5.28-15.85,8.4-1.7,1.05-2.56,3.48-3.8,5.28,2.16.48,4.39,1.53,6.48,1.31,3.78-.4,7.44-1.77,11.21-2.35,2.18-.34,4.47.07,6.71.14-1.66,1.39-3.12,3.55-5.01,4.05-7.18,1.9-14.54,3.14-21.76,4.93-1.74.43-4.63,2.14-4.55,3.06.45,5.46-3.06,8.52-6.11,12.04-5,5.79-10.17,11.47-14.64,17.66-2.98,4.13-5.37,8.89-7.01,13.72-.78,2.3-.03,6.24,1.59,7.89,1.33,1.35,5.44,1.31,7.52.28,4.73-2.34,9.26-5.33,13.32-8.72,2.58-2.15,5.35-5.24,5.98-8.33,2.29-11.17,11.29-15.48,19.53-20.72.52-.33,1.25-.34,1.88-.49-.24.67-.31,1.49-.74,1.99-3.28,3.75-6.86,7.26-9.84,11.23-1.06,1.41-.71,3.88-1,5.86,1.99-.24,4.09-.17,5.96-.78,5.17-1.71,10.15-4.03,15.38-5.49,3.81-1.07,8.28-1.52,10.45,2.92,1.12,2.31-4.3,5.77-9.26,6.9-5.62,1.28-11.4,2.52-16.59,4.91-18.01,8.3-33.79,19.98-48.27,33.45-4.47,4.16-6.77,9.28-6.52,15.59.37,9.28-3.91,12.78-13.31,11.71-1.7-.19-3.54.85-5.31,1.32,1.25,1.38,2.35,2.94,3.79,4.1,2.79,2.26,6.3,3.85,8.55,6.53,3.67,4.38,5.21,5.17,9.5,1.11,5.43-5.14,10.27-10.91,15.48-16.28,4.98-5.13,9.99-10.24,15.27-15.06,1.13-1.03,3.44-.75,5.21-1.08-.58,2.01-.63,4.46-1.85,5.95-3.23,3.96-7.57,7.1-10.4,11.29-12.94,19.15-29.05,35.09-47.59,48.74-1.29.95-2.9,3.28-2.52,4.25.58,1.49,2.7,3.2,4.28,3.32,3.93.31,7.97.04,11.9-.46,12.37-1.56,23.1-5.86,29.82-17.41,3.43-5.89,7.45-11.46,11.52-16.94,4.36-5.88,8.97-11.58,13.76-17.12,1.1-1.27,3.35-1.55,5.06-2.29-.33,1.66-.3,3.5-1.04,4.95-3.57,6.96-7.53,13.73-10.98,20.75-1.44,2.94-1.96,6.35-2.89,9.54,3.83-.43,7.72-.56,11.46-1.41,1.8-.4,3.28-2.16,4.94-3.25,1.52-1,3.02-2.6,4.63-2.74,2.73-.24,5.55.47,8.32.78-1.27,2.09-2.09,4.77-3.9,6.16-6.87,5.26-14.16,9.97-21.12,15.13-13.86,10.28-21.8,24.45-26.15,40.85-1.36,5.14,2.51,13.35,7.31,15.09,5.58,2.02,8.14-2.42,10.74-5.96,2.25-3.08,3.94-6.56,5.95-9.81,2.19-3.54,4.42-7.05,6.73-10.51.73-1.1,1.63-2.2,2.7-2.91.85-.56,2.1-.51,3.18-.73.07,1.04.47,2.2.14,3.09-1.04,2.8-2.48,5.46-3.55,8.25-4.97,12.9-6.56,26.18-2.97,39.61.69,2.56,4.28,4.35,6.53,6.5,1.42-2.42,2.86-4.82,4.23-7.26.23-.4.14-.98.19-1.48.93-8.09.82-16.48,3.08-24.18,2.3-7.82,6.91-14.96,10.61-22.35.27-.55,1.31-.72,2-1.06-.05.59.08,1.28-.18,1.76-6.46,12.12-7.46,25.37-8.25,38.71-.65,10.9.54,22.03-4.77,32.34-1.01,1.97-.15,4.9-.16,7.39,2.67-.84,5.44-1.47,7.97-2.63,1.02-.47,1.6-2.04,2.23-3.2,1.67-3.04,3.46-6.03,4.84-9.2,2.95-6.8,6.25-13.54,8.32-20.62,2.22-7.56,3.85-15.19,9.86-20.87ZM793.13,128.6c-2.16.11-4.33.14-6.48.36-3.83.39-6.47-1.56-6.71-4.99-.08-1.13,3.5-3.21,5.66-3.67,8.46-1.78,17.04-2.97,25.52-4.69,1.67-.34,3.05-2.09,4.56-3.2-1.37-1.52-2.54-4.06-4.14-4.38-5.15-1.02-10.47-1.64-15.72-1.62-6.3.02-12.59,1.07-18.9,1.21-1.54.03-3.11-1.79-4.67-2.75.97-1.41,1.63-3.6,2.95-4.1,6.48-2.48,13.13-4.49,19.71-6.7,2.77-.93,5.98-1.37,8.17-3.09,3.59-2.82,2.5-6.71-2.02-7.47-4.23-.71-8.62-.81-12.92-.66-8.44.3-17,.13-24.58,5.07-1.27.83-3.49.4-5.23.18-.74-.09-1.36-1.13-2.04-1.74.56-.55,1.04-1.41,1.71-1.61,4.12-1.26,8.23-2.7,12.45-3.48,7.19-1.32,14.48-2.1,21.69-3.35,1.25-.22,3.02-1.52,3.21-2.55.18-1-1.16-2.98-2.24-3.35-3.85-1.34-7.93-3.21-11.83-3.04-17.78.79-35.53,2.34-53.31,3.35-8.59.49-17.22.67-25.83.49-5.58-.12-11.14-1.54-16.73-1.66-5.3-.12-10.62.76-15.94,1.06-4.75.26-9.25-.08-12.61-4.35-2.18-2.77-4.67-2.08-7.41-.1-2.46,1.78-5.38,3.63-8.28,4-12.87,1.62-25.83,2.5-38.7,4.07-20.13,2.46-40.45,4.17-60.26,8.29-13.17,2.74-25.73,8.76-38.26,14.03-6.04,2.54-10.3,7.25-9.36,14.95.17,1.39-1.57,3.56-3.01,4.48-2.19,1.41-5.15,1.65-7.3,3.09-4.76,3.19-9.94,6.19-13.62,10.43-4.32,4.98-2.26,9.59,4.2,10.9,6.67,1.36,13.49,1.99,20.19,3.26,10.43,1.97,20.84,4.05,31.18,6.46,1.7.4,2.96,2.7,4.42,4.12-1.96.92-4.07,2.82-5.85,2.56-4.88-.73-9.82-1.88-14.36-3.76-7.84-3.24-15.43-3.91-23.13,0-3.79,1.93-6.73,4.73-6.25,9.3.5,4.67,4.19,5.89,8.26,6.5,10.66,1.61,21.44,2.77,31.93,5.15,14.2,3.21,17.94.61,17.85-14-.01-2.49-.9-5.71,3.06-6.31,3.9-.59,7.57.33,7.85,4.74.4,6.19-.01,12.45-.4,18.67-.19,3.1-1.41,6.14-1.61,9.24-.33,4.92.14,9.89-.34,14.78-.48,4.94-2.92,8.61-8.2,10.14-3.48,1.01-6.95,2.52-10.02,4.44-14.24,8.91-31.12,11.11-45.93,18.3-6.98,3.39-12.82,9.18-19.04,14.07-.78.61-1.29,2.75-.82,3.44.53.79,2.28.93,3.53,1,1.13.07,2.35-.17,3.42-.56,7.18-2.6,14.28-5.41,21.52-7.82,1.9-.63,4.2-.08,6.32-.07-1.45,1.42-2.64,3.42-4.37,4.18-13.49,5.91-23.69,15.36-30.67,28.23-1.72,3.17-2.91,6.73-3.69,10.26-.78,3.5,1.26,4.88,4.32,3.08,3.86-2.27,7.48-4.96,11.07-7.65,4.26-3.2,8.32-6.66,12.61-9.82.9-.66,2.38-.53,3.59-.76-.05,1.39.31,2.99-.24,4.13-.86,1.76-2.22,3.33-3.6,4.75-3.01,3.11-6.26,6-9.25,9.12-6.93,7.21-10.79,15.64-9.21,25.83.59,3.82.7,9,5.71,9.41,4.9.41,5.32-4.61,6.54-8.15,6.07-17.59,17.33-30.74,33.3-40.3,5.12-3.07,9.25-7.81,13.8-11.83,2.96-2.62,5.5-5.91,8.84-7.86,6.57-3.84,13.54-7.03,20.42-10.32,1.67-.79,3.66-.9,5.5-1.33-1.09,1.48-2.15,2.98-3.28,4.43-.29.38-.82.57-1.21.88-8.23,6.47-16.44,12.96-24.7,19.39-1.56,1.22-3.45,2.04-4.97,3.29-8.07,6.63-16.2,13.2-24,20.14-1.38,1.23-1.3,4.1-1.89,6.21,2.03.15,4.39,1.06,6.03.33,10.46-4.65,20.95-9.28,31.03-14.68,5.63-3.02,9.88-7.9,10.6-14.91.1-.98,1.1-1.87,1.69-2.8.66,1.02,1.83,2.01,1.87,3.06.16,3.47-.27,6.96-.12,10.43.13,3.01,1.34,5.23,4.61,2.52,8.8-7.29,15.67-15.97,18.08-27.41,1.22-5.79.71-11.42-5.13-14.94-2.56-1.54-2.88-3.43-1.24-5.81,2.55-3.7,4.96-7.51,7.74-11.04.83-1.06,2.67-1.33,4.05-1.96.28,1.63,1.23,3.51.74,4.86-3.27,9.09-1.38,17.76,1.97,26.24,1.59,4.02,3.78,4.23,6.66.79,6.55-7.79,10.47-16.49,9-27.07-1.1-7.89-.47-15.67,3.45-22.81.73-1.33,2.32-2.18,3.52-3.25.6,1.42,1.78,2.88,1.69,4.26-.6,9.77-1.49,19.52-2.18,29.29-.1,1.36.02,3.66.7,3.95,1.33.56,3.71.6,4.59-.25,1.39-1.34,2.37-3.53,2.66-5.48.43-2.94,0-5.99.14-8.98.16-3.31,1.81-5.16,5.38-5.17,7.4-.02,14.82,5.11,17.22,12.08,2.12,6.15,4.23,7.78,10.7,7.23,4.79-.41,9.51-1.56,14.29-2.18,1.15-.15,2.41.54,3.61.84-.75.98-1.31,2.3-2.3,2.88-3.29,1.94-6.86,3.41-10.07,5.46-2.57,1.64-3.41,3.85.13,5.59,7.87,3.87,21.22.84,26.87-5.98,1.59-1.91,3.21-3.89,5.18-5.35,1.3-.96,3.25-1.05,4.9-1.54-.36,1.61-.26,3.56-1.15,4.78-3.05,4.15-6.81,7.82-9.58,12.14-1.42,2.22-2.59,5.98-1.66,8.03,1.65,3.61,5.98,3.07,8.85,1.46,5.9-3.31,11.47-7.23,17.02-11.12,2.02-1.41,3.46-3.63,5.42-5.16,1.47-1.15,3.34-1.79,5.03-2.65,0,1.88.26,3.81-.09,5.62-.41,2.1-1.51,4.05-2.06,6.14-1.2,4.55,1.5,7.64,5.91,6.13,3.12-1.07,6.74-3.03,8.37-5.68,5.63-9.19,10.83-18.7,15.4-28.46,1.23-2.63.67-7.12-.81-9.81-4.67-8.51-3.68-16.31,1.38-23.98,1.64-2.49,3.91-4.55,5.62-7,.44-.63.03-2.82-.29-2.89-9.74-2.08-15.27-9.53-21.25-16.41-3.25-3.74-3.86-8.19-2.6-12.67.72-2.54,2.7-4.73,4.11-7.08,1.72,1.87,4.03,3.47,5.06,5.66,2.85,6.08,6.94,10.77,12.51,14.55,5.34,3.63,10.61,7.54,15.22,12.04,6.79,6.62,12.93,13.9,19.42,20.83,3.88,4.15,8.32,6.68,14.4,6.87,3.78.12,7.61,2.03,11.19,3.64,2.53,1.14,5.19,3.02,6.86-.06.63-1.17-1.12-4.48-2.66-5.82-5.64-4.92-12.01-9.03-17.4-14.18-5.39-5.14-10-11.12-14.8-16.86-.67-.81-.46-2.35-.66-3.56,1.1.08,2.25-.01,3.29.27,5.62,1.53,11.29,2.92,16.79,4.8,7.53,2.57,15.2,5.01,22.28,8.56,3.57,1.79,6.54,5.55,8.77,9.06,2.8,4.41,3.11,4.8,7.51,1.99,3.86-2.46,4.97-5.25,1.85-8.98-1.81-2.16-3.4-4.68-5.63-6.28-15.01-10.73-30.79-19.77-49.67-21.9-3.15-.36-6.13-2.14-9.21-3.19-1.55-.53-3.15-1.05-4.77-1.25-7-.87-11.93-4.95-15.62-10.5-.74-1.12.14-3.81,1.01-5.35.63-1.1,2.51-1.47,3.82-2.21,5.43-3.05,5.91-6.91,1.25-11.02-1.36-1.2-3.03-2.04-4.52-3.1-1.4-.99-2.75-2.06-4.12-3.09,1.79-.12,3.59-.34,5.37-.3.96.02,2.06.28,2.84.81,8.91,6.02,15.78,13.54,18.59,24.34.57,2.17,2.45,5.04,4.34,5.64,6.79,2.15,13.79,3.74,20.81,4.99,3.28.59,8.05,1.09,8.88-3.07.43-2.16-2.52-6.16-4.95-7.49-5.59-3.07-11.83-4.95-17.74-7.46-1.17-.5-2.05-1.67-3.06-2.53,1.19-.29,2.55-1.1,3.56-.79,6.27,1.97,12.42,4.37,18.71,6.26,3.72,1.11,7.65,2.11,11.46,2.05,1.9-.03,4.5-2.2,5.35-4.06.44-.97-1.84-4.06-3.54-4.99-8.8-4.8-18.33-6.83-28.36-6.3ZM116.94,858.57c.29-10.32.22-18.66,6.82-23.35,7.85-5.57,12.19-13.13,15.82-21.32,10.67-24.09,22.49-47.52,37.18-69.46,10.08-15.06,19.76-30.39,29.73-45.53,1.82-2.76,3.99-5.34,6.29-7.71.91-.94,2.61-1.1,3.95-1.62.36,1.2.92,2.38,1.06,3.6.76,6.57,3.1,8.99,8.94,9.07,7.62.1,10.65-2.43,12.02-8.94.58-2.74,1.84-6.71,3.84-7.53,7.47-3.03,15.35-5.02,23.13-7.25.72-.21,2.14.47,2.51,1.13.29.52-.34,1.89-.95,2.48-1.66,1.63-3.59,2.97-5.28,4.57-.88.83-1.47,1.95-2.19,2.94,1.1.2,2.19.49,3.3.59,12.36,1.13,23.09-3.81,33.77-9.04,5.97-2.92,12.05-5.61,18.14-8.26,3.4-1.48,5.01-.45,4.64,3.53-.2,2.14.33,4.36.53,6.54,2.5-.37,5.25-.2,7.42-1.25,3.1-1.5,5.84-3.8,8.62-5.92,4.1-3.13,8-6.54,12.19-9.53,1.47-1.05,3.55-1.23,5.35-1.81.01,1.72-.15,3.46.09,5.14.25,1.82.88,3.6,1.34,5.39,1.88-.68,4.47-.79,5.53-2.12,7.08-8.86,11.94-18.83,12.75-30.33.41-5.8-1.06-7.63-6.82-7.02-8.55.9-17.17,2.18-25.44,4.44-11.68,3.19-21.57,1.23-30.47-7.01-5.45-5.05-12.13-7.95-19.62-7.16-8.05.85-16.16,2.01-23.99,3.99-22.4,5.67-44.65,11.92-67.01,17.73-6.38,1.66-10.06,5.5-12.78,11.37-4.11,8.89-8.28,17.9-13.69,26.02-24.58,36.89-47.44,74.79-68.05,114.04-4.23,8.06-8.85,16.15-11.41,24.78-2.42,8.16-2.57,17.04-3.38,25.64-.99,10.62-1.55,21.25-7.07,30.85-2.46,4.27-2.8,9.07-.66,13.46,1.2,2.45,3.55,5.56,5.8,5.94,2.2.38,5.19-2.01,7.33-3.79,1.57-1.31,2.16-3.72,3.48-5.41.74-.94,2.14-2.04,3.12-1.92.86.1,2.04,1.71,2.19,2.77.35,2.59.29,5.25.21,7.88-.15,5.11-1.02,10.28-.45,15.3.53,4.69,4.08,5.37,7.43,1.94.92-.95,1.76-2.03,2.4-3.18,7.18-12.88,9.94-26.3,5.41-40.82-1.67-5.35-2.47-10.96-3.1-13.86ZM866.65,108.99c-5.14.26-10.29.34-15.41.84-6.62.65-8.35,2.81-9.26,9.39-.18,1.32-2.09,2.7-3.51,3.44-1.05.55-2.67-.15-3.93.16-1.52.38-3.78.93-4.17,1.98-.52,1.39-.12,3.98.92,4.92,2.91,2.64,6.14,5.14,9.64,6.89,5.05,2.53,8.24.88,10.03-4.41.58-1.73.78-3.68,1.73-5.17.9-1.42,2.55-2.38,3.87-3.54.79,1.5,1.74,2.95,2.33,4.52.46,1.22.17,2.75.73,3.88,1.36,2.72,3.02,5.29,4.57,7.92,1.91-1.69,3.71-3.52,5.76-5.01,1.9-1.39,4.07-2.41,6.12-3.59.9,1.96,1.73,3.97,2.74,5.87.96,1.81,1.78,4.51,3.27,5.01,1.78.59,4.28-.55,6.33-1.31.99-.37,1.64-1.6,2.48-2.41,3.15-3.04,5.63-2.46,6.73,1.81.7,2.73.63,5.65,1.34,8.37,1.17,4.5,4.95,5.49,8.26,2.47,1.13-1.03,2.55-1.75,3.84-2.6.64,1.61,1.63,3.17,1.85,4.83.76,5.81,1.43,6.65,7.21,6.18,3.93-.32,6.6.31,6.77,4.97.04,1.02.75,2.57,1.57,2.93,6.56,2.85,13.23,5.47,19.86,8.16.14.06.34.05.5,0,4.69-1.23,6.82,1.22,7.73,5.39.91,4.16,3.14,6.07,7.55,4.73,3.67-1.12,5.55-.02,5.76,4.22.28,5.65,2.32,6.6,7.33,4.02,3.63-1.87,5.7-.96,6.42,2.98.27,1.45.45,3.1.05,4.47-2.67,9.07,1.19,16.11,6.5,22.97,18.94,24.5,37.64,49.19,56.63,73.66,12.26,15.8,26.89,29.05,44,39.53,5.82,3.56,11.25,7.78,17.16,11.18,7.3,4.21,14.67,8.5,22.46,11.63,7.52,3.02,15.54,4.92,23.46,6.76,10.59,2.47,21.23,3.85,32.03.39,3.56-1.14,7.56-1.05,11.38-1.19,5.64-.21,10.42-2.06,13.99-6.53,1-1.26,1.8-2.68,2.68-4.03-1.55.1-3.19-.09-4.65.33-13.59,3.96-27.25,3.45-41.04,1.14-39.37-6.59-64.49-33.23-87.76-62.36-3.48-4.35-5.56-9.78-8.63-14.49-6.09-9.33-12.56-18.43-18.64-27.77-9.07-13.94-16.47-29.29-27.26-41.71-15.8-18.16-33.45-34.83-51.27-51.08-20.31-18.52-45.6-29.14-70.04-40.95-11.99-5.79-24.47-9.61-37.97-9.82ZM94.35,189.61c-6.33.28-10.95,1.75-13.21,6.26-2.06,4.12,1.26,7.55,3.93,10.01,6.44,5.93,13.34,11.38,20.14,16.9,4.75,3.85,10.22,6.98,14.35,11.39,4.8,5.12,3.04,9.84-3.47,12.34-3.55,1.36-9.49,1.29-8.84,6.15.41,3.06,4.86,6.49,8.28,8.09,25.6,11.97,49.71,26.19,71.72,44.06,9.41,7.64,19.78,14.11,29.94,20.78,1.53,1,5.01,1.03,6.19-.04,1.12-1.01.91-4.21.33-6.17-.69-2.32-2.71-4.22-3.55-6.52-.52-1.44.08-3.28.17-4.95,1.38.6,3.31.81,4.05,1.86,4.2,5.98,8.18,12.11,12.08,18.3.63,1,1.15,3.05.61,3.67-4.44,5.15.7,4.6,3.15,5.32,8.52,2.51,17.11,4.82,25.62,7.36.83.25,1.86,1.6,1.88,2.46.2,9.24,6.96,12.68,13.99,15.54,1.75.71,4.29-.5,6.46-.83-.36-1.96-.28-4.16-1.16-5.85-4.36-8.41-9.18-16.58-13.43-25.04-4.02-7.99-8.77-15.25-15.98-20.77-5.81-4.46-11.31-9.32-17.13-13.77-19.14-14.64-38.43-29.07-57.5-43.79-7.64-5.9-14.87-12.33-22.23-18.58-18.58-15.81-38.54-29.63-59.85-41.48-2.41-1.34-5.12-2.12-6.53-2.69ZM538.16,1022.47c.13-.32.26-.64.39-.96,2.97-.29,5.94-.68,8.92-.86,16.11-.99,24.38-14.19,35.51-22.9,1.25-.98,2.01-3.23,2.1-4.94.22-4.09-.09-8.21-.19-12.32-.07-2.79-.92-5.84-.08-8.31,6.64-19.46,18.1-35.51,35.14-47.21,2.46-1.69,5.91-1.94,8.9-2.86-1.83,2.45-3.25,5.43-5.57,7.24-11.44,8.92-18.93,20.97-26.34,33.01-1.62,2.63-2.49,7.19-1.33,9.81,4.55,10.29,1.45,18.44-5.44,26.04-4.92,5.43-9.94,10.77-14.83,16.23-2.1,2.34-3.62,4.93-1.27,8.04,2.32,3.06,5.16,4.75,9.08,3.19,1.38-.55,2.73-1.25,4.01-2.01,9.98-5.91,17.69-13.86,23.15-24.22,8.39-15.89,17.13-31.6,25.92-47.27,8.07-14.38,20.63-24.22,34.25-32.89,1.54-.98,3.18-1.86,4.87-2.51.74-.28,1.74.13,2.63.23-.27.74-.33,1.72-.85,2.19-2.98,2.65-5.86,5.49-9.16,7.69-11.2,7.48-19.41,17.66-26.49,28.87-1.32,2.09-2.38,4.42-3.06,6.79-.35,1.22-.08,3.34.75,3.99.81.64,3.03.41,4.03-.29,3.39-2.39,6.78-4.89,9.69-7.81,12.54-12.61,26.08-23.7,42.55-31.01,4.77-2.12,8.97-5.69,13.06-9.04,1.41-1.16,2.5-3.81,2.22-5.53-.18-1.12-3.03-2.32-4.81-2.56-3.46-.46-4.94-1.9-5.96-5.41-.67-2.31-3.68-5.12-6.03-5.55-10.04-1.82-19.3,1.14-28.27,5.72-8.08,4.12-16.46,7.7-24.77,11.35-2.44,1.07-3.93-.09-3.62-2.83.35-3.14.83-6.26,1.36-9.37.57-3.37,2.46-4.39,6-4.3,4.39.12,8.94-.38,13.16-1.54,1.73-.48,2.8-3.37,4.17-5.17-2.2-.77-4.83-2.74-6.52-2.12-13.56,4.95-27.9,8.79-40.11,16.11-14.3,8.57-25.15,21.66-33.28,36.6-1.9,3.49-3.92,7.19-6.8,9.78-3.5,3.16-5.21,6.77-5.91,11.14-.58,3.61-1.12,7.23-1.54,10.87-1.39,12.07-6.21,22.18-17.05,28.42-10.86,6.26-22.04,10.21-34.37,3.18-2.75-1.57-6.32-2.09-9.57-2.32-4.28-.31-6.56,2.19-5.28,6.18,1.39,4.35,3.61,8.52,6.09,12.37.95,1.48,3.79,2.79,5.43,2.46,1.33-.26,2.57-2.96,3.12-4.8,1.02-3.36,2.63-4.77,6.2-3.56,5.23,1.76,10.53,3.32,15.8,4.96ZM885.33,24.33c-17.24-1.68-34.87,1.51-52.32,5.96-5.67,1.44-6.22,3.51-1.75,7.21,8.96,7.43,18.18,14.57,27.6,21.41,2.05,1.49,5.88,2.47,7.94,1.55,3.25-1.44,2.5-4.9.78-7.79-.34-.57-.12-1.48-.15-2.23.8.02,1.66-.14,2.38.1,1.09.36,2.1.99,3.13,1.54,2.88,1.55,5.75,3.12,8.62,4.68-.36-3.35-.75-6.7-1.05-10.06-.07-.74.2-1.52.31-2.28.69.38,1.5.63,2.04,1.16,3.31,3.28,6.44,6.76,9.86,9.91,4.11,3.78,7.29,3.25,10.08-1.56.8-1.38.93-3.15,1.54-4.66.41-1,1.21-2.69,1.71-2.65,1.13.1,2.4.88,3.19,1.77.85.95,1.17,2.36,1.79,3.53,1.67,3.16,2.73,7.8,7.24,7.03,4.45-.76,3.43-5.32,3.78-8.68.09-.85.71-1.64,1.09-2.45.78.55,1.82.94,2.3,1.69,1.16,1.81,1.61,4.4,3.17,5.56,3.19,2.38,6.81,5.29,10.48,5.66,4.22.43,3.86-4.43,4.68-7.55.13-.5,2.11-1.06,2.88-.74,3.46,1.44,6.72,4.36,10.18,4.57,5.44.33,9.16,2.24,11.94,6.7,2.39,3.84,5.75,4.75,10.29,4.27,3.17-.33,6.79.6,9.74,1.98,5.24,2.45,9.87,6.36,15.23,8.4,9.28,3.54,19.18,5.49,28.36,9.24,14.31,5.84,28.37,12.34,42.27,19.1,19.93,9.69,41.2,14.06,62.95,16.14,5.23.5,10.8-2.13,16.14-3.61.94-.26,1.48-1.97,2.2-3.01-1.18-.46-2.34-1.29-3.53-1.32-18.89-.54-36.31-6.48-52.78-15.13-25.2-13.22-49.66-27.93-75.31-40.18-22.31-10.65-45.51-19.68-68.89-27.75-22.25-7.68-45.88-7.14-70.1-7.51ZM839.03,1190.07c-.49-6.49-.93-13.62-1.67-20.71-.13-1.21-1.54-2.29-2.36-3.42-1.04,1.09-2.45,2-3.05,3.28-3.48,7.4-8.94,12.52-16.41,15.88-3.23,1.45-6.5,3.56-8.79,6.19-10.7,12.31-21.04,24.94-31.55,37.42-18.77,22.29-37.36,44.73-56.45,66.74-8.61,9.92-18.44,18.54-33.12,17.58-1.27-.08-2.61.48-3.87.9-6.19,2.07-7.77,6.45-3.5,11.39,3.55,4.1,3.33,7.82.39,11.66-7.08,9.24-14.32,18.35-21.54,27.48-1.85,2.35-4.14,4.39-5.75,6.88-2.68,4.13-1.19,7.29,3.57,6.74,6.36-.73,12.83-1.98,18.81-4.2,10.5-3.9,13.22-10.18,10.22-20.88-2.26-8.06-1.51-12.71,5.54-16.85,11.71-6.87,24.03-12.72,36.25-18.68,3.35-1.64,6.72-1.16,10.16,1.51,6.02,4.69,11.85,2.25,15.28-4.56,3.63-7.21,7.93-14.15,12.52-20.81,6.88-9.98,14.41-19.51,21.41-29.41,4.08-5.77,8.12-11.37,14.95-14.22,4.38-1.83,5.74-5.65,6.18-10.05.35-3.46.82-6.94,1.61-10.31.23-.97,1.8-2.29,2.71-2.25.93.03,2.05,1.4,2.62,2.44.52.95.17,2.35.61,3.38.86,2.01,2.01,3.9,3.03,5.83,1.39-1.64,2.98-3.17,4.11-4.97.77-1.22,1.05-2.81,1.28-4.28,1.48-9.34,2.74-18.73,4.44-28.03.42-2.27,2.23-4.28,3.4-6.42.89,2.26,2.44,4.5,2.54,6.8.22,5.3-.45,10.64-.37,15.96.03,1.95,1.16,3.88,1.79,5.82.92-1.76,2.47-3.45,2.66-5.28.96-9.26,1.57-18.56,2.35-28.53ZM371.51,988.78c2.91.38,6.32.39,9.45,1.32,16.89,5.01,20.27,10.28,17.06,25.67-.75,3.61.57,6.21,4.01,7.6,2.16.87,4.33,1.76,6.56,2.38,4.31,1.19,5.52-.05,4.54-4.52-.6-2.75-1.58-5.43-1.95-8.2-.3-2.24.9-3.19,3.01-1.77,1.09.74,2.12,1.64,2.99,2.63,3.16,3.61,6.63,4.74,11.01,2.03,3.08-1.91,5.57-.34,8.14,1.58,3.17,2.36,6.64,4.31,10,6.42,3.85,2.42,7.83,4.65,11.5,7.31,2.12,1.54,3.57,3.97,5.61,5.64,1.01.82,2.99,1.48,3.96,1.02.96-.46,1.7-2.43,1.68-3.73-.06-3.81-.69-7.61-.76-11.42-.03-1.38.9-2.79,1.4-4.18,1.11,1.12,2.28,2.19,3.28,3.4.39.47.27,1.32.58,1.89,3.08,5.62,5.89,11.44,9.5,16.71,1.14,1.66,4.45,1.81,6.77,2.66.14-2.28.93-4.76.31-6.8-2.27-7.47-5.09-14.77-7.5-22.2-.39-1.21.23-2.75.38-4.14,1.14.76,2.71,1.27,3.36,2.34,6.37,10.39,11.96,21.1,14.26,33.29.36,1.9,2.16,4.63,3.72,4.95,2.48.52,5.8.03,7.81-1.39,1-.7.03-4.44-.36-6.75-.18-1.08-1.19-1.99-1.66-3.05-4.28-9.5-9.21-18.78-12.57-28.6-2.53-7.37-6.28-12.1-13.92-13.9-16.66-3.93-33.18-8.51-49.92-12.04-23.6-4.98-47.59-8.54-68.39-22.07-6.73-4.38-13.26-2.71-19.99-.15-3.58,1.36-4.43,3.53-2.19,6.45,3.33,4.35,7.02,8.44,10.48,12.69,4.52,5.55,9.92,8.9,17.83,6.94ZM1035.46,923.43c-.23.09-.46.17-.68.26,1.98,9.56,3.61,19.21,6.09,28.63,1.21,4.61,4.19,6.89,7.72,1.34,2.21-3.47,4.85-3.24,6.97.2,1.65,2.68,3.06,5.52,4.5,8.33,4.67,9.15,10.39,17.5,19,23.36,1.55,1.06,5.7,1.37,5.99.77,2.76-5.83,6.91-3.36,9.92-1.37,8.71,5.75,16.91,12.26,25.56,18.1,2.48,1.67,7.45,3.72,8.45,2.73,3.05-3.02-.33-6.14-2.44-8.39-5.62-6.01-7.13-15.22-15.15-19.3-.13-.07-.29-.25-.3-.39-.14-1.36-.25-2.72-.37-4.08,1.25-.04,2.83-.57,3.71-.01,2.8,1.77,5.39,3.89,7.97,5.98,4.53,3.66,8.84,7.6,13.54,11.02,3.71,2.7,6.07,1.75,6.38-2.83.3-4.38-.09-8.99-1.18-13.24-2.93-11.36-9.34-16.2-20.94-15.71-8.12.34-16.21,1.57-24.32,2.3-10.69.96-22.68-5.72-27.73-14.98-.94-1.73-2.92-3.18-4.75-4.08-3.95-1.94-7.74-.7-11.4,1.31-.89.49-2.15.29-3.25.41-.09-1.1-.36-2.23-.21-3.29.14-.95.68-1.87,1.14-2.75,5.02-9.39,1.59-17.43-4.27-24.85-3.08-3.89-7.08-3.06-8.59,1.73-.88,2.8-.93,5.86-1.35,8.8ZM749.57,1017.15c-.82-3.01-1.43-6.11-2.5-9.05-2.37-6.48-4.29-7.66-10.37-4.53-11.06,5.69-22.08,11.57-32.48,18.36-7.3,4.76-13.63,11.06-20.18,16.91-1.14,1.02-1.24,3.21-1.82,4.86,1.78.55,3.68,1.8,5.32,1.52,7.02-1.2,13.93-3.1,20.96-4.26,6.44-1.06,11.32-4.25,15.59-8.99,1.84-2.04,3.15-6.44,7.32-3.77,3.87,2.47,1.6,5.43.06,8.19-.24.43-.57.92-.55,1.37.07,1.42-.23,3.44.56,4.1,1.04.88,3.16,1.27,4.5.85,4.32-1.36,7.46-4,8.56-8.81.84-3.68,2.36-7.2,3.5-10.81.59-1.88.99-3.82,1.53-5.94ZM323.16,520.91c1.14-.42,3.09-.7,4.51-1.72,4.98-3.57,9.96-7.2,14.62-11.17,7.86-6.71,15.57-13.4,25.6-16.97,3-1.07,6.06-3.86,7.62-6.68,3.02-5.49,5.14-11.5,7.31-17.41.56-1.52.54-4.45-.31-5-1.35-.86-3.92-.87-5.48-.15-8,3.66-15.84,7.66-23.72,11.59-.71.36-1.32,1.02-1.85,1.64-5.55,6.56-11.06,13.14-16.6,19.7-5.36,6.35-10.97,12.5-16.01,19.09-2.74,3.58-.61,7.13,4.3,7.08ZM754.85,814.07c-.82-3.57-1.04-6.64-2.24-9.27-2.41-5.3-6.64-6.09-10.51-1.87-2.76,3-5.69,6.38-6.94,10.13-3.88,11.62-7.01,23.5-10.39,35.29-.22.78-.48,1.81-.16,2.44,4.14,8.1,8.06,16.34,12.73,24.13,1.95,3.24,4.95,2.27,5.82-1.7.71-3.21,1.09-6.59.95-9.86-.49-11.33,1.55-22.05,6-32.52,2.3-5.42,3.26-11.4,4.73-16.77ZM735.58,932.46c-2.04-2.54-3.64-5.69-6.2-7.48-4-2.78-8.62-2.59-13.37-.95-10.66,3.68-20.1,9.46-29.02,16.16-9.81,7.35-19.65,14.68-29.08,22.5-2.32,1.92-4.92,7.74-4.3,8.28,3.63,3.21,6.7-.47,9.38-2.52,13.59-10.35,28.8-17.1,45.22-21.45,6.9-1.83,13.75-3.85,20.59-5.9,3.78-1.13,5.81-3.72,6.78-8.65ZM559.62,934.41c-.16,5.63,1.88,7.19,5.34,5.19,4-2.31,7.76-5.16,11.22-8.24,14.48-12.87,29.27-25.23,47.19-33.22,2.39-1.07,5.1-2.45,6.48-4.48,1.34-1.97,1.93-5.13,1.46-7.5-.64-3.26-3.78-2.71-6.21-1.95-10.59,3.3-21.08,6.94-31.73,10-4.57,1.32-8.63,1.92-8.66,8.24-.01,2.43-2.54,4.91-4.09,7.26-1.19,1.8-3.11,3.24-3.88,5.17-2.4,6.03-6.69,9.92-12.16,13.22-2.54,1.53-3.95,4.93-4.97,6.3ZM626.26,272.48c-15.88-.35-27.92,6.8-37.57,18.65-1.66,2.03-2.65,4.61-3.95,6.93,2.72.3,5.43.79,8.16.86,2.19.06,5.94-2.35,3.51,3.1-.45,1.01.45,2.91,1.19,4.1,2.68,4.28,11.23,7.29,16.05,5.84,3.29-.99,3.89-3.3,1.55-6.01-3.62-4.2-3.38-4.77,2.34-5.97,3.56-.74,7.2-1.29,10.58-2.53,1.39-.51,3.14-2.67,3.05-3.96-.11-1.59-1.67-3.54-3.15-4.45-1.91-1.18-4.38-1.43-6.58-2.19-.87-.3-1.63-.89-2.44-1.35.59-.75,1.05-1.93,1.81-2.17,3.76-1.19,7.64-1.99,11.37-3.24,1.39-.46,2.51-1.77,3.75-2.69-.96-1.22-1.68-3.01-2.94-3.55-2.06-.89-4.47-.97-6.74-1.4ZM869.54,1190.97c-.47-4.29-.88-8.25-1.33-12.21-2.29-19.74-9.25-37.64-20.92-53.74-2.06-2.85-4.43-3.9-7.68-2.2-2.21,1.16-4.47,2.22-6.59,3.51-1.67,1.01-2.7,2.59-.05,3.48,4.99,1.68,6.37,5.99,7.95,10.17,2.94,7.77,5.86,15.54,8.61,23.38,3.52,10.02,6.87,20.09,10.27,30.15.69,2.04,1.02,4.25,1.99,6.14.65,1.28,2.24,3.05,3.22,2.94,1.25-.14,2.95-1.78,3.32-3.09.8-2.83.87-5.86,1.21-8.54ZM548.49,956.25l.52.03c0,8.49-.14,16.98.09,25.47.06,2.31,1.23,4.6,1.89,6.9,2.01-1.8,4.03-3.59,6.03-5.4.11-.1.14-.3.2-.45,4.29-11.39,5.86-23.28,1.44-34.61-2.44-6.25-1.89-11.1.67-16.51,1.35-2.86,2.68-5.72,4.04-8.58,3.29-6.91,6.66-13.78,9.84-20.73.48-1.04.11-2.47.13-3.71-1.07-.02-2.44-.48-3.16.01-9.26,6.24-17.86,13.29-19.29,25.26-1.28,10.72-1.64,21.54-2.4,32.32ZM739.25,993.36c-.12-6.64-4.06-9.96-10.46-8.93-1.79.29-3.63.64-5.3,1.32-13.13,5.28-24.56,13.26-34.76,22.91-1.78,1.68-3.13,5.63-2.4,7.73,1.2,3.45,5.01,3.09,8.23,2.07,1.58-.5,3.21-.92,4.71-1.6,11.2-5.08,22.38-10.18,33.54-15.34,3.57-1.65,6.93-3.58,6.44-8.17ZM315.37,486.28c3.83.23,6.5.09,5.75-3.72-1.51-7.63-3.01-15.28-5.03-22.78-.46-1.7-2.81-3.62-4.62-4.08-6.23-1.56-12.66-2.28-18.9-3.77-3.35-.8-6.39-2.88-9.73-3.67-1.81-.42-4.09.42-5.91,1.24-.56.25-.85,2.6-.36,3.49,2.87,5.2,5.77,10.42,9.17,15.27,1.07,1.52,3.64,2.14,5.65,2.81,1.71.57,3.77.26,5.35,1.01,1.85.88,4.02,2.15,4.89,3.85,3.17,6.21,8.45,9.02,13.75,10.34ZM663.33,296.15c.12-.35.25-.69.37-1.04,2.64-.3,5.38-.27,7.92-.96,8.48-2.31,16.92-4.77,25.29-7.43,1.31-.42,2.21-2.14,3.3-3.26-1.26-.66-2.45-1.68-3.78-1.89-3.11-.49-6.29-.46-9.41-.86-10.84-1.37-21.68-2.84-32.52-4.24-2.62-.34-5.61-1.44-7.8-.58-2.95,1.16-6.35,3.37-7.62,6.04-1.63,3.43,1.42,6.58,4.57,7.81,6.42,2.5,13.11,4.31,19.68,6.41ZM339.94,533.69l.35.89c4.48-1.19,11.17-.97,13.02-3.85,5.33-8.28,8.82-17.76,12.72-26.91.56-1.3-.12-4.06-1.19-4.86-1-.74-3.4-.08-4.95.54-1.66.66-3.15,1.88-4.54,3.04-9.96,8.33-19.87,16.71-29.8,25.08-2.58,2.18-1.85,3.88,1.06,4.42,4.4.81,8.89,1.13,13.35,1.65ZM815.83,70.76c-.09.04,1.58-.25,1.74-.9.24-1.02-.17-2.77-.95-3.36-2.49-1.9-5.1-3.81-7.97-5-7.48-3.1-12.71-7.93-15.44-15.81-2.34-6.75-10.13-9.18-16.46-5.82-2.54,1.35-3.03,3.03-.56,4.93,4.71,3.62,4.72,3.59-.39,7.13-.82.57-1.65,1.13-2.41,1.77-4.63,3.83-4.24,6.72,1.24,9.1,1.06.46,2.16.92,3.3,1.13,12.24,2.24,24.49,4.43,37.92,6.84ZM295.83,385.49c.86-.53,3.41-1.28,3.67-2.5.3-1.44-.95-4.13-2.29-4.84-6.99-3.67-14.18-6.98-21.39-10.21-4.17-1.86-8.58-3.18-12.76-5.01-2.72-1.19-5.14-3.06-7.85-4.29-6.12-2.79-10.61-2.35-12.09.92-1.66,3.66.19,7.4,6.68,9.98,13.69,5.45,27.63,10.26,41.49,15.28,1.07.39,2.29.35,4.54.67ZM334.9,1006.62c8.28-.11,13.74-.31,17.96-4.79,2.86-3.03,4.6-6.12,2.14-10.22-3.02-5.05-8.56-8.35-12.61-6.94-6.71,2.33-13.39,4.82-19.88,7.69-1.87.83-4.28,3.27-4.21,4.89.07,1.95,2.13,4.74,4.01,5.52,4.83,2.01,10.04,3.11,12.59,3.85ZM307.56,965.18c0,.08-.01.16-.02.25-4.82,0-9.64-.05-14.46.04-.88.02-1.75.59-2.62.91.67.42,1.41.77,2,1.27,2.74,2.34,6.39,4.21,7.98,7.18,6.62,12.36,19.85,10.61,28.8,6.73,3.46-1.5,5.54-4.3,4.91-8.35-.63-4.07-3.45-5.99-7.24-6.39-6.43-.68-12.89-1.1-19.34-1.64ZM333.92,552.7c-.01-.09-.02-.17-.03-.26-7.44.79-14.89,1.44-22.3,2.47-1.72.24-3.26,1.78-4.88,2.72,1.09,1.58,1.83,3.95,3.32,4.59,6.04,2.61,12.15,5.43,18.52,6.75,6.67,1.39,12.86-1.24,17.56-6.35,3.93-4.27,2.44-8.84-3.27-9.85-2.89-.51-5.95-.09-8.93-.09ZM734.61,289.62c1.64-.2,2.47-.25,3.29-.4,11.4-2.06,30.86-20.41,33.14-31.62.44-2.18-.55-4.65-.88-6.99-1.99.95-4.44,1.46-5.91,2.94-6.21,6.25-11.93,12.98-18.23,19.14-3.52,3.44-8,5.88-11.64,9.22-1.46,1.35-2.06,3.84-2.51,5.93-.1.45,2.11,1.4,2.73,1.79ZM298.95,406.93c1.23-.78,3.26-2.07,5.29-3.36-1.41-2-2.52-4.35-4.32-5.89-1.69-1.45-4.07-2.18-6.23-3-8.37-3.17-16.72-6.39-25.18-9.28-2.58-.88-5.51-.76-8.27-1.1,1.37,2.97,2.74,5.93,4.12,8.89.06.14.24.23.37.33,9.73,7.43,20.84,11.39,34.23,13.4ZM578.55,1051.72c-1.63-3.9-2.32-6.93-4-9.24-2.27-3.12-6.27-2.45-7.57.84-1.95,4.92-3.63,5.25-6.96,1.11-1.33-1.66-2.11-3.76-3.32-5.54-1.58-2.32-3.05-4.85-5.13-6.63-1.25-1.07-3.8-1.57-5.33-1.04-.91.32-1.67,3.28-1.3,4.76,2.52,10.07,7.82,18.35,17.03,23.52,1.24.69,3.7-.42,5.44-1.1,2.15-.85,4.17-2.05,6.16-3.24,1.63-.98,3.14-2.16,4.97-3.44ZM1091.03,1023.07c7.24-.12,10.19-5.19,6.52-11.32-1.88-3.14-3.64-6.44-6.05-9.13-1.49-1.67-4.31-3.54-6.16-3.22-4.16.72-8.32,2.37-12.01,4.47-1.36.77-2.35,4.11-1.88,5.83,1.28,4.73,14.7,13.45,19.58,13.37ZM71.78,223.7c.17-.39.33-.78.5-1.16,1.32-.1,2.88.21,3.9-.4,1.83-1.09,4.3-2.51,4.69-4.2.39-1.72-.99-5.3-2.33-5.72-10.2-3.19-20.51-6.13-30.94-8.43-3.4-.75-5.16,3.01-3.03,6.21,1.42,2.13,3.43,4.35,5.7,5.34,7.04,3.09,14.33,5.61,21.52,8.36ZM840.46,63.39c-1.16-1.45-2.55-4.27-4.81-5.78-8.69-5.82-17.6-11.33-26.57-16.73-3.34-2.01-5.34-.66-5.56,3.24-.26,4.54,3.99,10.12,8.65,12.46,4.39,2.2,8.43,5.1,12.66,7.63,3.1,1.86,6.1,4.11,9.45,5.28,3.55,1.23,5.58-1,6.18-6.1ZM821.81,1107.99c.56,5.79,3.36,8.62,6.04,5.82,7.63-8,14.68-16.57,21.72-25.11.61-.74-.03-3.45-.95-4.26-.93-.82-3.02-.78-4.46-.47-3.63.77-7.14,2.23-10.8,2.8-3.55.56-5.91,1.32-5.66,5.73.11,1.93-1.41,3.94-2.18,5.92-1.24,3.19-2.48,6.38-3.72,9.57ZM630.75,1361.32c.08,6.15,3.22,7.96,6.73,5.07,5.47-4.52,10.64-9.51,15.34-14.82,3.71-4.19,6.68-9.06,9.61-13.86.76-1.24.11-3.33.11-5.03-1.57.01-3.49-.55-4.63.15-3.34,2.06-6.64,4.35-9.45,7.07-4.52,4.37-8.81,9.01-12.85,13.82-2.26,2.69-3.82,5.96-4.85,7.62ZM1026.54,941.47c-.85-7.25-1.58-14.5-2.58-21.72-.88-6.4-1.66-12.86-3.34-19.06-.55-2.02-3.81-3.31-5.83-4.93-.82,2.05-2.45,4.16-2.31,6.15.41,5.6,1.38,11.18,2.45,16.71,1.78,9.26,3.69,18.51,5.86,27.68.33,1.41,2.32,2.42,3.54,3.61.73-1.48,1.69-2.9,2.13-4.47.35-1.23.07-2.63.07-3.97ZM320.42,432.24c1.66,0,3.32.06,4.97-.03.59-.03,1.16-.41,1.73-.62-.29-.55-.45-1.24-.88-1.63-11.28-9.97-24.52-14.97-39.51-15.17-1.56-.02-3.15,1.79-4.73,2.74.99,1.4,1.67,3.37,3.02,4.13,10.99,6.15,22.79,9.8,35.39,10.58ZM988.17,876.82l2.07-1.61c-1.59-2.92-2.85-6.1-4.93-8.61-.81-.97-3.95-1.2-5.19-.42-5.2,3.25-6.29,13.71-1.85,18.08,5.28,5.2,11.69,9.44,11.94,18.04.03,1,2.22,1.93,3.41,2.89.35-1.48.84-2.95,1.01-4.45.48-4.36.47-8.82,1.35-13.09.66-3.21.19-4.79-3-6.12-1.92-.8-3.23-3.08-4.81-4.69ZM72.89,190.41c2.41-1.5,4.07-2.53,5.73-3.56-1.09-1.51-1.88-3.48-3.33-4.45-4.94-3.3-9.99-6.5-15.25-9.25-4.66-2.43-9.59-4.39-14.55-6.14-.91-.32-3.72,1.67-3.62,2.06.74,2.81,1.25,6.87,3.24,7.96,8.94,4.9,18.36,8.94,27.79,13.38ZM843.84,228.52c7.34.11,10.18-2.95,7.95-7.1-2.88-5.36-18.24-12.3-24.12-10.53-1.84.56-4,2.2-4.64,3.87-.48,1.27.77,3.89,2.04,5.01,5.72,5.02,12.28,8.41,18.77,8.75ZM893.34,1178.72c.19,3.5-.33,6.73.68,9.38,1.13,2.97,3.14,6.11,5.67,7.92,2.89,2.08,9.61-.18,10.65-3.6.59-1.94-1.38-4.8-2.49-7.1-2.12-4.4-4.48-8.69-6.68-13.06-.59-1.17-.71-2.65-1.51-3.62-.84-1.03-2.18-2.1-3.39-2.22-.63-.06-1.93,1.81-2.11,2.93-.51,3.26-.61,6.58-.83,9.36ZM743.62,338.25c9.59.1,26.47-11.34,29.36-19.17.17-.46.34-.97.33-1.45-.02-1.42-.14-2.84-.22-4.26-1.4.16-3.14-.16-4.14.56-8.91,6.4-17.72,12.94-26.46,19.57-.9.68-1.9,2.74-1.54,3.26.67.98,2.3,1.32,2.66,1.49ZM535.42,299.85c-3.81.92-7.85,1.66-11.7,2.96-1.25.42-2.8,2.37-2.74,3.55.06,1.17,1.77,2.84,3.1,3.28,8.18,2.72,16.54,3.3,24.89.86,1.51-.44,3.85-2.36,3.71-3.25-.26-1.6-1.86-3.74-3.36-4.23-4.36-1.41-8.95-2.11-13.89-3.18ZM663.25,852.6c-.44-7.27-3.82-14.4-11.09-19.25-1.51-1.01-3.9-.7-5.89-.99.12,1.88-.24,3.97.46,5.6,2.21,5.18,5.09,10.08,7.13,15.31.93,2.37.54,5.27.65,7.94.04.87-.26,1.76-.4,2.63.97.08,1.97.36,2.89.2,3.91-.68,6.19-4.44,6.24-11.44ZM600.21,1059.4c-3.22-7.94-6.39-15.91-9.72-23.81-.4-.94-1.61-1.91-2.61-2.15-1.52-.37-3.59-.67-4.68.08-.81.56-.98,3.02-.52,4.31,2.33,6.55,4.79,13.07,7.58,19.45.88,2.01,2.61,3.98,4.46,5.15,2.41,1.52,4.54.89,5.5-3.02ZM279.89,428.92c-.09.23-.19.46-.28.69-.8.08-1.6.16-2.4.24.43.78.66,1.89,1.32,2.3,6.19,3.81,12.26,7.92,18.77,11.08,4.09,1.98,8.86,2.67,13.4,3.54,1.08.21,2.47-1.16,3.72-1.81-.79-1.09-1.33-2.66-2.4-3.2-5.02-2.51-10.1-4.94-15.31-7-5.51-2.18-11.21-3.92-16.82-5.85ZM780.27,1135.29c.83,4.22,1.54,8.47,2.57,12.63.27,1.09,1.4,2.3,2.43,2.71.54.21,2.23-1.01,2.54-1.89,1.92-5.43,3.93-10.87,5.12-16.48.31-1.45-1.79-4.33-3.47-5.13-6.08-2.9-8.87-.15-9.2,8.16ZM331.18,596.76c-2.86,1.06-6.09,1.66-8.47,3.41-1.12.82-1.56,4.54-.67,5.78,3.93,5.48,15.02,5.93,19.8,1.21,2.74-2.71,2.6-5.46-.9-7.18-2.9-1.43-6.18-2.07-9.76-3.21ZM482.29,755.55c.58,1.43,1.4,3.44,2.22,5.45,2.13-1.01,4.61-1.63,6.31-3.12,2.19-1.92,4.01-4.4,5.56-6.91,3.5-5.66,1.57-9.09-5.02-9.48-4.03-.24-6.75,1.13-7.49,5.39-.45,2.59-.94,5.18-1.58,8.67ZM878.52,1104.54c.83,3.21,1.17,6.48,2.52,9.26,2.37,4.89,4.98,9.77,8.27,14.06,1.31,1.72,5.52,3.28,6.95,2.44,3.49-2.05,1.12-5.37-.47-7.75-2.03-3.02-4.66-5.63-6.86-8.55-2.48-3.3-4.75-6.77-7.15-10.14-.6-.84-1.35-1.57-2.03-2.35-.4,1-.8,2-1.22,3.03ZM922.84,1099.91c-2.06,2.93-4.6,4.9-4.5,6.72.26,4.51,1.35,9.08,2.89,13.35.63,1.76,3.27,2.8,5,4.16,1.32-2.14,3.64-4.24,3.75-6.45.21-4.06-.49-8.29-1.59-12.23-.49-1.75-2.86-2.97-5.55-5.56ZM845.94,59.91c.87-.41,1.82-.86,2.76-1.3-.9-1.28-1.52-3.11-2.76-3.74-8.88-4.53-16.44-10.54-22.54-18.47-1.55-2.02-4.28-3.66-6.23-.91-.75,1.06.25,4.58,1.55,5.66,6.62,5.51,13.53,10.69,20.5,15.77,1.82,1.33,4.2,1.9,6.71,2.99ZM545.28,1056.41c2.97-.76,6.26-.91,4.06-4.35-4.37-6.81-9.12-13.38-13.94-19.88-.65-.88-2.58-.81-3.92-1.18-.28,1.32-1.19,2.95-.73,3.92,2.92,6.1,5.94,12.18,9.41,17.98,1.04,1.73,3.63,2.53,5.12,3.51ZM858.26,1105.91c.79,5.41,4.37,12.54,8.23,14.9,1.04.64,2.66,1.28,3.56.89.74-.32,1.33-2.29,1.1-3.34-1.04-4.81-1.97-9.72-3.83-14.23-.79-1.92-3.76-2.95-5.74-4.38-1.11,2.05-2.21,4.11-3.32,6.16ZM732.21,272.03c-.04-2.32-1.9-3.86-5.12-3.09-2.54.61-5.07,1.59-7.35,2.86-2.87,1.59-5.48,3.64-8.2,5.5,3.59,1.6,7.04,3.74,10.79,4.66,4.62,1.13,9.93-4.02,9.88-9.92ZM819.96,1150.48c-.8-3.24-1.51-7.13-2.81-10.81-.42-1.18-2.36-2.4-3.67-2.48-.83-.05-2.65,2.06-2.54,3.05.73,6.99,1.79,13.94,2.91,20.88.11.69,1.39,1.69,2.07,1.65.71-.04,1.77-1.07,1.96-1.84.79-3.19,1.31-6.45,2.08-10.46ZM761.6,204.3c-.5-2.56-.41-4.59-1.3-6.02-1.09-1.75-3-2.99-4.55-4.45-1.37,1.65-3.85,3.27-3.89,4.94-.1,4.83.3,9.8,1.45,14.49.79,3.2,3.89,3.3,5.34.27,1.47-3.05,2.11-6.51,2.94-9.22ZM636.7,1072.62c.29.62.68,2.94,2.01,3.81.93.61,3.59-.31,4.72-1.35,2.76-2.55,5.32-5.41,7.47-8.49.83-1.19,1.04-3.84.27-4.85-.86-1.11-3.22-1.63-4.84-1.48-5.25.48-9.22,5.27-9.62,12.36ZM873.8,1161.05c1.35,4.68,2.37,8.85,3.81,12.87.43,1.19,2.04,1.94,3.11,2.9,1.02-1.18,3-2.46,2.9-3.53-.45-4.68-1.19-9.39-2.51-13.9-.56-1.92-2.78-3.37-4.24-5.03-1.04,2.25-2.07,4.49-3.08,6.69ZM631.26,987.15c-.82-2.05-1.46-3.63-2.09-5.21-1.21,1.19-3.06,2.17-3.52,3.6-1.57,4.87-2.79,9.87-3.79,14.89-.22,1.09,1,2.46,1.56,3.7,1.16-.78,2.98-1.32,3.36-2.38,1.72-4.81,3.04-9.76,4.49-14.6ZM355.35,695.02c5.06-.02,14.33-7.09,15.2-10.92.26-1.16.07-2.7-.54-3.67-.32-.5-2.42-.6-3.02-.07-4.19,3.69-8.27,7.51-12.17,11.5-.47.48.35,2.23.53,3.16ZM534.7,1004.6c3.05-2.13,5.64-3.69,7.85-5.66.51-.46-.07-3.35-.44-3.41-2.94-.5-6.14-1.3-8.87-.55-2.04.56-3.48,3.28-5.19,5.03,2,1.38,4,2.76,6.64,4.59ZM753.29,927.58c1.15,1.44,2.06,3.5,3.57,4.11.9.37,3.2-1.24,4.02-2.51,1.31-2.04,2.55-4.52,2.61-6.85.05-1.9-1.66-3.85-2.59-5.78-1.48,1.02-3.43,1.74-4.32,3.14-1.39,2.17-2.06,4.81-3.28,7.88ZM701.48,301.12c4.18-2.19,7.68-3.92,11.06-5.87.67-.38.86-1.58,1.27-2.41-.87-.34-1.75-.98-2.6-.95-3.47.13-7.02.09-10.35.89-1.85.44-3.33,2.41-4.98,3.69,1.74,1.45,3.48,2.89,5.6,4.65ZM655.79,307.65c1.37-.75,2.95-1.62,4.54-2.49-1.28-1.47-2.29-3.59-3.9-4.25-2.67-1.11-5.72-1.57-8.64-1.73-1.33-.07-2.73,1.24-4.09,1.93.97,1.35,1.65,3.33,2.96,3.93,2.64,1.21,5.63,1.67,9.13,2.62ZM570.05,293.28c2.62-1.87,5.76-3.77,8.43-6.2.89-.81.55-2.97.77-4.51-1.69-.18-3.8-1.08-4.99-.38-2.66,1.55-4.95,3.79-7.19,5.95-.86.83-1.19,2.22-1.76,3.35,1.18.45,2.36.89,4.74,1.8ZM539.05,1071.13c1.18-.36,3.18-.95,5.18-1.55-1.4-1.5-2.71-3.11-4.24-4.47-.97-.86-2.19-1.55-3.42-1.97-3.19-1.11-5.39.67-6.05,3.37-.23.94,2.21,2.8,3.73,3.78,1.02.65,2.56.49,4.79.84ZM501.15,720.87c-.67-.49-1.64-1.64-2.83-1.96-3.49-.95-8.12,1.73-9.05,5.26-.32,1.22-.2,3.32.57,3.92,2.13,1.66,11.13-3.59,11.31-7.22ZM761.48,237.51c-.6-1.64-.91-2.49-1.22-3.34-.81.44-1.97.67-2.37,1.34-2.19,3.7-4.28,7.46-6.2,11.31-.42.85-.04,2.1-.03,3.17,1.14-.42,2.8-.5,3.33-1.32,2.39-3.7,4.46-7.61,6.49-11.16ZM676.98,897.6c2.24-2.31,3.7-3.8,5.15-5.3-1.77-1.4-3.53-3.87-5.32-3.9-1.9-.03-3.84,2.26-5.77,3.53,1.73,1.66,3.47,3.31,5.93,5.67ZM626.04,1076.62c-2.36-2-4.28-4.04-4.58-3.83-2.37,1.69-4.43,3.82-6.58,5.81,1.63,1.08,3.54,3.3,4.84,2.99,2-.48,3.59-2.69,6.32-4.98ZM1106.26,1010.11c2.47,2.32,4.46,4.18,6.44,6.05.81-.98,2.5-2.53,2.28-2.86-1.55-2.43-3.49-4.62-5.3-6.89-.87.94-1.74,1.88-3.42,3.7ZM708.88,869.91c2.4-1.79,3.73-2.78,5.07-3.77-2.14-1.53-4.19-3.22-6.5-4.43-.44-.23-2.85,1.98-2.73,2.19,1.03,1.9,2.42,3.61,4.16,6.01ZM864.79,1088.5c-.08-.61.09-2.1-.51-3.15-.68-1.2-2.05-2.01-3.11-2.99-.51,1.22-1.59,2.54-1.39,3.63.41,2.22,1.45,4.33,2.36,6.43.23.53.92.85,1.4,1.27.31-.51.78-.99.9-1.55.21-.96.21-1.96.35-3.65ZM660.42,263.65c-1.96,1.58-3.44,2.77-4.92,3.96,1.73.91,3.47,2.56,5.18,2.53,1.69-.03,3.35-1.74,5.03-2.72-1.57-1.12-3.14-2.24-5.28-3.77ZM616.15,1051.4c-.44-.94-.88-1.88-1.31-2.82-1.55-1.09-2.99-2.7-4.69-3.03-.84-.16-2.14,2.04-3.23,3.16,1.57,1.44,2.95,3.35,4.8,4.13,1.09.46,2.94-.9,4.44-1.44ZM1052.04,1004.03c-2.89-2.17-4.82-3.89-7.03-5.11-.58-.32-2.01.88-3.05,1.38,2.13,2.12,4.23,4.29,6.48,6.27.17.15,1.51-1.05,3.59-2.54ZM487.49,728.74c-1.32-1.92-1.97-2.87-2.62-3.81-1.71,1.78-3.52,3.49-4.99,5.44-.2.27,1.28,1.8,1.99,2.75,1.73-1.35,3.47-2.7,5.62-4.38ZM564.82,1081.71c1.77-1.67,2.91-2.75,4.05-3.83-1.34-1.01-2.68-2.81-4.04-2.82-1.32,0-2.66,1.8-3.99,2.82,1.12,1.08,2.24,2.16,3.98,3.83ZM311.65,607.2c-1.69,2.94-2.92,4.89-3.86,6.97-.11.24,1.38,1.21,2.13,1.83,1.48-1.82,3.04-3.59,4.33-5.54.16-.25-1.11-1.44-2.59-3.27ZM666.39,872.07c-2.31-1.11-3.98-2.47-4.58-2.1-1.48.9-2.47,2.61-3.65,3.99,1.02.78,2.41,2.42,3,2.17,1.62-.68,2.91-2.16,5.23-4.06ZM583.77,795.9c-1.53,2.61-3.17,4.19-2.89,5.25.34,1.25,2.23,2.46,3.68,2.85.57.15,2.54-2.01,2.46-3.01-.1-1.35-1.56-2.6-3.25-5.09ZM720.84,54.88c-1.64,1.61-3.07,2.62-3.81,4-.21.39,2.14,2.83,2.4,2.68,1.57-.87,2.86-2.22,4.25-3.41-.76-.88-1.53-1.77-2.84-3.28ZM581.06,1079.85c-1.87-1.17-3.09-2.52-4.06-2.37-1.02.16-1.81,1.77-2.7,2.75.99.9,1.94,2.45,2.98,2.51.98.05,2.04-1.47,3.78-2.89ZM506.91,723.5c-2.03,1.79-3.68,3.23-5.32,4.67.44.38,1.15,1.17,1.28,1.08,1.77-1.18,3.47-2.46,5.12-3.8.07-.06-.48-.88-1.08-1.95ZM170.42,229.45c-.73,1.91-1.65,3.14-1.34,3.72.59,1.12,1.88,1.87,2.88,2.77.52-.83,1.65-1.87,1.45-2.45-.42-1.22-1.55-2.19-2.99-4.04ZM357.35,537.14c-1.43-1.02-2.72-2.17-2.89-2.02-1.04.88-1.97,2-2.55,3.22-.13.27,1.63,1.96,1.9,1.82,1.12-.59,2-1.62,3.55-3.01ZM751.47,59.62c1.32-.7,2.4-1.27,3.47-1.84-1.09-.43-2.18-1.18-3.28-1.2-1.15-.02-2.31.67-3.47,1.06,1.03.62,2.07,1.25,3.28,1.98ZM265.77,417.85c-2.38-.44-3.6-.89-4.77-.79-.71.06-1.35.98-2.02,1.52,1.17.44,2.31,1.13,3.51,1.23.69.06,1.47-.83,3.28-1.95ZM738.2,59.58c1.05-.68,1.93-1.26,2.82-1.83-.83-.57-1.68-1.61-2.49-1.59-1.11.03-2.19.88-3.28,1.38.89.62,1.79,1.23,2.95,2.03ZM819.75,190.53c0-.31,0-.61,0-.92-.99-.28-1.99-.79-2.98-.78-.85.01-1.69.62-2.54.96.83.55,1.63,1.46,2.51,1.57.95.12,2-.52,3-.83Z"/>
  <path fill="#262425" d="M469.82,690.52c1.21-3.62,2.16-7.16,3.56-10.52,6.21-14.89,14.62-28.53,26.01-39.87,5.13-5.11,11.93-8.88,18.54-12.11,10.58-5.17,21.63-9.38,32.48-13.99.15-.07.29-.18.45-.21,2.03-.39,4.06-.78,6.1-1.16-1.18,1.83-1.94,4.38-3.62,5.37-6.68,3.94-13.67,7.37-20.52,11.04-8.89,4.77-18.1,9.05-26.52,14.53-8.2,5.33-14.18,12.92-17.46,22.45-2.53,7.34-5.38,14.59-8.43,21.73-.93,2.18-2.77,4.15-4.63,5.7-1.07.89-3.16,1.3-4.47.89-.8-.25-.99-2.46-1.48-3.85Z"/>
  <path fill="#262425" d="M852.11,814.19c-1.95,8.22-3.19,16.7-6,24.62-6.36,17.92-14.95,34.78-26.99,49.67-1.77,2.19-3.82,4.19-5.99,5.99-.83.69-3.04,1.12-3.43.66-.8-.94-1.46-2.89-.99-3.84,1.98-4,3.98-8.1,6.72-11.59,11.44-14.58,19.85-30.8,25.46-48.33,2.24-6.99,2.21-14.7,3.46-22.03.35-2.06,1.55-3.97,2.36-5.95,1.37,1.89,3.01,3.64,4.02,5.7.69,1.41.49,3.25.69,4.9.23.07.46.14.69.21Z"/>
  <path fill="#262425" d="M512.06,384.27c28.35-1.14,55.72,3.69,82.16,13.83,2.48.95,4.48,3.16,6.71,4.78-2.69-.13-5.51.21-8.06-.46-9.49-2.5-18.72-6.48-28.34-7.81-27.5-3.8-55-8.39-82.98-6.05-4.61.38-9.3-.18-13.94-.42-.67-.03-1.31-.72-1.96-1.11.69-.34,1.35-.91,2.06-.98,6.12-.64,12.24-1.49,18.37-1.7,8.66-.29,17.33-.07,26-.07Z"/>
  <path fill="#262425" d="M643.62,394.56c-9.78-1.86-20.66-3.98-31.57-5.99-7.34-1.35-14.72-2.5-22.07-3.82-2.11-.38-4.38-.68-6.2-1.7-1.48-.83-2.38-2.67-3.54-4.06,1.6-.7,3.35-2.23,4.77-1.98,8.81,1.58,17.59,3.38,26.3,5.46,13.78,3.29,27.6,5.85,41.88,4.84,1.79-.13,3.67.18,5.4.68,1.09.31,1.97,1.35,2.94,2.06-.94.83-1.77,2.21-2.82,2.41-4.55.83-9.17,1.31-15.09,2.1Z"/>
  <path fill="#262425" d="M957.33,796.77c-.49,3.94-.7,7.95-1.58,11.81-.42,1.86-2.09,3.44-3.2,5.15-1.04-1.72-2.72-3.33-3-5.16-1.33-8.71-2.35-17.46-3.32-26.21-.51-4.62-.86-9.28-.94-13.93-.03-1.45,1.04-2.92,1.6-4.38,1.3,1.05,3.14,1.84,3.81,3.2,4.59,9.27,6.21,19.22,6.63,29.53Z"/>
  <path fill="#262425" d="M754.47,764.89c.51-2.83.98-5.95,1.68-9.02.18-.79,1.09-1.42,1.67-2.12.63.7,1.66,1.31,1.83,2.1.73,3.4.89,6.93,1.83,10.26,3.12,11.02,6.5,21.97,9.73,32.96,1.22,4.14,2.38,8.3,3.39,12.5.18.73-.53,1.68-.83,2.53-.61-.48-1.49-.83-1.79-1.46-7.34-15.24-15.95-30.02-17.52-47.76Z"/>
  <path fill="#262425" d="M523.39,483.52c-6-.6-12.48-1.01-18.86-2.01-1.86-.29-3.45-2.28-5.16-3.5,1.88-.98,3.74-2.73,5.65-2.79,3.6-.11,7.28.48,10.83,1.25,12.4,2.71,24.78,2.68,37.03-.4,4.46-1.12,8.59-3.49,12.94-5.08,1.69-.62,3.6-.66,5.41-.97-1.33,1.35-2.41,3.37-4.02,3.95-7.75,2.8-15.52,5.77-23.53,7.59-6.42,1.45-13.19,1.33-20.29,1.95Z"/>
  <path fill="#262425" d="M936.98,781.32c-.47.95-.69,2.2-1.36,2.52-.67.32-2.14.05-2.65-.51-1.66-1.82-3.48-3.69-4.44-5.9-4.25-9.76-8.25-19.63-12.26-29.49-.56-1.36-1.06-2.92-.94-4.33.11-1.3.82-2.84,1.78-3.66.42-.35,2.64.54,3.22,1.42,8.12,12.2,12.8,25.85,16.65,39.95Z"/>
  <path fill="#262425" d="M669.52,377.42c-15.53-2.51-30.48-4.76-45.34-7.49-2.46-.45-4.54-2.99-6.79-4.56,2.64-.19,5.37-.92,7.9-.47,15.04,2.65,30.03,5.54,45.02,8.48,1.42.28,2.66,1.5,3.99,2.29-1.71.63-3.41,1.26-4.77,1.76Z"/>
  <path fill="#262425" d="M596.23,751.65c1.37-3.8,2.53-7.68,4.14-11.37,2.73-6.22,5.56-12.41,8.76-18.4,1.14-2.14,3.46-3.65,5.24-5.44-.36,2.35-.37,4.82-1.13,7.03-3.64,10.66-7.42,21.27-11.31,31.85-.62,1.68-2.02,3.06-3.06,4.58-.56-1.8-1.19-3.59-1.65-5.42-.2-.78-.03-1.65-.03-2.48l-.97-.35Z"/>
  <path fill="#262425" d="M657.28,611.53c-.18-1.94-.89-3.65-.32-4.41,2.87-3.83,5.84-7.63,9.21-11.01,3.7-3.72,7.79-7.07,11.88-10.36,1.24-.99,3.06-1.26,4.61-1.86-.14,1.76.42,4.17-.53,5.16-6.62,6.91-13.52,13.55-20.4,20.2-.79.76-2.03,1.06-4.45,2.27Z"/>
  <path fill="#262425" d="M660.74,640.8c2.4-10.77,7.82-18.93,15.51-25.68.6-.53,1.81-.36,2.73-.52.14,1.24.8,2.72.34,3.67-2.95,6.13-6.08,12.18-9.29,18.18-1.09,2.04-2.46,3.98-3.98,5.73-.9,1.03-2.32,1.61-3.51,2.39-.66-1.37-1.32-2.74-1.81-3.76Z"/>
  <path fill="#262425" d="M863.57,1010.83c-.54,1.88-1.26,4.39-1.99,6.9-1.25-2.22-2.84-4.31-3.69-6.68-2.01-5.6-3.88-11.27-5.36-17.02-.57-2.22-2.26-5.69,1.6-6.68,3.7-.95,5.45,1.95,6.11,5.04,1.24,5.81,2.13,11.69,3.33,18.43Z"/>
  <path fill="#262425" d="M474.33,442.32c.83,0,1.7-.17,2.47.04,1.07.28,2.07.85,3.1,1.29-.93.74-1.78,1.95-2.81,2.14-10.55,1.94-21.12,3.76-31.71,5.47-1.12.18-2.39-.58-3.59-.9.98-.72,1.87-1.83,2.97-2.1,9.76-2.4,19.56-4.65,29.34-6.95.07.33.15.67.22,1Z"/>
  <path fill="#262425" d="M687.46,669.55c-.93,2.18-1.92,4.5-2.92,6.82-1.75-1.64-3.85-3.05-5.19-4.98-2.86-4.11-3.28-8.7-.87-13.2.63-1.18,2.14-2.59,3.27-2.6.97-.01,2.46,1.64,2.86,2.84,1.14,3.44,1.84,7.02,2.86,11.12Z"/>
  <path fill="#262425" d="M480.9,640.38c-.4.78-.62,1.43-1.02,1.93-4.75,5.95-9.49,11.9-14.36,17.75-.56.68-1.9.71-2.88,1.04,0-.95-.39-2.19.06-2.79,4.76-6.28,9.62-12.49,14.57-18.62.49-.61,1.77-.72,2.69-.77.29-.01.63.95.94,1.45Z"/>
  <path fill="#262425" d="M587.26,621.27c-1.75-.75-2.56-.94-2.55-1.12.02-.75.02-1.83.49-2.19,4.53-3.53,9.13-6.98,13.8-10.34.47-.34,1.5.05,2.25.21.07.01.14,1.07-.1,1.28-4.73,4.2-9.52,8.35-13.89,12.16Z"/>
  <path fill="#262425" d="M447.09,468.33c-.93,1.23-1.28,2.08-1.92,2.48-3.06,1.91-6.17,3.76-9.34,5.48-.56.3-1.5-.09-2.26-.17.09-.61-.04-1.53.31-1.79,3.3-2.41,6.64-4.79,10.11-6.95.53-.33,1.78.51,3.11.95Z"/>
  <path fill="#262425" d="M700.55,675.91c-1.73,1.78-3.19,3.29-4.65,4.79-.52-1.02-1.72-2.31-1.44-2.99.84-2.04,2.26-3.83,3.45-5.72.73,1.09,1.47,2.18,2.64,3.92Z"/>
  <polygon points="457.98 669.09 457.99 668.81 458.01 669 457.98 669.09"/>
  <path fill="#262425" d="M667.8,148.9c-9.6-.9-17.63-4.64-24.81-10.4-4.25-3.41-6.58-7.96-6.68-13.41-.1-5.12-2.74-8.1-6.97-10.61-2.46-1.45-4.16-4.17-6.2-6.32,2.8-1.35,5.52-2.96,8.43-3.98,2.16-.76,4.85-.23,6.81-1.23,2.06-1.06,4.52-3.01,5.07-5.04,1.1-4.08,3.53-6.02,7.26-6.34,1.43-.12,3.25.99,4.43,2.06,3.11,2.79,5.51,6.64,9,8.67,9.66,5.61,17.79,12.06,20.75,23.6.77,3.01,3.67,5.43,5.23,8.31.88,1.62,1.71,3.84,1.25,5.4-.32,1.11-2.81,1.66-4.38,2.33-3.12,1.33-6.25,2.65-9.43,3.81-3.22,1.16-6.51,2.12-9.77,3.16ZM653.61,141.6c7.82-.97,13.52-3.3,17.02-8.83,1.45-2.28,2.11-5.67,1.73-8.36-.57-3.93-3.97-4.57-6.43-1.41-1.71,2.2-2.98,4.8-4.1,7.37-1.09,2.5-2.03,3.17-4.84,1.81-2.05-.99-5.23-1.2-7.17-.24-1.22.6-2.08,4.53-1.3,5.98,1.04,1.91,3.85,2.86,5.08,3.68ZM644.61,119.88c1.32,2.29,2.27,6.01,4.05,6.46,1.89.48,5.05-1.71,6.77-3.55,1.97-2.11,3.48-4.99,4.2-7.78.48-1.88-.11-5.2-1.42-6.08-1.65-1.11-4.91-1.18-6.8-.28-4.25,2.01-5.92,6.06-6.8,11.23ZM653.5,103.58c-1.85-1.42-3.03-2.99-3.98-2.86-1.04.14-1.86,1.85-2.78,2.88,1.03.8,1.99,2.07,3.12,2.26.84.14,1.91-1.13,3.64-2.28Z"/>
  <path fill="#262425" d="M544.24,235.21c.81-3.67-1.8-5-4.69-6.35-1.23-.57-2.93-1.75-3-2.75-.07-1.01,1.44-2.43,2.58-3.15,1.8-1.15,3.84-1.98,5.85-2.76,5.67-2.18,6.59-1.51,5.74,4.45-.45,3.18.89,3.93,3.63,3.35,6.52-1.36,11.71-4.89,15.25-10.42,3.48-5.45,6.38-11.27,9.7-16.83.78-1.31,2.22-2.22,3.36-3.32.36,1.65,1.31,3.42.99,4.93-2.23,10.4-7.18,19.42-15.65,25.93-5.61,4.31-11.72,8.14-18.05,11.31-4.6,2.3-5.75,1.03-5.7-4.4Z"/>
  <path fill="#262425" d="M731.45,193.54c.27,5.36-8.93,19.52-14.09,21.23-8.5,2.8-17.17,5.09-25.79,7.49-.82.23-1.83-.2-2.76-.32.21-1.04.09-2.35.69-3.06,1.16-1.37,2.91-2.25,4.07-3.62,3.28-3.88,6.43-7.88,9.51-11.91,1.09-1.43,1.6-3.37,2.85-4.6.91-.89,2.67-1.47,3.9-1.27.79.13,1.36,1.91,1.92,3.01.93,1.8,1.77,3.65,2.65,5.47,1.94-1.09,4.27-1.82,5.73-3.36,2.72-2.87,4.85-6.29,7.44-9.3.59-.68,2.03-.75,3.09-.83.3-.02.68.92.77,1.06Z"/>
  <path fill="#262425" d="M573.06,174.97c-2.69,10.72-5.15,21.5-8.24,32.1-.81,2.79-3.47,5.11-5.53,7.42-.59.66-2.37,1.04-3.04.62-.68-.42-1.06-2.04-.88-3.02.38-2.1.99-4.22,1.89-6.15,4.8-10.22,6.85-21.08,7.88-32.22.15-1.64.31-3.37.94-4.85.57-1.33,1.81-2.38,2.75-3.55.84,1.29,1.99,2.48,2.43,3.9.52,1.7.43,3.6.6,5.41.4.11.79.23,1.19.34Z"/>
  <path fill="#262425" d="M621.49,130.38c.78-1.66,1.29-2.76,1.8-3.86.95.6,2.22.98,2.8,1.83,3.69,5.48,7.29,11.02,10.74,16.65.54.89.61,2.98.04,3.44-.82.65-2.86.88-3.63.29-2.56-1.96-5.39-4-6.99-6.68-2.15-3.6-3.25-7.82-4.76-11.68Z"/>
  <path fill="#262425" d="M638.09,167.54c-1.06.32-2.71,1.33-3.24.91-5.05-3.99-10.08-8.06-14.75-12.48-1.78-1.68-.44-2.99,1.83-2.97,3.95.03,14.6,8.29,15.74,12.2.14.48.18.98.43,2.34Z"/>
  <path fill="#262425" d="M642,217.74c-2.28-1.11-4.88-2.38-7.49-3.64,2.54-1.13,4.98-2.69,7.63-3.27,3.19-.69,6.56-.68,9.85-.68,1.14,0,2.28.87,3.42,1.35-.86,1.08-1.5,2.71-2.61,3.13-3.19,1.21-6.57,1.94-10.81,3.11Z"/>
  <path fill="#262425" d="M667.38,220.71c-2.31-1.16-3.56-1.8-4.81-2.43.63-1.21.94-2.99,1.93-3.54,3.6-1.99,7.38-3.7,11.22-5.21.96-.38,2.38.4,3.59.65-.29,1.05-.23,2.57-.92,3.07-3.62,2.66-7.43,5.07-11.01,7.45Z"/>
  <path fill="#262425" d="M727.28,95.49c-2.64-.69-4.47-1.17-6.3-1.65,1.73-.92,3.38-2.35,5.22-2.67,4.74-.84,9.56-1.21,14.35-1.71.59-.06,1.22.21,1.83.33-.44.63-.76,1.66-1.33,1.83-4.73,1.42-9.5,2.69-13.77,3.87Z"/>
  <path fill="#262425" d="M643.49,149.2c2.45,2.1,4.35,3.73,6.26,5.36-.75.7-1.9,2.12-2.18,1.97-2.17-1.2-4.18-2.68-6.14-4.21-.06-.05,1.01-1.54,2.06-3.12Z"/>
  <path fill="#262425" d="M736.67,105.73c1.74.53,3,.92,4.25,1.3-1.96.61-3.89,1.47-5.9,1.73-1,.13-2.13-.86-3.21-1.34,1.69-.59,3.39-1.18,4.86-1.69Z"/>
  <path fill="#262425" d="M684.87,93.95c-2.4.63-3.57,1.34-4.35,1.04-1.19-.45-2.12-1.6-3.16-2.46.94-.41,1.97-1.29,2.79-1.13,1.25.25,2.36,1.21,4.73,2.55Z"/>
  <path fill="#262425" d="M701.88,969.75c1.74.4,2.68.62,3.62.84-.62.87-1.24,1.74-1.87,2.59-.09.13-.25.23-.41.28-14.45,5.46-23.78,18.27-36.87,25.7-3.18,1.8-6.12,4.03-9.29,5.86-1.5.87-3.26,1.29-4.89,1.92.93-1.63,1.56-3.57,2.85-4.84,3.31-3.26,6.71-6.53,10.46-9.25,5.37-3.9,11.1-7.32,16.65-10.97,4.44-2.92,8.79-5.97,13.28-8.8,2.19-1.38,4.62-2.39,6.47-3.33Z"/>
  <polygon points="717.04 965 716.74 965.13 717.11 965.07 717.04 965"/>
</svg>