<?xml version="1.0" encoding="UTF-8"?>
<svg xmlns="http://www.w3.org/2000/svg" version="1.1" viewBox="0 0 1145.8 564.6">
  <defs>
    <style>
      .cls-1 {
        fill: #262425;
      }
    </style>
  </defs>
  <!-- Generator: Adobe Illustrator 28.7.1, SVG Export Plug-In . SVG Version: 1.2.0 Build 142)  -->
  <g>
    <g id="Layer_1">
      <g id="Layer_1-2" data-name="Layer_1">
        <g id="Layer_1-2">
          <g>
            <path class="cls-1" d="M125.4,18.7c-.2.1-.4.2-.6.4h.2c0-.1.1-.2.2-.4h1c.8.2,2.2,3.1,2.1-.6-.1-3.3-.3-6.7,0-10,.2-1.8-1.3-5.2,1.9-5.2s1.7,3.2,1.8,5.1c.8,8.9,1.4,17.9,2.4,26.8.4,3.2,1.2,6.6,2.7,9.5,2.5,4.7,5.3,9.2,8.6,13.4,5.5,7,10.5,14.2,12.3,23.1.5,2.5.7,2.6,2.4.8,8.8-9.3,19.7-14.6,32-17.2,8.3-1.7,16.6-3.3,25-4.6,8.7-1.3,17.5-2.3,26.2-3.5,6.7-.9,13.6-1.3,20.2-3.1,7.1-1.9,14.1-2.4,21.2-.8,5,1.1,10,2.4,15,3.6,8.3,2,16.6,3.9,25,.7.2,0,.3-.1.5,0,.3,0,.8.1.9.3,0,.4,0,.9,0,1.3-.3.6-.7,1.1-1.2,1.6-8.2,7.6-17.4,13.4-28.3,16.3-6.2,1.6-12.5,2-18.8,1.1-6.2-.9-12.4-2.2-18.7-3.1-10.9-1.5-21.6-.3-31.7,4.3-5,2.3-9.9,4.7-14.7,7.3-4,2.1-7.8,4.5-11.5,6.9-2.4,1.6-2.4,2.8-.2,4.1,3.1,1.7,4.4,4.4,5.3,7.5.6,1.9,1.2,3.8,1.8,5.7,1.1,3.1,3,5.1,6.7,4.5.8,0,1.8-.3,2.5,0,5.1,3,11,3.3,16.3,5.6,3.3,1.4,6.5,3.3,10.1,4.2,2.6.6,3,2.2,1.3,4.4-.7.9-1.7,1.7-2.3,2.6-1.6,2.5-3.4,4.9-2.4,8.3.3,1.1,0,2.9-.6,3.8-2.4,2.8-4,5.9-4.8,9.5,0,.2-.2.3-.3.4-3.1,2.5-3.8,6.1-4.4,9.7,0,.7-.3,1.3-.6,1.9-1,1.8-2.2,3.5-4.5,3.4-2.1,0-3.5-1.4-4-3.3-.7-2.9-2.8-3.9-5.4-4.4-6.7-1.3-13.2-3.5-19.2-6.8-2.4-1.3-4.5-1.4-7.1-.4-3.7,1.5-7.6,2.2-11.7,1.5-5.5-1-10.1-3.4-13.7-7.6-2.2-2.6-4.9-3.1-8.1-2.7-1.7.2-2.3,1-2.1,2.6.4,3.6,1.4,6.8,4.4,9.2,3.9,3.1,7.7,6.3,11.7,9.3,8.5,6.4,17.4,12.4,27.7,15.7,5.9,1.9,11.4,4.6,16.6,7.9,10.5,6.5,21.4,12.2,33.4,15.5,13.3,3.7,26.4,4.8,39.1-2.7,3-1.8,7-2.1,10.5-2.5,4.1-.5,8.3-.1,12.5-.4,3.8-.3,7.6-.9,11.3-1.5.5,0,1.2-.8,1.3-1.3,0-.5-.6-1.1-1-1.5-.4-.3-.9-.4-1.4-.5-3.8-.8-6.6-3.1-8.6-6.3-1.1-1.9-2.7-2.8-4.6-3.7-3.7-1.9-7.6-3.5-11-5.9-18.7-12.8-31.9-29.9-39.8-51.2-1.4-3.8-2.2-7.7-1.8-11.7.8-9.1,1.8-18.2,2.8-27.3,0-.7.8-1.3,1.2-1.9.5.6,1.2,1.1,1.6,1.7.3.5.2,1.3.2,2,.7,10.4,4.6,19.4,12.1,26.6,5.8,5.5,12.1,10.5,18,15.8,2.7,2.4,5.4,4.9,7.9,7.6s4.7,5.6,6.9,8.4c.8,1,1.7,2.2,2,3.4,1.7,6.4,6,10.6,11.4,13.9,1,.6,2.1.9,3.2,1.3,0-1.3.2-2.6.2-3.8s-.3-1-.3-1.4c0-5.5-.5-11,.4-16.4,1.9-11.6,8.5-20.5,17.8-27.3,7.5-5.5,15.7-8.7,25.3-6,1.8.5,3.5,0,5.2-1,2.5-1.5,5.3-2.8,8.2-3.5,3.4-.8,6.9-1,10.4-1.2,4.1-.2,7.9-1.1,11.5-3,2.2-1.1,4.4-2.4,6.7-3.3,3.7-1.4,7.5-2.9,11.4-3.6,4.4-.8,8.9-.9,13.4-1.2,4.8-.3,9.2-1.7,12.9-4.8,2.7-2.2,5.3-4.6,8-6.8.5-.5,1.3-.6,2-.9-.3.7-.4,1.6-.8,2.2-2.2,3.3-4.5,6.6-6.8,9.9-8.1,12-19.4,18.5-33.8,19.2-4.2.2-7.7,1.7-10.8,4.3-6.7,5.7-14.2,7.6-22.8,5.1-1.9-.5-4-.6-5.9-.2-7.8,1.5-14.9,9.1-15.3,17.1-.2,5.2-2.7,7.9-7,9.8-2.3,1-4.5,2.1-6.8,3.2-3.3,1.7-4.7,4.6-5.2,8.1-.2,1.5.4,2.7,2.2,2.6,5.1-.2,10.3-.3,15.4-.8,3.3-.3,6.3-.2,8.9,2.1,1.5,1.4,3.4,1.4,5.1.4,3.8-2.3,6.1-8.1,5.3-12.5-.8-4.3-3-7.7-6.4-10.4-1.2-1-2.4-1.7-3.6-2.7-.7-.6-1.2-1.5-1.9-2.2.8-.4,1.7-1,2.5-1.1,5.3-.3,10.7-.7,16-.5,4.2.2,7.5,3.5,7.9,7.8.2,2.7-.4,5.6-.9,8.3-.2,1.1-1,2.1-1.3,3.2,0,.4.4,1.4.7,1.4,3.8.4,7.6.8,11.4.9.7,0,2-1.1,2-1.7.3-4.5,3.7-5.2,7-5.7,2.7-.4,5.1-.9,7.4-2.5,2.3-1.5,4-.8,5.2,1.8.4.9.7,1.9.8,2.8.4,3.7,1.8,7,2.9,10.4,2.4,7.4,6.7,13.3,12.7,18.1,1.4,1.1,2.7,2.5,3.7,4,1.4,2.2.6,3.5-2,4.2-1.9.6-4,.9-5.5,2-4.2,3.1-8.6,3.3-13.3,2-2.7-.8-5.4-1.6-8.2-2.3-1.6-.4-2.6.3-2.5,2.1,0,.8.2,1.6.3,2.5.6,4.4-1.1,6.4-5.6,6.7-3.3.2-6.2-.8-8.9-2.6-1.7-1.1-3.5-2.1-5.6-1.3-7,2.5-12.5,6.8-16.5,13.1-1.2,1.8-.6,3.1,1.1,4.2,4,2.8,8.4,4.9,13.3,5.4,8.3.9,16.4.2,23.9-3.7,9.1-4.7,18.6-7.9,28.5-10.6,1.7-.5,3.8-1,5.3-.5,3.8,1.2,7,0,10-1.9,5.2-3.3,10.5-6.5,15.3-10.3,4-3.2,7.6-7,11.1-10.7,3.1-3.3,3.7-7.1,2.5-11.6-1.6-6.3-1.7-12.8,1.3-19,1.8-3.7,3.1-7.7,4.7-11.6,3.3-8.2,3.5-16.5.6-24.8-1.3-3.9-1.8-7.8-1.1-11.8.5-2.7,1.6-5.4,2.7-8,.6-1.5,2.3-2.3,3.8-1.6,1,.5,2,1.7,2.4,2.8.6,1.7.6,3.6,1.2,5.3.4,1.4.9,3.1,1.9,3.9,5.3,4.3,7.6,10.4,10.7,16.1,3.9,7.1,5.5,14.7,4.3,22.7-1.9,12.9-8.2,23-19.8,29.5-3.1,1.7-6,3.6-7.8,6.8-3.5,6.2-8.4,11.2-14,15.4-4,3-8.2,5.7-12.3,8.6-.9.6-1.2,1.4,0,1.8,4.9,2,9.4,4.1,15.3,2.4,22.6-6.6,44.4-15.2,64.6-27.4,8.1-4.9,15.6-10.8,23.3-16.3,2.6-1.9,3.6-4.5,3.8-7.8.2-4.5.7-9,1.1-13.4.8-7.1,3.6-13.1,9.9-17,.8-.5,1.6-1.2,2.4-1.8,4.8-3.1,8.2-7.2,10-12.7,1.4-4.1,3.9-7.4,7.7-9.5,4.6-2.6,9.3-5.3,14.4-6.8,11.1-3.4,22.4-6.2,33.7-9,2.5-.6,5.3-.5,7.9,0,3.7.6,5.2,2.8,4.1,6.4-.8,2.8-2.1,5.6-3.9,8-8.1,10.8-18.2,19.3-30.1,25.7-8.4,4.5-16.9,6.6-26.4,3.7-1.7-.5-4.1-.3-5.8.4-4.2,1.7-8.2,9-7.9,13.6.3,4.3,1.4,5.2,5.6,4,11.1-3.1,21.7-7.5,32-12.6,7.9-3.9,15.6-8.4,23.8-11.6,8-3.1,13.5-8,16.6-16,3.8-10,8.4-19.6,14.6-28.3,1.6-2.2.9-3.8-.4-5.8-2.9-4.5-5.8-9-8.2-13.7-3.3-6.5-6.2-13.3-9.3-19.9-5.2-11.1-13.4-19.3-24.3-24.9-.7-.4-1.6-.6-2.2-1.1-.5-.3-.7-1-1-1.5.6,0,1.2-.4,1.7-.2,4.7,1.8,9.4,3.2,14.4,4,7.6,1.2,14.3,4.7,19.4,10.5,3.9,4.3,7.5,8.9,10.6,13.8,3.2,4.9,5.7,10.2,8.4,15.3,1.8,3.3,3.7,3.5,5.8.6,0-.1.2-.3.3-.4,4.4-7.6,11-12.3,19.4-14.6.5-.1.9-.5,1.4-.6,5.2-.6,7.8-3.8,9.1-8.6,0-.3.2-.6.3-1,.5-1.4.9-2.8,1.3-4.1-1.5.6-3,1.1-4.4,1.8-1.8.9-3.5,2-5.3,2.7-.8.3-2.1.5-2.6,0-1.1-.9-1.2-2.5-.2-3.5.8-.8,1.9-1.3,2.9-1.7,1.7-.7,3.6-.9,5.2-1.7,5.7-3,5.7-4.1.5-7.6-2.5-1.7-4.7-3.6-7-5.6-.7-.6-1.5-1.4-1.9-2.3-.4-.8-.3-1.8-.5-2.6.8.2,1.7.2,2.3.6,3.8,2.6,8.2,3.7,12.7,4.1,7,.7,13.9,1.7,20.1,5.3,2,1.1,3.5.6,4.9-.8,1.5-1.5,3.7-2.4,2.7-5.3-1.6-4.5-.3-8.5,2.4-12.2h1c-.5,2-1.3,4.1-1.6,6.1-.2,1.5-.4,3.9.5,4.6,1.5,1.2,3.6.2,4.9-1.1,2.1-2.1,4-4.4,6-6.6.3-.3.8-.5,1.2-.7,0,.5.3,1.2.1,1.6-1.1,3.4-3.3,6.1-5.8,8.5-.3.3-.5.7-.7,1.1.5,0,1,0,1.3-.2,4.4-2,7.8-5,10.3-9.1.5-.9.9-1.8,1.6-2.5.3-.4,1-.3,1.6-.4,0,.4.2,1,0,1.3-2.1,3-4.2,6-6.2,8.9-.2.3-.3.8-.5,1.1.5,0,1,0,1.4-.1,5.6-2.9,9.9-7.1,13.1-12.5h6c-1.4,5.4-5.4,8.6-9.8,11.3-2.5,1.5-5.4,2.5-8.2,3.5-5.5,2-10.9,3.9-15.6,7.5-1.2,1-3.2,2.9-3,3.5,1,2.1,3.1.8,4.8.6,5.4-.8,10.8-1.8,16.2-2.5,4.8-.6,8.7-2.8,12.1-6.2,5.4-5.3,9.6-11.4,13.4-17.8h1c.1.8.6,1.8.3,2.2-5.3,7.1-9.7,14.7-16,21-7.1,7-15.6,11.9-24.2,16.6-8.5,4.6-17.3,8.8-24.7,15-6.7,5.5-13.1,11.3-19.4,17.2-4.8,4.5-5.4,10-3.3,16,.1.5.5.8.8,1.3.3-.3.5-.7.7-1,4.8-7.6,11.3-13.5,18.5-18.6,2.4-1.7,5-3.3,7.4-5.2,3.4-2.7,6.1-6.1,8.2-9.9.5-.9.9-1.8,1.5-2.6,1.7-2.3,3.4-2.4,5.3-.3,3.1,3.3,3.2,3.4,7,1.3,4.4-2.3,8.7-4.8,13-7.4,2.2-1.3,4.3-2.5,7-1.7,2,.6,3.5-.6,5-1.6,9.6-6.2,16-15,19.9-25.7,1.9-5.5,3.4-11.1,5.1-16.7h4c-.3,1.8-.2,3.7-.8,5.3-1.7,4.5-3.6,8.9-5.4,13.4-.4,1-1,1.7.9,1.7,5.3,0,10.6.5,15.9.3,5-.2,9.8-1.9,13.9-4.8,1.2-.9,2.2-2.6,2.5-4.1,1.3-5.4,4.5-8.3,10-8.7,2.1-.2,3.8-1.2,4.9-3h2c.2,2.6-1.3,4.1-3.5,4.8-2.1.6-4.2.9-6.3,1.4-2.8.7-5.1,2.2-5.1,5.3s-2.3,6-5.4,7.7c-1,.6-1.7,1.8-2.5,2.7,1.2.7,2.4,1.6,3.7,2.1.9.3,2,0,3,0,2,0,3.1-.9,3.4-2.9.2-1.3.4-2.6.6-3.9,1.1-6.2,5.1-9.9,11-11.7,2.2-.7,3.2-.2,3.8,1.8.2.8.3,1.6.3,2.5,0,3.1,1.5,5.5,4,7,3,1.8,5.9,3.9,9.2,4.9,5.2,1.7,10.6,2.3,16.2,1.6,9.7-1.2,19.5-1.7,29.3-2.6,1.6-.1,3.2-.6,4.8-1-1.3-.9-2.5-1.9-3.9-2.5-5.2-2.1-10.5-4.1-15.8-6.2-1.1-.4-2.2-.8-3.2-1.3,0,0,0-1,.3-1,.6-.1,1.3-.1,1.9-.1,4.7.3,9.1,2,13.3,3.8,6.3,2.7,12.5,5.4,19.4,6.3.6,0,1.3-.1,1.9-.2-.4-.5-.7-1.1-1.2-1.4-5.7-3.8-11.5-7.4-17.1-11.2-1.2-.8-2.1-2-3.1-3,.9.4,1.8.7,2.7,1.2,7.1,4,14.2,7.9,21.4,11.9,2.2,1.2,4.4,2.3,6.5,3.7.9.6,1.3,1.7,2,2.6-1,.5-2,1.2-3.1,1.4-1.6.3-3.3.2-5,.2-7.8,0-15.7,0-23.5,0-.5,0-.9.3-1.4.4.3.2.7.6,1.1.7,12.1,3,23.9,6.9,35.5,11.7,2.3.9,4.5.6,6.8-.4,3.8-1.7,7.6-3.4,11.5-4.7,2.3-.8,4.8-1.5,7.2-1.5s3.4-.8,4.3-2.6c1.9-3.7,5.3-4.8,9-5.4.7-.1,1.5.3,2.2.5-.6.3-1.1.6-1.7,1-1.6.9-3.4,1.6-4.6,2.8-1.5,1.5-2.8,3.3-3.5,5.3-1.4,3.7,0,6.6,3.5,8.3,1.5.7,3.2,1.2,4.8,1.2,5.2,0,10.4.2,15.5-.3,13.8-1.4,27.2,0,40.3,4.5.6.2,1.2.5,1.9.7.3,0,.6-.1.9-.2,0-.2-.2-.5-.4-.7-9.8-10.8-18.7-15.3-33.7-16.9-4.5-.5-8.9-.8-13.4-1.3-.4,0-.8-.5-1.1-.7.3-.3.7-.8,1-.8,3.5,0,7,0,10.4.3,8.5.6,16.7,2.8,24.6,5.9.5.2,1.2,0,1.8,0-.2-.6-.2-1.2-.5-1.8-2-4-5.5-6.6-9.3-8.8-5.7-3.3-12-4.9-18.4-5.9-3.5-.5-7-.9-10.4-.8-6.1,0-12,.7-16.4,5.8-.2.3-.8.2-1.2.4,0-.5-.3-1,0-1.4.9-2.5,2.8-4.3,5.3-4.9,3.5-.9,7.1-1.9,10.7-1.9,8.5-.2,16.9,1.3,25.1,3.5,7.8,2.1,13.4,7.3,18.1,13.5,2.9,3.7,5.7,7.4,9.4,10.3,1,.8,2,1.8,2.8,2.9,3,4,5.3,8.5,9.5,11.5.4.3.2,1.4.3,2.1-.6,0-1.3.2-1.8,0-4.9-2.4-9.7-5.2-14.7-7.3-7.7-3.2-15.8-4.9-24.2-5.7-9.4-.9-18.5.2-27.7,2.1-1.5.3-3,.3-4.5.4-4.6.4-8-1.4-10.7-5.1-3.6-4.8-5.2-5.1-10.4-2.2-.7.4-1.5.8-2.1,1.3-1.3,1-1.3,1.8.3,2.5,1.5.7,3.1,1.2,4.6,1.9,7.9,3.4,15.9,6.8,23.8,10.3,2.1.9,4,1.4,6.1,0,5.9-3.9,12.2-3.5,18.7-1.5,7.1,2.2,13.4,5.8,19.7,9.5,3.2,1.9,6.3,3.7,9.5,5.6,5.8,3.4,12.1,5.5,18.7,6.6,1.6.3,3.9.2,3.9,2.2s-2.2,2.3-3.6,2.8c-5.9,1.8-11.8,3.3-17.7,5-.8.2-1.4,1-2.2,1.5.5.6,1,1.4,1.6,1.7,4.8,2.7,9.6,5.3,14.4,8,2,1.1,3.8.6,5.7-.3,3.7-1.7,7.6-2.3,11.6-2.3,6.5,0,12.1,2.1,17,6.2,5.9,4.9,11.7,9.9,17.1,15.3,5.2,5.2,10.9,9.2,17.9,11.4.9.3,1.8.9,2.7,1.3v1c-1.1.3-2.2.8-3.3,1-4.1.6-8.2,1.2-12.3,1.6-1.8.2-3.6.3-5.5.3s-.7-.3-1.1-.5c.3,0,.6-.3.9-.4,2.1-.5,4.2-.9,6.3-1.5,2-.7,2.2-1.9.3-3-8.3-5-14.4-12.2-21-19-2.9-3-6.1-5.6-9.5-7.9-4.8-3.3-10.3-3.3-15.9-2.3-1,.2-1.9.6-2.8,1-.4.2-.5.8-.7,1.2,0,0,.5.4.8.4,1,0,2,0,3,0,5.4-.8,9.8,1.2,13.4,5.1,1.6,1.7,3.3,3.3,4.9,5,.4.4.5,1.1.7,1.6-.6,0-1.3,0-1.8-.3-2.8-1.5-5.5-3.2-8.3-4.6-2.2-1.1-5,.4-6.5,3.1-1.1,2-.8,3,2.2,4.6,4.4,2.4,8.9,4.5,13.4,6.7,1.1.5,2.1,1.2,3.1,1.7-1.3,0-2.6,0-3.9-.3-9.6-2.5-18-6.9-23.7-15.4-.4-.6-1.3-1-1.9-1.5,0,.7,0,1.6.2,2.2.9,2.2,1.6,4.4,2.9,6.3,3.3,5.4,8.2,9.2,13.8,11.9,5.1,2.5,10.4,4.5,16.1,5,.5,0,1,.2,1.4.3-.5.2-1.1.5-1.6.4-2.1-.2-4.3-.3-6.4-.8-14.1-3.1-25.1-9.7-28.1-25.2-.5-2.6-1.8-4.6-4.4-5.7-5.5-2.4-10.9-4.9-16.4-7.4-5.7-2.6-11.8-3.4-18-2.8-1.7.2-2.5,1-2.3,2.6.4,3.1.9,6.3,1.5,9.3.3,1.4,1.3,2.2,2.9,2.2,10.4.2,18.3,5.5,25.4,12.3,3.9,3.7,7.5,7.5,11.2,11.4,6,6.3,13.4,10.3,21.9,12.3,1.4.3,2.9.7,4.4,1,.8.2,1.6.5,2.4.8.4.2.6.6.9.9-.2.2-.5.5-.7.6-.8.2-1.6.5-2.4.6-6.3.6-12.6,1.1-18.5,3.8-.8.4-2,0-3,.2h0c.7-.3,1.4-.7,2-1.1,1.4-.8,2.8-1.7,4.2-2.5-1.5,0-3-.3-4.4-.2-10,.7-17.6-3.6-23.9-11-2-2.4-4.1-4.8-6.3-7.1-2.8-2.9-5.9-5.3-9.8-6.7-3.5-1.2-6.8-2.7-9.3-5.6-1.1-1.2-1.9-1-2.6.4-1.5,2.9-2.2,5.9-2.2,9.1s0,3.7.2,5.5h0c-.3-.6-.8-1.1-1-1.7-1.1-4.8,0-9.5,1-14.2.6-2.7,1.3-5.6,1-8.3-.9-7.5-2.4-14.5-11.4-17.3-7.4-2.3-11.9-8.3-13.6-16-.2-.7.2-1.6.3-2.3.9.2,1.8.3,2.7.6.4,0,.6.8.9,1.1h0c-1.4,1-1.3,2.5-.9,4,1.5,5.2,8.9,11.4,14.2,11.9.5,0,1.1-.6,1.6-.9h0c1.4,2.3,3,4.3,4,6.7,2.2,5,4,10.2,6,15.3.6,1.4,1.2,2.8,2.1,3.9.4.6,1.7.5,2.5.7,0-.7,0-1.6-.4-2.1-3.9-4.8-5.6-10.5-6.9-16.3-1.3-5.7-3.3-11.1-7-15.8-.2-.3-.4-.6-.5-.9,0-.3-.2-.8,0-.9.4-.2,1-.5,1.3-.3,1,.5,2,1.1,3,1.7,13,7.8,27.2,13.1,41,19.1.7.3,1.3.7,2,1s1.4.7,2.1,1c.7.3,1.3.7,2,1,2.5,2.1,5,4.2,7.6,6.3.4.3.9.6,1.3.6.6,0,1.3-.4,1.6-.9.2-.3-.2-1.3-.6-1.5-3.3-1.5-6.6-2.9-9.9-4.3-.7-.3-1.3-.7-2-1s-1.4-.7-2.1-1c-.7-.3-1.3-.7-2-1-1.1-.9-2.1-1.9-3.3-2.7-7-4.5-14.2-8.7-21.1-13.4-20.5-14.2-42.2-26-65.6-34.6-2.7-1-5.2-1.8-8,.2-1.1.8-2.8.9-4.3,1.3-.7.2-1.4.4-2.1.6.7.3,1.5.7,2.2,1,3.1,1.5,6.1,3,9.2,4.5h0c-1.9-.5-3.9-.8-5.7-1.5-9.4-3.2-18.8-6.6-28.2-9.9-2.2-.8-3.4-.2-2.9,1.6,1.2,4.2.8,8.2-.2,12.3,0,.5,0,1,0,1.5.2,1.1.8,1.9,2,1.4,1.7-.7,3.4-1.4,5.1-2.1,4.2-1.5,8.4-2.2,12.7-.5,8.6,3.3,19.2,14.3,17.1,27.6-1,6.3,1,11.8,5,16.6,3.9,4.7,8.9,8,14.8,9.8.9.3,2,.5,2.8.9.5.3.8,1,1,1.6,0,.2-.6.7-1.1.9-.8.3-1.6.6-2.4.7-8.4,1.2-16.8,2.4-25.3,2-9.8-.5-18.6-3.2-25.6-10.5-1.3-1.3-2.7-2.5-3.9-3.9-5.9-6.7-10.7-14.1-11.7-23.3-.4-4-.5-8.1,2.2-11.5,1.7-2.1,2-4.2,1.1-6.5-.9-2.5-1-4.9.2-7.2,1.8-3.6.9-6.8-1.4-9.8-1.2-1.6-2.6-3.1-4-4.5-1.8-1.9-4.2-2.5-6.8-2.8-1.9-.2-3.1.4-3.8,2.4-.9,2.7-2,5.3-3.4,7.7-1.3,2.2-1.6,4.1-.6,6.5,1.1,2.6,1.5,5.4,2.3,8.1,2.1,6.5-.6,11.3-5.3,15.4-5.8,5.1-12.6,8-20.3,8.5-3.8.2-7.6.6-11,2.7-1.3.9-2-.3-1.7-1.3.8-2.1,1.8-4.2,3-6.2.9-1.4,2.4-2.5,3.6-3.7l-1.5,4.5c-.7,1.8-.4,2.3,1.8,1.9,5-1,10.1-2,15-3.5,4.1-1.2,7.3-3.8,9.7-7.5,1.5-2.4,2-5,1.3-7.7-.5-2.1-1.3-4.4-3.6-5.1-2.4-.7-3.3,1.7-4.5,3.2-1.8,2.2-3.5,4.5-5.3,6.6-.3.3-.8.4-1.2.5,0-.5-.4-1-.3-1.4.8-1.7,1.6-3.3,2.5-4.9,1.1-1.9,2.4-3.6,3.3-5.5,1.4-2.9.9-5.9-1.1-7.2-1.5-1-3.7-.4-6.2,1.9-2.8,2.6-4.2,6-5.3,9.5-.8,2.3-1.5,4.7-2.2,7h0c0-8.9,2.1-17,9.5-22.9,2.9-2.3,5.9-4,9.3-.9,1,.9,1.8.4,2.5-.4,3.9-4.3,3.3-8.2-2-10.9-2.8-1.4-5.9-2-8.9-2.9-.5-.2-1-.4-1.6-.6.5,0,1-.3,1.4-.3,2.5,0,5,0,7.5.3,2,.3,3.3.1,4.8-1.5,1.7-2,9.8-1.5,11.5.4.5.6.7,1.5.9,2.3.7,3.6.6,3.7,4,4.3,9.8,1.8,19.4,4.5,28.8,7.9.9.3,1.9.7,2.8.9.2,0,.8-.7.7-.9-.3-1.1-1.1-2.2-1.1-3.3,0-2.4-1.4-3.6-3.3-4.5-1.2-.6-2.4-1.2-3.7-1.5-7.8-2.2-15.7-4.2-23.5-6.5-7.3-2.1-14.8-2.1-22.3-2-7.2,0-14.3.3-21.4-1-6.8-1.3-13.7-2.3-20.6-3.5-1.9-.3-3.7-.4-4.6,1.8-1.4,3.2-4.2,3.9-7.4,4-3.3,0-6.2-.6-9-2.4-1.3-.8-3-1.7-4.5-1.7-6.5-.1-13,0-19.5.2-2.8,0-5.2,1.9-5.8,4.5-.1.5.5,1.7,1,1.8,1.1.3,2.3.3,3.4.2,5.3-.2,10.6-.5,15.9-.8,5.8-.3,11.6-.6,17.4-.9,1.6,0,3.3,0,5,.2.3,0,.6.6,1,.9-.4.2-.7.7-1.1.7-1.7,0-3.3.2-5,.2-5.2,0-10.3.1-15.5,0-4.5,0-7.9,1.4-10.7,5.1-2.9,3.8-6.4,7.2-9.6,10.8-.9,1-3.1,1.8-2,3.4.5.7,2.7.3,4.1.3s.9-.3,1.4-.5c7.6-1.8,14.1.3,19.9,5.2,4.1,3.6,7,8,9,13,2.3,5.7,4.5,11.5,7.2,17,4,8.2,10.2,13.8,19.7,15,1.1,0,3.6-.5,3.3,1.8-.2,1.7-2.2,1.7-3.7,1.7h-1c-7.5.6-14.9,1.2-22.4,1.7-2.6.2-5.4,0-7.9-.4-9.6-2.2-17.8-7.2-25.2-13.6-1.9-1.7-3.9-3.7-4-6.6h0c1,.9,2.2,1.6,2.9,2.6,2.5,3.7,6.1,6.1,9.8,8.4,6.1,3.8,12.7,5.8,19.7,6.8,5.3.7,10.6.5,15.9-.7.4,0,.8-.4,1-.7,0,0-.2-.6-.5-.8-.4-.3-.8-.6-1.3-.8-3.7-2-7.1-4.2-7.4-9,0-.3-.3-.6-.4-.9-2.8-6.8-5.9-13.4-8.3-20.3-3-8.8-9-13.7-17.6-15.9-1.4-.4-3-.4-4.4-.4s-2.3.6-1.8,2.2c3.1,8.4,7,16.3,15.1,21,5.2,3,9.2,7.1,12.2,12.2.3.5.4,1.2.6,1.8-.5-.2-1.1-.3-1.5-.6-4.9-3.7-9.8-7.5-14.7-11.1-7.1-5.2-14-10.7-18.5-18.6-1.4-2.4-2.2-2.3-3.8.2-1.1,1.8-1.7,3.5-.3,5.5.6.8.9,1.8,1,2.8,0,3,1.2,5.3,3.3,7.5,1.9,2,1.6,4.5-.9,5.9-2,1.1-4.3,1.8-6.5,2.1-3,.4-6-.2-9,.2-3.1.4-6.1,1.3-9.1,2.2-1.5.5-1.8,1.6-.8,3.2,1.1,1.8,2.2,3.8,2.7,5.8.9,3.7-1,6.2-4.8,6.6-1.6.2-3.3,0-5,0-2.7-.3-4.7.6-6.7,2.5-3.4,3.4-7.2,6.4-10.8,9.7-.5.4-.7,1-1.1,1.5.4.2.9.4,1.3.6,9.3,3.5,18.7,6.8,28,10.6,17.3,7.1,34.3,6.9,51.3-.9,5-2.3,9.9-4.7,14.9-7.1s10.2-4,15.9-3.7c5.1.3,9.7,2.2,14.2,4.4,9.1,4.5,17.9,9.7,28.6,9.6.4,0,.8.4,1.1.6-.4.2-.9.4-1.4.5-2.3.3-4.6.6-6.9.8-15.3,1.4-30.2,4.5-45,8.5-7.5,2.1-14.8,5.4-22.8,4.7-4.5-.4-7.9,1.6-11.2,4.4-2.5,2.2-5.2,4.2-8.1,5.8-16.2,8.9-33.3,9.8-50.8,5.3-12-3.1-22.7-8.6-31.5-17.4-3-3-5.2-6.8-7.7-10.2.3-.3.5-.6.8-1l-.4-.3c0,.5-.2.9-.3,1.4-1.9,2.4-1.2,5.1-.5,7.6.9,3.4,2.1,6.7,3.2,9.9,1.7,4.8,1.3,9.3-2.2,13.1-3.1,3.4-4,6.9-2.5,11.4,3.4,9.8-3.4,25.7-13.6,30.6-4.2,2-8.3,4.3-12.2,6.9-3.9,2.6-7.6,2.4-11.2-.1-5.1-3.6-9.1-8.3-11.8-13.9-.2-.5,0-1.2,0-1.8.3.4.6.8.9,1.1,4.1,4.4,8.1,8.8,12.4,13,2.6,2.6,4.8,2.5,7.1.5,1.7-1.4,1.7-2.8,0-4-1.1-.8-2.3-1.3-3.4-2.1s-2-1.8-2.9-2.8c1.2.4,2.5.6,3.6,1.1,5.5,2.7,10.9,2.6,16-1,1-.7,1.9-1.8,2.8-2.7-1.1-.4-2.2-.9-3.4-1.2-1.4-.4-3-.5-4.4-.9-13-3.8-24.3-9.6-27.2-24.6,0-.4-.6-.9-.9-.9s-.9.4-1.1.8c-.9,1.9-1.6,4-2.5,5.9-.2.4-.6.7-.9,1.1-.1-.5-.4-1-.3-1.4,2.1-5.4,4.2-10.8,6.4-16.2,0-.2.6-.4.9-.3s.5.5.5.8c0,2.5-.1,5-.1,7.5,0,6.4,2.9,11.6,7.8,15.5,6.2,4.8,15.1,5.1,17.4-6.4,1.7-8.4.1-16.6-.3-24.9-.3-6-.9-12-.8-17.9.1-6.3,2.8-11.6,8.4-15,1.4-.9,2.8-1.6,4.3-2.5-1.6-.6-3.3-1.4-4.9-1.9-8.1-2.4-15.3-1.1-22.1,4.1-3.3,2.5-7.1,4.3-10.6,6.6-4.6,3.1-9.6,4.3-15.2,3.8-3.2-.3-6.3,0-9.3,1.3-13.1,5.7-26.1,11.7-38.5,18.9-22.8,13.4-45.7,26.7-68.5,40.2-3.3,1.9-6.3,4.3-9.3,6.7-1.9,1.5-1.7,2.2.6,2.9,8.1,2.6,14.7,7.5,20.9,13.3,3.3,3.1,6.8,5.9,10.7,8.2,2.9,1.7,6.4,2.6,9.7,3.5,2.5.7,4.4-.5,5.9-2.7,2.3-3.3,4.7-6.5,7.1-9.6,5.2-6.8,11.6-12,19.7-14.8,5.3-1.9,10.7-3.6,16.2-4.8,9.1-2.1,18.3-3.3,27.1-6.4.2,0,.3-.1.5-.2,1.3-.4,2.7-1,3.7.3,1.2,1.6-.1,2.8-1,4s-1.9,2.3-3,3.3c-2.7,2.5-5.5,4.8-8.3,7.2-.3.3-.5.8-.8,1.2.5.1.9.3,1.4.3,1.2,0,2.3-.2,3.5-.4,6.2-1.1,12.4-2.2,18.7-3.2.6-.1,1.2.2,1.9.3-.2.6-.2,1.3-.6,1.7-.9.9-2,1.7-3.1,2.5-5.9,4.6-11.8,9.2-17.7,13.8-.5.4-.8,1-1.2,1.5.5.3.9.9,1.5,1,7.3,1.6,13.4,5.7,20,8.9.7.4,1.5.8,2.1,1.3,1,.8.9,1.8-.3,2.2-.8.2-1.6.3-2.4.5-3.8,1-7.7,1.9-11.5,3.2-2.2.7-4.1,2.2-6.1,3.3,1.3,2.5,4.2,2.4,6.2,3.6,1.2.6,2.6,1.1,3.4,1.9,1.3,1.3,2.3,2.8,3.2,4.4.3.6.3,1.8-.1,2.2s-1.6.5-2.2.1c-4.2-2.3-8.7-2-13.2-1.4-3.4.4-6.9,1.2-10.3,2-6.4,1.6-12.8,2.2-19.3,1.6-10.9-1-20.9-3.9-27.1-14.3-1.8-3-4.7-4.5-8.4-4.7-8.9-.5-16.7-3.8-23.8-9.1-5.8-4.4-12-8.4-18.3-12.1-7.7-4.4-16.3-6-25-5.3-6.8.6-13.4,2.3-20.1,3.7-2.2.5-4.4,1.6-6.5,2.5-.3.1-.4.8-.6,1.2.3.1.6.3.9.3,4.1.3,8.3.4,12.4.7.9,0,1.7.4,2.5.6-.7.4-1.4.9-2.1,1.2-8.6,3.1-17.3,6.1-25.8,9.4-9.8,3.8-19.5,7.5-29.8,9.9-11.6,2.8-23,2.8-34.5-.6-3.1-.9-6.8-1.9-9.7-1-6,1.8-11.6,4.9-17.4,7.4-1.1.5-1.3,1.4-.6,2.4.4.7.8,1.4,1.3,2.1,7.6,12.8,10.9,26.7,10,41.6-.2,3.2-.4,6.1,1.7,9,1,1.4,1.2,3.5,1.4,5.3.7,7.5.2,15-1.7,22.3,0,.5-.2,1-.3,1.5,0,.1-.3.3-.3.3-.2-.1-.6-.3-.6-.4-.2-2.6-.5-5.2-.5-7.8,0-5,.3-10,.3-14.9s-.7-2.8-1.4-2.9c-2.1-.4-4.4-.5-6.3,0-1,.3-1.8,2.3-2.1,3.6-.8,3.8-1.6,7.5-3.7,10.8-4.4,6.7-6.7,14.1-7.5,22,0,.5-.2.9-.3,1.4-.2-.5-.5-1-.5-1.5,0-5.1,1-9.9,2.9-14.6,3.3-8.3,6.6-16.7,10-25,.3-.4.5-.8.8-1.2,0,0-.2-.2-.2-.4,0,.5-.3,1.1-.4,1.6-2.4.6-4.3,1.6-5.2,4.1-1.7,4.5-4.8,7.9-7.9,11.4-10.6,12.2-12,28.5-5.2,42,1.5,3,3.5,6.6,6.6,7.1,3.7.6,4.5,3.2,6,5.5,3.7,6,8.6,10.5,14.7,13.9.4.2.9.3,1.3.5,0-.6.3-1.3,0-1.8-2.1-4.5-4.4-8.9-6.6-13.4-1.1-2.4-2.3-4.8-2.9-7.4-2.6-10.7-.4-20.8,4.2-30.5,0-.2.5-.3.8-.5h0c-.5,1.9-.8,3.9-1.5,5.7-2.1,6.4-3,13-2.5,19.7,0,1.1.5,2.1.8,3.2,1.9-.6.4-2,.5-2.9.4-2.5.4-5,.6-7.4.5-5.3,1.7-10.5,3.7-15.5.2-.5.6-.8.9-1.2,0,.5.3,1,.2,1.4-.7,3.6-1.6,7.1-2.2,10.7-.6,4.1-1.5,8.3-1.3,12.4.4,8.4,2.3,16.5,6.3,23.9.5.9,1.2,1.8,1.2,2.7s-.3,2.4-1,3-2.2.7-3.1.3c-1.6-.8-3.2-1.9-4.5-3.1-6.4-6.3-13-12.5-19-19.1-6.8-7.5-9.6-16.8-9-26.8.5-8.9,4.1-16.6,9.7-23.6,2.9-3.6,5.2-7.7,7.8-11.6.8-1.2,1.6-2.6,2.8-3.4,2.3-1.4,3.2-3.6,3.3-5.9,0-5,.6-10.1-.4-14.9-3.5-17.1-13.9-29.2-28.7-37.6-4.6-2.6-5.1-2.7-4.7,2.5,0,1,0,2,0,3-.3,1.6-.4,3.9-2.3,4-1.9,0-1.4-2.3-1.6-3.6-.7-4.5-2.5-8.4-6.5-10.7-4.6-2.6-5.2-2.2-8.5.4-6.8,5.3-11.4,12.1-14.7,19.8-2.2,5-4.1,10.2-6.1,15.3-2.8,7.1-6.6,13.4-12.5,18.4-6.9,5.7-14.7,6.9-22.1,2-5.4-3.5-10.1-8.1-15-12.3-1.4-1.2-1.7-2.8-.9-4.5.5-1.2,1-2.5,1.7-3.6,3.6-6.5,5.9-13.3,5-21-.2-2.1.9-4.5,1.6-6.7,0-.4,1-.6,1.5-.8,0,.4.3.9,0,1.3-2.1,4.5-.9,8.8.9,13,2.5,5.8,3,11.9,2.4,18.1-.5,4.5,2.8,6.9,7,5,1.6-.7,3.1-2,4.3-3.4,1.5-1.7,2.8-3.7,4-5.8,5-8.8,10-17.7,14.9-26.6,1.2-2.2,2.3-4.4,3.3-6.7,1.8-4.1,1.5-4.5-2.7-5.1-3.1-.5-6.2-1-9.3-1.6-13.3-2.2-26.3-5.7-39.2-9.8-4-1.3-7.9-1.2-11.8,0-3,.9-6,2-8.9,3.2-3.3,1.3-3.3,1.4-2.7,4.7,1.4,8.4,1.1,16.8,0,25.3-.7,6-3.1,12-1.5,18.2h0c-.5.5-1,1.2-1.6,1.7-2.7,2.2-3,5-2.1,8.1.2.6.4,1.3.5,1.9,1.4,5.4,3.6,6.5,8.7,4.4,4.1-1.7,7.6-4.1,10.3-7.6,2-2.5,4.5-3.9,7.6-4.4.7-.1,1.6.3,2.3.4-.2.9-.2,2-.7,2.7-2.7,3.9-5.7,7.8-8.4,11.7-3.3,4.8-7.8,8.2-13.2,10.3-7,2.8-13.7,2.2-20-1.8-.4-.3-.7-.7-1-1,.6,0,1.3-.2,1.8,0,1.2.4,2.4,1.1,3.7,1.5,8.5,2.7,16.2,1.6,22.5-4.9,3.1-3.2,5.6-7,8.2-10.6.8-1.1,1.1-2.6,1.7-3.9-2.1-.5-2.7,1.4-4,2.3-1.8,1.2-3.2,2.9-4.9,4.2-1.6,1.2-3.2,2.4-5,3.2-5.1,2.4-9.8.2-11.4-5.2-.5-1.6-.8-3.2-1.1-4.9-.3-1.9-1.2-3.1-3.3-3-2.8.1-4.7-1.2-6.4-3.2-2.3-2.7-3.2-2.6-5.4,0-2.2,2.7-3.1,5.8-3.4,9.2,0,.4-.5.8-.8,1.1-.2-.3-.6-.6-.6-1-.6-4.6.7-8.6,4.1-11.8,2.3-2.2,4.7-4.2,7.2-6.1,4.6-3.3,7.2-7.7,8.6-13,2-8,1-15.8-1-23.7-.5-2-1.5-2.7-3.5-2.7s-5-.2-7.5-.5c-11.6-1.6-22-6.5-31.6-12.9-3.6-2.4-7-5-11.4-5.9-1.5-.3-2.9-1.5-4.3-2.5-4.1-3-8.7-4.8-13.8-5.3-5.4-.5-9.8-2.8-13.5-6.7-6.1-6.5-10.1-14-11.5-22.8-.7-4.4-1.2-8.9-1.6-13.3-.2-1.9-1-3-2.5-4-3.2-2.1-6.4-4.3-9.4-6.6-1.7-1.4-3.1-1.3-4.9-.3-7.2,4.2-14.5,8.2-21.6,12.6-9.4,5.9-17.4,13.3-23,23.1-2.3,4-5.2,7.7-7.6,11.7-1.6,2.7-3.1,5.5-4.3,8.4-1.9,4.8-1.2,9.4,1.7,13.8.9,1.3,4,2.9.4,4.9-.2.1.2,1.5.5,2.2,1.3,2.9,2.7,5.7,4.2,8.5,1.8,3.6,4.7,5,8.6,4.1,14.2-3.2,28.2-2.3,41.5,3.5,5.1,2.2,9.8,2.3,15,.8,3.3-.9,6.8-1.7,10.2-1.9,10-.5,20-.6,29.9-1,11-.4,21.8-2,32.7-3.8,4.8-.8,9.5-1.8,14.2-2.6.5,0,1.1.2,1.6.3-.5.4-.9,1-1.4,1.1-8.8,2.4-15.9,7.5-22.5,13.5-2.9,2.7-5.9,5.3-8.9,8.1-4.9,4.5-10.5,7.4-17.1,8.7-6.7,1.4-13.3.3-19.8-.8-10-1.8-20-3.3-30.2-2.4-7.7.7-15.2,1.9-22.2,5.2-3.4,1.6-3.4,2.5-.6,4.7.7.6,1.3,1.4,1.9,2.1h0c-1.8-.8-3.7-1.5-5.5-2.3-1.5-.7-2.8-.9-4.2.1-3.8,2.7-7.6,5.4-11.3,8.2-.5.4-.5,1.4-.7,2.1.8.2,1.5.5,2.3.5s1.3-.4,1.8-.7c5.2-2.9,10.4-2.3,15.3.4,4.2,2.3,8.2,5.1,12.2,7.6,2.2,1.4,2.7,1.3,3.6-1.1,1.1-2.9.8-3.8-1.7-6-1.7-1.5-3.2-3.2-4.8-4.8h0c.9.4,2,.6,2.7,1.2,3,2.5,6,4.5,10.2,2.9,1.1-.4,2.6.2,3.9.4,7.7,1.4,14.5,4.7,20.5,9.7,5.9,5,12.5,8.9,19.8,11.3,5.4,1.8,11,3,16.7,1.9,3.9-.7,7.8-.5,11.3.9,3.7,1.4,7.1,3.6,10.4,5.8,1.7,1.1,1.9,3.1,1.3,5s-2.3,2.1-4.1,2c-2,0-4,0-6-.2-2.8-.2-5.1.6-7.4,2.3-2.1,1.5-4.6,2.9-7.1,3.5-6.6,1.8-13.2,3.5-19.9,4.5-12,1.8-22.6-1.8-31.6-10,.2-.2.3-.4.5-.6,5.4,3.3,10.8,6.5,17.2,7.6,6.1,1.1,12.1,2.1,18.3.6,1.1-.3,2.2-.6,3.3-1,.3-.1.6-.7.7-1.1,0-.1-.4-.5-.7-.6-1.5-.6-3.1-1.2-4.7-1.8-9.4-3.8-17.4-9.7-24.6-16.7-.4-.4-.5-1.1-.8-1.7h0c2.3,1.6,4.9,2.8,6.9,4.7,5.6,5.6,12.5,8.8,19.7,11.3,1.2.4,2.6.7,3.8,1.2,5.2,2.4,10.1,2.3,15-1.3,4.2-3.1,9.3-3.2,14.4-3.2s3.9,1.3,4.1-1.2c.2-2.1-2.4-1.9-3.9-2.3-3.1-.7-6.2-1-9.3-1.4-1-.1-1.9-.4-2.9-.6-.3,0-.5-.4-.8-.6.3-.2.7-.6,1-.6,3,.2,5.9.4,8.9.6h1.4c-.4-.3-.8-.9-1.3-1-3.9-.9-7.7-1.7-11.6-2.5-.8-.2-1.7,0-2.5,0-14,1.2-25.6-4.4-36.1-12.9-5.2-4.2-10.6-8.1-17.4-9.1-2-.3-4-.5-5.9-.3-2.9.4-3.7,2.7-1.9,5.1.2.3.5.5.7.7.6.8,1.1,1.6,1.6,2.4-.8-.3-1.6-.7-2.5-.9-.6-.1-1.4,0-1.8.4-.3.3,0,1.3.3,1.7,2.3,2.7,4.6,5.2,6.9,7.9.3.4.5,1,.7,1.5-.6-.2-1.2-.2-1.8-.5-2.7-1.4-4.9-3.4-6.4-6.1-.5-.9-1-1.7-1.6-2.5-.2-.2-.8-.4-.8-.4-.3.4-.6.8-.6,1.2.2,1,.4,2,.8,2.9,2,3.8,4.1,7.6,6.1,11.4.4.7.7,1.5,1.1,2.2l-.3.3c-4.5-4-6.8-9.4-8.7-14.8-.8-2.3-1.7-4.3-3.5-5.9-4.7-4.1-10-7.1-16-8.9-2.8-.9-5.7-.8-8.1,1-1.1.8-2.3,2.2-2.4,3.5-.5,5.6-.7,11.3-1,16.9,0,1.9.7,2.9,2.8,3.3,4,.9,5.4,2.7,5.1,6.7-.1,1.9-.8,3.9-1.3,5.8-.7,2.4-.7,3.1,1.7,3.6,2.5.5,5.3.6,7.8.2,3.4-.6,6.7-2,10.1-2.8,3.7-.9,7.5-1.8,11.3-.5,3,1,3.9,2.9,2.6,5.8-1.3,2.9-1.5,5.7-1.2,8.8,0,.8.5,2,.1,2.4-2.9,3.5-3,8.4-5.5,11.8-2.2,3-4.1,6-5.9,9.2-1.8,3.2-1.1,4.6,2.4,6.1.5.2.9.4,1.4.6,13.8,5.7,25.6,14.2,34.9,25.9,3.4,4.3,6.5,8.8,9.6,13.4,2.9,4.3,6.2,8.2,10.6,11.1,3.6,2.4,7,5.1,10.4,7.8,5.7,4.4,10.8,9.4,14.8,15.5.9,1.3,2.2,2.4,3.3,3.6.5.6.9,1.3,1.4,1.9-.9-.2-2-.1-2.8-.5-.7-.3-1.2-1.1-1.8-1.7-6.2-5.6-13-10.4-20.9-13.4-3.6-1.3-7.1-2.8-10.6-4.4-9.8-4.3-19.3-9.1-27.2-16.5s-16.9-12.9-27-16.6c-6.1-2.2-12.4-3.9-18.6-5.6-1.9-.5-2.1,0-1.9,2,.8,7,2.8,13.6,7.5,19.1.9,1.1,1.4,2.6,2.2,3.9,2.8,4.3,5.5,8.7,8.5,12.9,3,4.1,6.6,8,9.7,12,5.3,6.9,10.7,13.8,13.4,22.1,2.5,7.7,7.2,14.7,7.7,23.1.1,1.7,1.1,2.5,2.9,2.8,3,.4,5.9.9,8.8,1.9,2.5.8,4.4.4,6.5-1.1,5.4-4,11.6-4.7,18.1-3.9,6.2.8,11.8,6.2,12.9,12.3.2,1.3.2,2.7-.2,3.9-.2.8-1.2,1.4-1.8,2.1-.5-.6-1.2-1.2-1.4-1.9-1.1-3.5-3.4-5.6-6.8-6.8-4.4-1.5-8.8-1.2-13.1.6-1.7.7-1.9,1.8-.3,2.9,3,2.1,6.1,4,9.2,6,1,.6,2.1,1.1,2.9,1.9.7.6.6,1.8-.5,1.8-2.1,0-4.3,0-6.4-.4-4-.7-8-.1-11.9.7-.5.1-1.3,1.2-1.2,1.6.8,2.7,6,5.9,8.9,5,8.7-2.7,17.8-4.6,24.7-11.3,2.5-2.4,5.3-2.6,8.2-.8,1.8,1.1,3.6,2.5,5,4,3,3.1,6.4,5.2,10.3,6.8,2.7,1.1,5.5,2.3,8.2,3.7,5.8,3.1,10.7,7.4,14.3,12.9,1.9,2.9,3.5,6.1,6.4,8.2.4.3.5,1.1.7,1.7-.7.2-1.6.7-2.2.5-4-1.3-7.9-.3-11.8.8-2.9.9-5.6,2.1-8.4,3.2-4.2,1.6-8.3,1.8-12.7.7-6.4-1.6-13-2.8-19.4-4.5-7.5-2-15.4-3-21.8-8-.3-.2-.8-.2-1.2-.2,0,.5-.1,1,0,1.4,3.9,10.9,8.6,21.3,17.4,29.3.6.6,1.2,1.1,1.8,1.8.2.2.3.8.2.8-.4.2-.9.4-1.2.3-.8-.2-1.6-.6-2.3-1-10.6-5.9-21.3-11.6-31.8-17.7-3.2-1.9-5.8-4.8-8.7-7.3l.3-.3c6.2,3.9,12.4,7.7,18.5,11.6.4.3.8.6,1.3.8,1.2.5,2.4,1,3.5,1.5-.5-1.1-1.1-2.1-1.5-3.2-2-4.7-4-9.4-6-14.2-1.5-3.7-2.9-7.4-4.7-11-3.2-6.6-8.3-11.5-14.6-15.2-3.2-1.9-3.3-1.7-4.7,2-2.6,7.1-2.6,14,1.8,20.4.2.4.2.9.3,1.4h0c-1.7-2.1-3.3-4.1-5-6.1-.3-.3-.9-.7-1.2-.6s-.6.7-.7,1.2c-1.1,7.5,1.4,13.8,6.3,19.2,2.6,2.8,5.6,5.2,8.3,7.9.4.4.8,1.3.6,1.7-.3.4-1.2.8-1.7.7-.9-.2-1.8-.8-2.7-1.3-4.9-3-9.1-6.8-12.6-11.2-5-6.2-9.7-12.7-14.7-18.9-2.7-3.3-4.2-7.1-5.2-11.2-.1-.6,0-1.3,0-1.9.4.4.9.8,1.3,1.3,2.5,3.5,4.9,7.1,7.4,10.6.3.4,1,.6,1.5.9,0-.6.1-1.3,0-1.9-.5-3.9-1.1-7.9-1.6-11.8,0-.3.1-.6.2-.9.4.2.9.3,1.1.6,2,3,2.4,6.5,2.7,10,.5,5.9,2.2,11.4,5.4,16.4.2.4.7.6,1.1,1,.2-.5.6-1.1.6-1.6-.3-6.5.4-13,2.1-19.3,1.6-6.1,3.5-12.1,5.2-18.2,2.7-9.2,2-18.1-2.4-26.6-.8-1.5-1.6-3-2.6-4.2-.5-.5-1.9-1-2.5-.7-4.7,2.8-9.6,5.5-12.3,10.6-3.3,6.2-5.8,12.7-6.6,19.7-.3,2.8-.6,5.6-1,8.4,0,.5-.3,1-.4,1.4-.2-.5-.5-1.1-.5-1.6-.6-7.4-.6-14.7,3-21.4,2.6-4.9,2.4-9.8.6-14.9-5-14.3-11.6-27.9-18.8-41.2-1.8-3.3-4.1-6.5-6.4-9.5-2.8-3.7-4.5-4-8.5-1.8-4.7,2.7-8.5,6.3-11.3,11-5.5,9.1-5.9,21.4,4.2,29.7,1.2,1,2.2,2.1,3.5,2.8,4.8,2.6,7.8,6.6,10.1,11.4,1.5,3.2,3,6.3,4.6,9.4,1.9,3.9,3.8,7.8,6,11.5,7.6,12.9,8.7,26.3,3.5,40.2-1,2.7-1.7,5.8-4.5,7.4h0c.6-1.5,1.1-3,1.8-4.5,5.8-12.2,5.7-24.4.5-36.7-1.4-3.2-3.1-6.3-5-9.2-2.7-4.2-5.6-8.2-7.1-13.1-.2-.8-.6-1.6-1.2-2.2-.9-.9-2.2-2.3-2.9-2.1-1.8.5-.6,2.1-.3,3.3,1.2,5.9,2.8,11.6,5.2,17.1,3.9,9.2,4.7,19,4,28.9,0,.6-.3,1.1-.5,1.7-.1-.6-.3-1.3-.4-1.9-.4-5.5-.4-11-1.4-16.4-.9-4.5-2.8-8.9-4.7-13.1-1.6-3.6-2.7-7.1-2.9-11-.2-5.1-.8-5.6-5.9-6.9-.8-.2-1.5-.6-2.3-.9-1.4-.5-2.3,0-2.7,1.4-.8,2.9-1.8,5.7-2,8.7-.3,4,.5,8.1-.2,12-1.4,8.1,1,15.8,1.8,23.6.6,6.6,1.2,13.2.4,19.9,0,.6.1,1.3.2,1.9.3-.5.8-1,1-1.6,2.1-6.1,2-12.5,1.2-18.7-.6-4.3-1.7-8.5-2.4-12.7-.2-1.1,0-2.3,0-3.5h-.1c2.5,4.7,3,9.8,4,14.7,2.6,12,0,23-6.7,33.2-3,4.6-5.6,9.4-8.3,14.2-.3.5-.1,1.2-.2,1.8.6,0,1.4.3,1.9,0,6.4-3,12.3-6.7,16.6-12.3,2.8-3.6,5.2-7.6,7.7-11.4h-.1v2.3c0,1.8,1,1.9,2.2,1.2,1.9-1.2,3.8-2.5,5.6-3.8.2.2.4.3.5.5-1.4,1.6-2.6,3.4-4.2,4.8-2.6,2.3-5.4,4.3-8.2,6.5-6.6,5.2-12.3,11.5-19.9,15.5h-4c-1.3-1.9-.7-3.6.3-5.5,2.6-5,5.3-10,7.4-15.2,4.3-10.8,4.7-22,3-33.3-.6-4.4-1.2-8.9-1.6-13.3-.4-4-.7-7.9-.9-11.9-.3-6.2.3-12.3,2.1-18.2,1.1-3.5.4-6.1-2-8.6-.9-1-1.7-2-2.5-3.1-7.2-8.5-9.4-18.1-6.3-28.9.9-3,2-6,2.9-9,.1-.4,0-.9.1-1.4-.4,0-1-.1-1.3,0-3.9,2.5-7.8,5-11.7,7.5-.8.5-1.4,1.5-2.2,2.1-.5.3-1.1.4-1.7.5,0-.6-.4-1.3-.2-1.8,1.4-2.8,2.5-5.8,4.3-8.3,2.5-3.5,5.6-6.6,8.1-10.1,1.4-2,2.5-4.3,3.3-6.6,1.2-3.6.2-6-3.1-8-2.9-1.8-6-2.8-9.4-2.8h-11.5c-10.1,0-18.5-3.5-24.2-12.2v-6c1.2-1.3,1.7-2.7,0-4v-7c7.6,3.4,15.2,6.6,22.8,10.1,3,1.4,5.8,3.2,8.7,4.8.2.1.2.8.2,1.2-.3,0-.6.1-.9,0-.3,0-.7-.1-.9-.3-8-4.6-17.2-6-25.4-10-1.9-.9-2.3-.6-2.5,1.5-.4,6.8,2.5,11.9,8.1,15.6,3.2,2.1,6.8,3.4,10.8,3.3h7c6.3-.2,12.6-.3,18.8,1.5,2.1.6,2.8-.2,2-2.3-3.7-9.5-10.4-16.1-19.7-20.1-8.1-3.5-16.3-6.8-24.4-10.1-1.5-.6-3-1.4-4.5-2.1v-5c1.2-2.8,2.4-5.6,3.5-8.5.6-1.5.9-3.1,1.3-4.7-1.3.7-2.5,1.4-3.8,2.1-.3.1-.6,0-1,0v-1c3.3-3.3,6.6-6.7,10-10,.3-.4.6-.7,1-1.1.2,0,.3,0,.5-.1-.1,0-.2.2-.3.2l-1,1c-3,.2-4.2,2.9-6.1,4.5-1.2,1-1.9,2.9-4,2.4v-3c3.8-3,7.5-5.9,11.2-8.9.6-.5,1.6-1.4,1.5-1.8-.8-2.7.7-4.4,2.5-6,.2-.2.3-.6.4-.9-.5-.1-1-.4-1.4-.3-3.8,1-7.6,2.1-11.5,3-.8.2-1.8,0-2.7-.1v-1c1.2-.7.6-1.3,0-2v-3c.8-.2,1.6-.3,2.3-.7.5-.2.9-.7,1.3-1.1-.4-.2-.8-.5-1.2-.7-.8-.3-1.6-.4-2.3-.6v-2c4.8-.4,9.6-.4,14.2,1.1.6.2,1.3.6,1.9.5.5,0,1-.7,1.5-1-.3-.3-.6-.6-1-.8-.4-.2-1-.3-1.5-.3-6.1-.4-11-3.2-15.1-7.5v-3c2.9,1.6,5.7,3.2,8.6,4.7,1.1.6,2.4.7,3.7,1.1-.6-1-1-2.2-1.8-3.1-4.2-4.7-6.2-10.1-5.6-16.5.3-3.6,0-7.3,0-11,.1-3.2-.6-5.9-3.2-8-.7-.6-1.2-1.5-1.8-2.3v-2c.3-.5.8-1.1.9-1.6,1.7-9,5.2-17.1,10.5-24.5,4.9-6.9,9.4-14.1,12.7-22,5.3-12.6,7.3-25.5,5.2-39-.5-3.4-.5-7-.5-10.5.3-19.4-2.3-38.4-5.6-57.4-2-11.9-4.4-23.8-6.6-35.7-.6-3.1-1.3-6.2-1.4-9.3-.2-5-1.7-9.5-4-13.8-3.9-7.4-5.4-15.3-6.4-23.4C4.3,12.1,3.1,6.2,2.1.3h3c1.1,11.2,4.2,21.8,8.6,32.1,3.2,7.6,7.1,15.1,8.7,23.3,1.1,5.9,1.9,11.8,2.5,17.7.9,9.4,1.4,18.9,2.4,28.3.5,4.8,1.2,9.6,2.4,14.2,1.7,6.7,2.5,13.4,2.4,20.2v21.5c0,7.6,1.1,14.9,3.7,22,2.2,6.1,2.4,12-2,17.4-1.4,1.7-.7,3.1.9,4.1,2.4,1.6,4.7,3.1,7.1,4.7,3.2,2.1,5.2,4.9,6.1,8.8,1.6,7.3,5,13.7,9.3,19.7.4.5.8,1.1,1.2,1.6,1,1.1,1.8,2.7,3.7,1.8,1.8-.9,1-2.6.9-4-.7-5.4-3-9.8-7.1-13.3-3.1-2.6-5.4-5.8-6.4-9.9-.2-.8-.5-1.6-1-2.3-3.2-4.4-3.9-9.6-4-14.7,0-7.9-1.7-15.5-2.8-23.3-1.1-8.7-2.4-17.4-3.6-26.2-2.5-17.6-3.9-35.3-7.3-52.8-1.7-9.1-2.3-18.2.6-27.1.7-2.2,0-3.4-1.3-4.9-6.2-7.3-9-15.9-9-25.3s-2.5-19.4-6.8-28.4c-.8-1.7-2.4-3.3-1.2-5.5h2c4,7.5,7.9,15,12.1,22.4,7.9,13.9,19.1,24,34.2,30,19.7,7.7,36.4,19.9,51.5,34.6.8.8,1.6,1.7,2.5,2.4.9.8,1.8.7,2.6-.2.5-.6,1-1.4,1.6-1.9,2.2-1.8,2.5-3.8,1.6-6.6-2.2-6.3-3.4-12.8-3.3-19.6.1-4.4.8-8.6,2.3-12.7,1.9-4.9,1.4-9.4-1-13.9-1-1.9-2-3.9-3.2-5.6-6.1-8.7-8.3-18.4-7.8-28.8h2c.4,3,.7,5.9,1.1,8.9,1.2,9.5,5,17.8,11.6,24.7.4.4,1.1.7,1.6,1,.3-.6.8-1.2.8-1.7-.2-1.8-.4-3.7-1.2-5.3-3.6-7.3-3.9-15.3-4.7-23.2v-2.5c0-.4.7-.8,1-.9.4,0,1.1.4,1.1.7.3,2,.4,3.9.6,5.9.1,1.2.2,2.3.3,3.5.5-1,.9-2,1.3-3,.3-.6.3-1.3.6-1.9.2-.4.7-.6,1-1,.3.5.8,1,.8,1.4-.3,3.4-.7,6.9-1,10.3h0l.3,1.7ZM31.4,293.6c-.3.3-.6.7-1,1l-1,1s-.2.1-.3.2c0-.1.1-.2.2-.3l1-1,1-1,1-1c1.3-.7,2.6-1.3,3.8-2.2,10.7-8.1,22.2-14.6,34.6-19.6.8-.3,1.5-.6,2.3-.8.3,0,.8.2.8.3,0,.4,0,1-.3,1.2-1,.6-2,1.1-3,1.7-6.9,3.7-13.9,7.2-20.5,11.3-5.1,3.1-9.6,7.1-14.3,10.7-.6.5-1,1.3-1.5,1.9.9.1,1.9.5,2.8.3,7.1-1.3,13.7-4.2,19.5-8.4,8.5-6.2,16.8-12.6,25.4-18.6,7.4-5.2,15.4-9.2,24.3-11.3,3.7-.9,7.5-1.2,11.3-1.8.5,0,.9-.7,1.4-1.1-.4-.1-.8-.4-1.3-.4-4.1-.4-8.3-1.1-12.4-1-5.1,0-10.2.8-15.4,1.2-.7,0-1.5-.2-2.2-.3.6-.6,1.2-1.6,1.9-1.8,2.6-.6,5.2-1.2,7.8-1.3,11.8-.5,23.6.6,35.1,3.6.5.1,1,0,1.4.1-.3-.5-.4-1.1-.8-1.4-10.6-7.8-22.2-13.3-35.4-15.2-26.7-3.9-49,5.3-68.1,23.5-3.2,3.1-6.3,6.4-9,10-3.3,4.4-5.7,9.5-5.1,15.3.3,2.7,1.3,5.4,2.4,8,.7,1.7,1.7,1.6,2.8-.1,3.3-5,6.2-10.3,10-14.9,3.5-4.2,7.8-7.7,11.8-11.4.2-.2.6-.1.9-.2,0,.4,0,.9-.2,1.1-4.5,4.7-9.3,9.1-13.4,14-2.7,3.1-4.5,6.9-6.6,10.5-.4.7-.3,1.8-.4,2.8.6-.5,1.3-.9,1.9-1.5,4.3-4.4,8.6-8.8,12.9-13.1,7.9-7.9,17.3-13.4,27.5-17.8.6-.3,1.4,0,2.1-.1-.5.4-.9.9-1.4,1.2-8.3,4.6-16.4,9.6-23.5,15.9-3.5,3-6.6,6.5-9.8,9.8-.3.4-.7.7-1,1h0ZM200.4,213.5c.2.2.3.4.5.6,0-.1,0-.3,0-.3s-.3-.1-.5-.1c-.3-.4-.6-.7-1-1-1.2-1.2-2.4-2.4-3.8-3.4-.2-.2-1.1.5-1.6.9.3.2.7.5,1,.6,1.5.7,3,1.3,4.4,1.9.3.3.7.6,1,1h0v-.2ZM163.3,136.6l-1-1-1-1-1-1c-.1-.2-.2-.4-.3-.6v.3l.4.2,1,1,1,1,1,1,1,1c1,.7,2,1.3,3,2,.3.3.6.6.9.8.1,0,.2-.3.3-.4-.4,0-.9-.2-1.3-.3-1-.7-2-1.3-3-2-.3-.3-.6-.7-1-1h0ZM192.4,135.5c.1.2.2.3.4.5v-.3c-.1,0-.2,0-.4-.2-.2-.2-.3-.5-.5-.7.2.2.4.4.6.6h-.1ZM410.4,177.7h-.9c-.3,0-.6.2-.9.3.3.1.7.3,1,.3s.4-.4.6-.6l.5-.5c0,0-.3,0-.4.1v.5h.1ZM399.4,182.6c-.4,0-.9.2-1.3.3,0,.2.2.3.4.5.3-.3.6-.6.9-.9.2-.1.4-.3.6-.4h-.4c0,.1,0,.3,0,.4h0ZM743.3,123.7c0-.2-.1-.3-.2-.4,0,0,.2.2.3.3.7.3,1.3.7,2,1,1.2,1,2.4,2.1,3.8,2.8,9.5,4.9,19.5,8.3,29.8,11.2.5,0,1,.4,1.6.6-.6,0-1.3.3-1.9.2-13.5-1.6-25.5-7-36.9-14.1-1.4-.9-2.8-1.9-4.2-2.7-.5-.3-1.1-.2-1.7-.3.2.6.3,1.3.7,1.7,4.8,5.2,10.6,9.1,16.5,12.8,1.2.7,2.2,1.8,3.3,2.7h0c-2.1-.9-4.5-1.5-6.3-2.8-4.4-3-8.5-6.4-12.7-9.6-.9-.7-1.7-1.6-2.7-2.3-1.3-.9-2.2-.5-2.4,1.1-.5,3.7-.3,7.3,1.7,10.6,2.5,4,5.6,7.4,9.6,10,14.4,9.3,30,14.2,47.3,12.8,12.9-1.1,24.6-5.8,34.4-14.4,4.3-3.8,8-8.4,11.9-12.7.3-.3.4-.8.6-1.2-.6,0-1.2,0-1.7.3-5.2,2.6-10.3,5.3-15.6,7.8-5.3,2.5-11.1,3.5-16.9,4.2-.8,0-1.7.2-2.5,0-.5,0-.9-.7-1.4-1,.4-.3.7-.7,1.1-.8,2.3-.4,4.7-.5,6.9-1.2,5.6-1.6,11.1-3.5,16.6-5.3.6-.2,1-.8,1.6-1.2-.6,0-1.2-.3-1.8-.3-4.8.3-9.6.7-14.4.9-6.1.2-11.9-1.1-17.6-3.1-8-2.9-15.9-5.9-23.8-8.9-6.3-2.3-12.7-3.9-19.5-3.1-.7,0-1.4.6-2.1,1,.6.5,1.1,1.2,1.7,1.6,6.8,3.5,14.1,5.8,21.6,7.5,4.2,1,8.4,1.8,12.6,2.7.4,0,.7.6,1.1.9-.5.2-.9.5-1.3.4-4-.5-8-.6-11.8-1.6-7.5-2-15-4.4-22.4-6.6-.9-.3-1.9-.5-2.8-.8-.7-.3-1.3-.6-2-.9h0v.2ZM783.6,67.3c-.1,0-.2-.3-.3-.4-.3.3-.6.5-.9.8l-1.4.4c.1,0,.3.2.3.2.3-.2.7-.5,1-.7.4,0,.9-.2,1.3-.3ZM907.3,49.6c.3-.7.6-1.3.9-2,2.9-1.9,3.1-4.9,3.2-7.8,0-2.6,0-5.1,2.9-6.2,0,0,0-1.2-.3-1.4-2.3-1.1-4-.3-4.4,2.2-.2,1.1,0,2.3-.2,3.5-.4,3.3-.8,6.6-1.2,9.8-.3.7-.6,1.4-1,2-.3.3-.7.7-1,1-1.4.6-2.1,1.5-1.9,3-.2.1-.4.2-.6.4h.3c0-.1.2-.3.2-.4.7-1,1.3-2,1.9-3,.3-.3.7-.7,1-1h.2ZM163.4,539.5c.1.5.2.9.3,1.4-.2-.4-.3-.8-.4-1.3-.3-.7-.7-1.3-1-2-.3-1-.6-2-.9-3-.3-.7-.7-1.4-1-2s-.7-1.3-1-1.9c0-.1-.1-.3-.2-.4,0,.1.2.2.3.3.3.6.7,1.3,1,1.9.3.7.7,1.4,1,2,.3,1,.6,2,1,3,.3.7.7,1.3,1,2h-.1ZM154.2,528.7c-.1-.5-.3-1-.4-1.5,0,.1-.2.3-.2.3.2.4.5.7.7,1.1.3.7.7,1.3,1,2l3,9c.1.2.2.5.4.7-.2-.2-.3-.4-.5-.6,0-3.4-.6-6.5-3-9-.3-.6-.7-1.3-1-2h0ZM375,117.9c.3.2.7.4,1,.6h.4c.4.3.7.7,1.1.8.3,0,.8-.2,1.1-.3-.3,0-.6-.3-.9-.3h-1.5c-.4-.3-.9-.5-1.3-.8h.1ZM212.3,208.7c-.7-.3-1.4-.7-2-1-1-.3-2-.7-3-1-1.8-1-3.6-2.1-5.5-3-15.3-7.1-28.6-16.9-38.6-30.6-8.4-11.6-13-24.6-13.8-38.9v-2c0-.3-.2-.6-.4-.9-.1.3-.3.6-.3.9,0,.5,0,1-.1,1.5-.4,7.7-.6,15.3,1.5,22.8.1.5.4,1,.4,1.4s-.2.9-.3,1.4c-.5-.3-1.2-.5-1.4-1-2.6-7.8-4-15.8-3.1-24,0-.8.2-1.7.3-2.5.3-1.5.1-2.7-1.5-3.2-1.7-.5-2.3.8-3,2-3.8,7.5-6.3,15.4-7,23.7-.7,7.3-.4,14.6,2.2,21.7,2.6,7,6.8,12.9,12.2,18,2.6,2.5,5.7,3.8,9.5,3.6,2.1,0,4.3.4,6.4.6.5,0,.9-.1,1.4-.2-.2-.4-.4-.9-.7-1.3-3.5-5-7.1-10-10.6-15.1-1.5-2.1-2-4.6-1.5-7.1.1-.8.8-1.6,1.2-2.4.4.6,1,1.2,1.3,1.9,1,2.5,1.8,5,2.8,7.5,1.9,5,4.5,9.6,8.4,13.4,1.6,1.6,2.9,3.6,4,5.6,2.2,4.1,5.7,6,10.2,6.1,4,.1,8,.4,11.9-.3,4.9-.8,9.6-.4,14.3.2,1,.3,2,.6,3,1,.7.3,1.4.7,2,1,1,.3,2,.7,3,1,5.4,4.3,11.7,6.7,18.4,7.9,1.3.2,2.7.1,4,0,.9-.1,1.8-.7,2.7-1.1-.8-.2-1.7-.5-2.5-.7-6.6-1.8-13.1-3.6-19.7-5.4-1-.3-1.9-.4-2.9-.6l-3-1h-.2ZM381.3,186.7c-.8,0-1.6-.2-2.4-.1-.4,0-.7.4-1.1.6.4.1.9.4,1.3.4.7-.2,1.4-.6,2.1-.9h1.5c.3,0,.6-.2,1-.3-.4-.1-.9-.4-1.2-.4s-.8.5-1.1.8h0ZM711.3,97.6c.7.3,1.4.6,2.1.9,1.3.7,2.7,1.3,4,2,.4.3.7.5,1.1.7,0,0,.2,0,.3-.2-.5,0-1-.3-1.5-.4-.6-2.1-1.7-3.1-3.9-2.1-.6-.4-1.3-.7-1.9-1.1-1-.7-1.9-1.4-2.9-2.1-.2-.7-1.2-1.9.7-1.7,1,0,2,.6,3,1,.2.2.3.4.5.6-.1-.3-.2-.5-.3-.8-1.7-2.8-3.3-5.7-5.2-8.4-1.4-2-2.8-1.9-4.3.2-2.9,4.2-3.3,8.9-2.2,13.8.4,1.8,1.1,3.5,1.6,5.2,2,6.8,7.8,9.8,15.1,9.3.3,0,.7-.3,1-.5-.5,0-1-.2-1.4-.3-.4-.2-.8-.4-1.3-.6.5-.3.9-.7,1.4-.7,2.8-.3,5.6-.3,8.4-.6,1,0,1.5-.6.2-1.3-.6-.3-1.4-.7-1.5-1.2-.8-4.2-4.3-4.4-7.4-5.5-4-1.3-7.6-3.4-10.5-6.5-.4-.5-.4-1.3-.7-2,.8.2,1.6.3,2.3.5,1.1.6,2.1,1.2,3.1,1.8h.2ZM386.3,180.5c-1.3.7-2.6,1.4-4,2.1h-1.4c-.3,0-.6.4-.9.6.3.1.6.4.9.3.5-.2,1-.6,1.5-.9,1.8.2,3.2-.3,4.1-1.9.5,0,1,0,1.3-.3.4-.3.7-.8,1-1.2-.5.1-1.1.2-1.6.4-.4.2-.6.7-.9,1h0ZM270.3,119.6c-.2,0-.4-.3-.5-.4,0,0,0,.3.2.3h.5c0,.5,0,1.1.2,1.4.6.6,1.4,1.1,2.1,1.5l.3-.3c-.5-.6-.9-1.3-1.5-1.8-.3-.3-.8-.5-1.2-.7h0ZM386.4,145.5c0,.2.3.3.4.5,0,0,0-.2,0-.2s-.3,0-.4,0c-1.3-1.8-2.6-3.6-4-5.4-.2-.2-.9,0-1.3,0,.2.4.2,1,.5,1.2,1.6,1.4,3.2,2.8,4.8,4.1h0ZM652.3,22.7l-.3-.5v.2s.2.1.3.2c3.3,2.5,6.7,4.7,11,5,.1.2.2.4.4.7-.2-.2-.3-.4-.4-.6-3-3.2-6.8-4.6-11-4.9h0ZM813.3,40.6c2.4-.9,3.1-3.2,3.8-5.3.2-.7-.2-2.1-.8-2.4-1.2-.6-2.4,0-2.6,1.4-.4,2.1-.3,4.2-.4,6.3-.3.3-.5.6-.8.9.2.1.3.2.5.4.1-.4.2-.8.3-1.2h0ZM158.3,481.6c5.3.2,10.6-.2,15.7,1.7.2,0,.6-.1.9-.2-.2-.3-.3-.7-.5-.8-5.2-2.4-10.5-3.9-16-.6-.5,0-.9.2-1.4.3.4-.1.9-.2,1.3-.4h0ZM773.2,72.5c-5.3,2.3-9.3,6.2-13.2,10.3-.2.2-.1.8-.2,1.2.3,0,.6-.2.8-.4,4.3-3.6,8.6-7.3,12.9-10.9.6-.3,1.2-.5,1.7-.8.3-.2.5-.5.7-.7-.4,0-.9-.2-1.2,0-.5.3-1,.8-1.4,1.2h0ZM178.2,185.7c0-.2-.2-.4-.3-.6v.3s.2.2.4.2c4.5,5,10.2,8.3,16,11.5.3.2.9,0,1.3,0,0-.3-.3-.6-.5-.8-5-4.2-10-8.2-16-10.8-.3-.1-.6,0-1,0h0v.2ZM207.3,210.5h0c-2.3-.4-4.7-1-7-1.5-.2,0-.7.2-.7.4,0,.3.2.6.4.9,3,3.2,6.8,5.3,10.7,7.1.7.3,1.7.5,2.4.2,1-.3,2-1.1,3-1.6-.7-.8-1.3-1.8-2.2-2.3-2.2-1.2-4.5-2.1-6.7-3.1h0ZM136.1,498.8c-1-.5-1.9-1.1-2.9-1.6-.6-.3-1.2-.5-1.9-.7,0,.8-.2,1.8.2,2.3,2.5,3.4,6.1,5.4,10.1,6.8.3,0,.8,0,.9-.2.1-.4.1-.8,0-1.2-.4-1.4-.9-2.7-1.2-4.1-.4-2.1-2.2-2.8-3.7-3.6-.6-.3-1.4-.2-2.2-.2.3.7.7,1.5,1,2.2-.1.1-.3.3-.4.4h0ZM64.3,409.6c2-.7,4-1.4,6-2.2,3.2-1.2,3.6-1.7,2.8-4.7-1-3.7-2.4-7.2-3.6-10.8-.3-.8-.8-1.4-1.3-2.1-.3-.4-.8-.5-1.2-.8,0,.4-.2.9,0,1.3.2.8.7,1.5,1,2.3,2.3,5,1.4,9.7-1.6,14.1-.6.9-1.3,1.9-1.9,2.8-.3.4-.6.7-.9,1.1-2.9,1.5-6,2.8-8.7,4.5-1.3.8-2.4,2.4-2.9,3.9-2.7,7.1-3.8,14.5-3,22,.5,4.7,2.5,8.9,5.4,12.7,2.4,3.2,4.7,6.4,7.2,9.5.5.7,1.5,1.3,2.4,1.4.7.1,1.6-.3,2.2-.8.2-.1-.2-1.2-.4-1.7-.3-.6-1.1-1.2-1-1.6,1-3.8-1.9-5.7-3.9-7.9-5-5.5-7.8-12.1-7.9-19.4-.1-7.1,2.1-13.7,7.2-19,1.1-1.2,2.3-2.4,3.4-3.6.3-.3.7-.6,1-1h-.3ZM736.3,54.6c.2,0,.4.1.5,0,7.2-4.7,14.4-9.4,21.6-14,4-2.3,8.1-4.5,12.1-6.9,2.2-1.3,4.1-3.1,6.1-4.6-2.3.2-4.6.2-6.9.5-4.3.6-8.6,1.1-12.7,2.2-2.1.6-4.2,2-5.8,3.5-1.7,1.5-2.8,3.7-4.2,5.6,2.2-.3,4.4-.6,6.7-.9,1.3-.2,2.6-.6,3.9-.7.3,0,.6.9.9,1.4-4.2,1-8.4,1.9-12.6,2.9-.8.2-1.7.6-2.1,1.2-2.5,3.2-4.9,6.5-7.4,9.8-.2.1-.5.3-.7.4.2-.2.4-.3.7-.5h-.1ZM362.4,189.7c-3.9,1-5.9,4.2-8.1,7-4.1,5.1-6.6,11.1-8.7,17.3-.9,2.8-1.6,5.7-2.3,8.6-.2.3-.5.7-.7,1,0,0,.3.3.5.4l.4-1.3c1.3-2,3-3.9,3.9-6.1,3.4-9,7.9-17.3,14-24.8.5-.6.7-1.4,1.1-2.2,0,0,.3-.2.4-.2l-.3.3h-.2ZM369.3,185.5c5.6-1.1,10.4-4.1,15.3-6.9,2.5-1.4,3.8-4.1,4.5-6.9s.2-4-1.5-5.5c-2.3-2.1-4.4-1.9-6.3.7-.5.7-.9,1.4-1.2,2.2-2.7,6.1-6.2,11.7-10.8,16.5,0,0-.3.2-.4.2,0-.1.2-.2.3-.4h.1ZM374.3,246.7c0-.2-.2-.4-.3-.5v.2s.2.1.3.2c2.2,2.7,4.5,5.3,6.6,8,8,10.3,12.7,21.7,12.4,34.9v.5c.3,1.1-.8,2.9,1.1,3.1.5,0,1.6-2,1.7-3.1,1.2-12.1-.3-23.8-6.5-34.6-5-8.8-5-8.9-15.5-8.7h.2ZM211.3,193.6c.9,1.9,2.4,3.7,2.5,5.7.5,5.7,4.8,7.5,8.8,9.8.2.1.6,0,.9,0-.2-.4-.4-.8-.6-1.1-1.2-1.1-2.6-2.1-3.7-3.3-.4-.4-.5-1.1-.8-1.7.8,0,1.6-.4,2.2-.1,6.7,2.9,13.4,5.8,20,8.8,3.8,1.7,7.7,2,11.7,1.5.4,0,.8-.5,1.2-.7-.3-.3-.5-.7-.8-.9-13.3-6-26.6-11.9-40-17.9-.4-.2-1-.1-1.5-.2-2.4-1.3-4.8-2.7-7.3-3.9-4.6-2.2-9.4-4.3-14-6.4-6.4-3-11.4-8-16.8-12.3-4-3.2-8.2-6.3-12.3-9.3-.3-.2-.8-.2-1.2-.3,0,.5-.2,1,0,1.4,1.8,4,4.1,7.6,7.9,10.1,8.3,5.5,16.5,11.3,24.8,16.7,4.5,2.9,8.5,6.4,11.5,10.8.6.8,1.1,1.7,1.8,2.3.4.4,1.2.8,1.7.6.5-.1,1-.9,1.1-1.4,0-1.5,0-3,0-4.5-.2-2.2.8-3.5,3-3.8h0ZM752.4,106.7h0c.1-.4.2-.8.4-1,1.3-1.2,2.8-2.4,4.1-3.6-2,.3-4.1.5-6.1.8-.7,0-1.3.5-1.9.5s-1.4-.5-2.1-.7c.4-.5.7-1.2,1.2-1.3,3.2-1,6.3-2,9.5-2.9.4,0,.8-.3,1.3-.5-.4-.3-.7-.8-1.1-.9-4.7-1.4-9.4-2.3-14.2-.7-5.8,1.9-10.8,5.1-15.7,8.6-.6.4-1.1,1.5-.9,2,.2.6,1.2,1.2,1.9,1.2,2.5,0,5,0,7,2.1.3.3,1.2,0,1.8-.2,1-.3,1.9-.8,2.8-.9.5,0,1.1.4,1.6.7-.3.3-.6.7-.9.9-1.7,1-3.6,1.7-5.2,2.9-.9.6-1.3,1.7-1.9,2.6.8.5,1.7,1,2.5,1.3,4.1,1.5,8.2.6,12.3-.6,4.5-1.3,8.7-3.4,11.9-6.9,2.5-2.7,5-5.4,7.4-8.1.3-.3.5-1.1.3-1.3-.4-.4-1.2-.9-1.6-.8-2.9,1.1-5.8,2.3-8.7,3.6-1.9.9-3.7,2.1-5.6,3.1h0ZM444.3,94.6c-6.9,3-14.4,3.2-21.8,3.9-5.7.5-10.7,2.6-15.2,6.1-.5,0-1,.3-1.5.4,0,0,.3.3.4.2.4-.2.8-.5,1.1-.7,3.6-.6,7.2-1.2,10.8-1.7.5,0,1.2.4,1.7.6-.4.4-.7,1.1-1.2,1.3-4.9,2.2-10,3.6-15.3,3.9-6.5.3-13,.4-19.4,1.1-3.8.4-7.5,1.4-11.1,2.4-1.3.3-1.3,1.5,0,2.1,8.9,4.7,18,7.9,27.9,2.5,5.7-3.1,11.8-5.1,18.2-6.6,7.6-1.8,14.8-4.9,21-10,1.9-1.6,4.1-2.9,4.5-5.7,0,0,.3,0,.5-.2,0,0-.2.2-.4.3h-.1ZM677.3,53.6c1,1.5,2.1,2.9,2.9,4.5,3.3,6.4,7.4,12.2,12.1,17.7.7.9,1.5,1.8,2.5,2.4,1.4.9,2.9.8,4.1-.5,1-1.2.9-2.5,0-3.7-.3-.4-.6-.8-1-1.1-6-5.8-9.7-13-13.8-20.1-3.5-6.1-7.4-11.9-12.6-16.7-4-3.7-8.5-6.4-13.6-8.2h-.9c-.1.4-.2,1,0,1.2,8.3,9.6,12.7,21.4,17.8,32.8,3.7,8.3,8.3,16,15.3,21.9,1.4,1.2,2.9,2.2,4.5,3.1.6.3,1.8.5,2.2,0,.5-.4.8-1.7.4-2.2-.9-1.7-1.9-3.5-3.3-4.7-7.5-6.3-12.7-14-15.9-23.2-.4-1.1-.4-2.3-.5-3.4h-.2ZM174.3,246.6h0c-2.6.9-5,2.2-7.7,2.9-8.7,2.2-17.6,3.4-26.7,3.1-.6,0-1.3.2-1.9.3.4.5.6,1.2,1.1,1.5,2.6,1.4,5.2,3.2,8,4,13.6,3.9,25.6,1.2,35.7-9,3.6-3.6,7.6-6.9,11.4-10.4.3-.3.4-.8.7-1.1-.5,0-1-.4-1.4-.2-13.2,3.5-26.7,2.4-40.2,3.2-4,.2-8,.6-11.9.9-.5,0-.9.3-1.4.4.5.2.9.4,1.4.4,4.3.4,8.6.8,12.9,1.3.5,0,.9.8,1.3,1.3-.4.2-.9.5-1.3.5-5.8-.5-11.6-1.2-17.4-1.5-2.6-.2-5.2.2-7.9.3-.3,0-.6.6-.8.9.3,0,.6.2,1,.3,6,.3,12,.5,17.9,1.1,2.3.2,5.5-1.5,6.7,2.3,0,.2,1.2.2,1.8.1,4.4-.7,8.8-1.4,13.3-2.1,1.8-.2,3.6-.2,5.5-.3h0v-.2ZM44.3,309.6c3.2.8,6.4,1.6,9.6,2.4,3.6.9,7.2,1.2,10.8.1.4-.1,1-.6,1-1s-.4-.9-.8-1.1c-7.1-3.9-13.6-8.9-22.1-10-6.4-.8-12.2.6-18,2.6-.6.2-1.3.6-1.7,1-.5.7-1.1,1.6-1.1,2.5s1.2,1.1,1.9,1.3c2.7.7,5.5,1.3,8.2,1.9.4,0,.9.7.8,1,0,.4-.6,1-.9.9-3-.2-5.3,1.1-7.7,2.9-1.5,1.1-3.8.9-5.7,1.4-.7.2-1.8.8-1.8,1.4s.4,1.8.9,2.6c.3.5,1.1.8,1.7.9,7,1.4,13.8,3.8,21.1,3.3,5-.4,9.3-2.3,13.5-4.8.4-.2.6-.8.8-1.1-.4-.2-.9-.5-1.3-.5-4-.2-8-.3-11.9-.6-.6,0-1.2-.5-1.7-.7.6-.5,1.2-1.3,1.9-1.4,2.1-.3,4.3-.2,6.5-.4,1.5,0,2.9-.2,4.4-.3-1.4-.8-2.8-1.5-4.2-2.3-1.4-.8-2.8-1.5-4.1-2.2h0v.2ZM727.3,94.6c-.6,1.7-1.3,3.4-1.7,5.2-.4,1.4.7,2.3,2,1.8,1.2-.5,2.3-1.3,3.4-2,3.4-2.1,6.7-4.4,10.2-6.2,2.5-1.3,5.2-2.1,8-2.6,2.4-.5,4-1.4,4.4-4,.6-3.9,3.1-6.5,6.1-8.8,1.8-1.4,3.8-2.7,5.6-4.2,2.7-2.2,3-4.8.5-7.2-1.1-1.1-2.7-1.8-4.2-2.6-2.1-1.1-4.3-1.9-6.2-3-1.2-.7-2-1.1-2.9.2-5.4,7-13.3,11-19.9,16.6-3.1,2.7-6.4,5.4-9,8.6-2.9,3.5-3.8,7.7-1.7,12.1.5,1.1,1.4,1.4,2.2.2.9-1.5,1.1-3.6,3.4-3.8h0l-.2-.3ZM355.4,126.7c-1.4.3-2.8.8-4.3,1-.7,0-1.4-.2-2.1-.3.3-.6.4-1.3.8-1.6,2.9-1.9,5.9-3.8,8.9-5.5,1.4-.8,3.1-1.2,4.6-1.9.4-.2.8-.7.8-1.1s-.6-.8-1-.9c-4.4-1.4-8.9-1.3-13.3-.3-6.3,1.5-11.6,4.9-15.8,9.9-7.6,9.1-11.4,19.5-10.6,31.4.2,3.3,1.3,6.5,2.1,9.7,0,.5.8.9,1.3,1.4.3-.4.6-.8.8-1.2.9-2.3,1.6-4.7,2.6-7,2-4.6,4.2-9,6.4-13.5.3-.6,1-.9,1.6-1.4,0,.8,0,1.6-.2,2.3-1,2.5-2.4,4.8-3.3,7.3-1.3,3.4-2.4,6.9-3.4,10.4-.4,1.3,0,2.2,1.9,1.6,2.5-.7,4.2-2,4.7-4.6.1-.6.3-1.3.4-1.9,1.1-5.5,3.9-9.7,9.4-11.3,4.6-1.4,6.6-4.3,7.4-8.8,1-5.6,4.2-10.1,8.1-14.1.3-.3.4-.7.6-1.1-.5,0-1,0-1.4,0-3.4,2-6.8,4.1-10.2,6.2-1,.6-1.9,1.3-3,1.8-.5.2-1.2,0-1.7-.2.2-.5.2-1.1.5-1.3,1.8-1.2,3.6-2.4,5.4-3.6.7-.5,1.3-1,1.9-1.5.3,0,.5-.2.8-.4-.2.2-.5.3-.7.5h0ZM171.3,132.7l-.2-.4c.1,0,.2.2.3.3.2,2.7,2.4,3.8,4.2,5.2,3.9,3,8.4,4.7,13,6.1,3.3,1,5.9,2.4,7.2,6.1.6,1.7,2.9,3.4,4.7,4.1,5.4,2,11,3.8,16.6,5.2,3.2.8,6.2,1,6.7,5.2.2,1.7,2.6,1.8,3.3.1.7-1.6,1-3.4,1-5.2s-1.2-1.4-2-1.8c-1.2-.5-2.6-.7-3.8-1.2-.3,0-.7-.8-.7-1.1s.7-.7,1.1-.8c.6,0,1.3,0,2,0,1.6,0,3.3.6,4.1-1.7.2-.5,1.4-.7,2.1-1.2.8-.7,2-1.4,2.2-2.3.3-2.2,1.5-3.6,2.9-5,3-3,3-4,.5-7.7q-1.4-2,1.2-2.9c3.1-1.1,3.6-4.1,5.1-6.4,0,0-.8-1.2-1.2-1.2-3.1,0-5.2-2.1-7.8-2.9-3.3-1.1-6.7-2.1-10.1-2.2-4.7,0-8.9-1-12.5-3.9-.4-.3-.9-.5-1.3-.7-.2.6-.4,1.2-.5,1.8v1.5c-.4,4.2,1.1,6.7,5.4,8.2,6.2,2.2,10.5,6.8,14.4,11.9.4.5.3,1.4.4,2.2-.9,0-1.9.3-2.7,0-.7-.2-1.3-1-1.9-1.6-7.1-6.8-16.1-9.7-25.2-12.4-.8-.2-1.6-.3-2.5-.3s-1,.2-1.4.3c.3.4.4.9.8,1.2,1.1.7,2.4,1.2,3.5,1.8,3.9,2.3,7.7,4.5,11.5,6.9.7.4,1,1.5,1.5,2.2-.9,0-2,0-2.7-.2-2.7-1.2-5.3-2.6-8-4-2.5-1.3-5-2.6-7.5-3.9-.2,0-.6,0-.9,0,.1.3.1.8.4,1,8.2,6.6,16.6,12.8,27.2,15,1.4.3,4.3.2,4,2-.5,2.7-3,1-4.6.7-8.6-1.7-17.3-3.3-24.7-8.7-2.9-2.1-6.1-3.3-10.2-3-4.1.3-8-1.8-11.4-4.4-1-.8-2.2-1.4-3.4-2.1h0v.2ZM496.4,173.6h-.1c.7.2,1.4.8,2.1.7.9-.1,1.9-.6,2.7-1.2,14.9-12.7,20.1-27.9,12-47.3-.3-.8-.8-1.5-1.2-2.2-.2-.2-.6-.3-.9-.4-.1.3-.3.5-.3.8-.4,3-.6,5.9-1.2,8.9-1.3,6.6-4.1,12.6-7.6,18.3-.3.5-1,.8-1.5,1.2h.1c.7-1.7,1.3-3.7,2.3-5.3,4.7-8.2,5.3-17.3,5.7-26.5.1-2.3-.7-4.4-2.3-5.9-4.1-3.6-6.1-8.2-7.3-13.3-.2-.8-.4-1.6-.7-2.4-.2-.4-.7-.7-1-1-.3.3-.8.6-.9,1-.2,2.1-.5,4.2-.4,6.3,0,1.8.8,3.6,1,5.4.1.7-.2,1.5-.3,2.3-.4-.6-.9-1.2-1.1-1.8-.6-1.6-1.1-3.3-1.7-5-.1,1.8-.3,3.6-.3,5.4s.3,2,.5,2.9c3.2,13.1,2.1,25.7-4.4,37.7-3.1,5.7-3.7,11.6-2.1,17.8.6,2.4,2,3.4,3.8,2.1,2.2-1.7,3.3-1.1,4.3,1,.1.2.6.3.9.4h-.1ZM210.4,79.7h0c-7.2,4-14.3,8.1-21.4,12.2-1.1.6-2.1,1.4-3.2,2.1,1.4,0,2.8.4,4.2.3,1.1,0,2.3-.7,3.4-.6,1.3,0,3.9,2.6,2.3-1.6,0-.2.6-.7,1-.9,10.6-5.2,21.1-10.5,31.9-15.3,7-3.2,14.5-4.9,22.2-5.2.6,0,1.3-.2,1.9-.4-.5-.3-1-.8-1.5-1-7.7-3.1-15.6-4.2-23.9-3.2-11.2,1.3-21.7,4.8-31.9,9.5-.9.4-1.8.7-2.8,1-.2,0-.6-.2-.9-.3.1-.3.2-.7.4-.8,1.1-.7,2.3-1.3,3.5-1.9,8.9-4.1,18.2-7.2,27.9-9,.4,0,.8-.4,1.2-.6-.4-.2-.9-.5-1.3-.5-22.7-.9-43.6,3.7-61.1,19.3-4,3.6-3.9,4.5,1.1,6.6.6.3,1.3.4,1.9.7,2.5,1.4,4.3,1.1,6.6-.9,2.8-2.5,6.3-4.1,9.6-6.1.3-.2.9,0,1.4,0-.2.4-.2,1-.5,1.2-1.9,1.6-3.8,3.2-6,4.5-1.8,1.1-1.5,2.4-.6,3.6.8,1,1.8,2,2.9,2.6.7.3,2.3.2,2.6-.4,2.5-3.6,6.6-5,10.2-7,4.8-2.6,9.9-4.8,14.8-7.1,1.3-.6,2.8-.7,4.3-1h0l-.2.2ZM179.4,503.6c-1.5.6-3,1.2-4.5,1.9-3.8,1.7-7.4,3.8-11.3,5.1-6.9,2.3-11.4.6-15.7-5.1-.4-.5-.8-1-1.2-1.5,0,.8-.1,1.6.1,2.3,1.8,4.7,5.1,8.2,9.7,10.3,2.5,1.1,4.6,2.5,5.9,5.1,1.3,2.6,3.6,3.2,6.4,2.6,1.6-.4,3.3-.7,4.9-1,.9-.1,2.1-1,2.4.5,0,.4-1.3,1.1-2.1,1.6-.4.2-1,.2-1.4.4-.2,0-.4.5-.4.7,0,.3.3.6.6.7,4.3,1,8.7,2.8,13.1.2,3.2-1.9,6.1-.2,9.2.2.2,0,.3.3.5.5,0,0-.3.2-.4.2-.3,0-.7,0-1,.1-2.1.6-4.7.3-6.2,2.4,2.1.9,4.2,1.9,6.4,2.6,5.9,1.7,11.8,1.6,17.8.3,5-1.1,10-2.3,15-3.5,4.1-1,4.3-1.6,1.6-5.2-3.9-5.3-8.7-9.6-14.1-13.3-5.2-3.4-10.4-3.2-15,.9-2.5,2.2-4.7,4.7-7.1,7-1.2,1.1-2.7,1.8-4,2.6h0c4-4.9,8.1-10,12.1-15,.3-.4.4-.9.7-1.3-.6,0-1.3-.4-1.8-.2-2.8,1.3-5.6,2.8-8.5,4.1-.6.3-1.5,0-2.2,0,.2-.6.3-1.4.7-1.7,1.6-1.4,3.4-2.6,5.1-4,2.3-1.8,2.2-3.6-.2-5.1-1.9-1.2-3.9-1.1-5.6.2-1.9,1.4-3.5,3.1-5.3,4.5-3.1,2.5-6.3,4.9-9.5,7.2-.4.3-1.2,0-1.8,0,.2-.6.3-1.3.7-1.6,2.1-2,4.3-4,6.5-6,.2-.1.5-.2.7-.4-.2.1-.4.3-.6.4h0l-.2.3ZM291.6,161.3c2.9,2.3,5.8,4.6,8.8,6.8.9.6,2,1,2.9,1.4.4.3.7.6,1.1.9,2.7,1.5,5.5,2.9,8.2,4.5,1.6.9,1.1-2.8,3.3-1.3.9.6,2.9,0,4.2-.3,1.4-.4,1.1-1.3,0-2.1-2.1-1.6-4.3-3.1-6.3-4.9-3.7-3.2-6.4-7.2-8.4-11.7-.4-.9-.9-1.8-1.4-2.6-.2-.3-1-.4-1.2-.3-.3.2-.5.9-.4,1.2.7,1.7,1.6,3.3,2.4,4.9.8,1.7,2.5,3,2,5.2-1.3-1.5-2.9-2.9-3.8-4.6-1.6-3.1-3.3-6.2-4.2-9.5-1.4-4.8-4.2-8.2-8.3-10.7-5.5-3.5-11-6.8-16.4-10.5-7.2-5-12.2-11.6-14.3-20.3-.2-.8-.4-1.6-.7-2.4-.2-.4-.6-.7-.9-1.1-.2.5-.7,1-.7,1.5-.8,10.4.4,20.6,4.7,30.2,9.2,20.5,24.2,35.5,44,45.9,1,.6,2.1,1.1,3.2,1.4,1.4.5,2.5.3,3.4-1.2.8-1.5.4-2.6-.7-3.5-1-.9-2.1-1.6-3.3-2.2-6.8-3.8-12.4-8.8-17.6-14.5.2-.2.3-.3.5-.5h0v.3ZM326.4,183.6c1.4-.7,2.9-1.4,4.3-2.1,1.3-.7,2.6-1.4,3.9-2,.5-.2,1.1.1,1.7.2-.2.4-.3.9-.6,1.2-1,.9-2,1.7-3,2.6-.9.7-1.8,1.4-2.7,2.2-6.4,6.1-7,13.3-1.6,20.3.8,1.1,1.7,2,2.5,3.1,2.1,3,4.1,6,4.7,9.7.3,1.9,1.5,1.2,2.6.6.1.1.3.3.4.4-2,4.1-5.9,5-9.8,5.7-1.3.2-2.7.1-4,.3-.4,0-.9.6-.9,1s.5.8.9,1c4.3,1.9,10.6-.1,14.1-4.7,3.1-4,5.1-8.6,6.4-13.4,1.5-5.9,3.9-11.1,7.8-16,3.1-3.9,6.7-6.9,10.9-9.3,4.5-2.6,8.8-5.6,11.2-10.4,1.4-2.8,2.1-5.9,3.1-8.8,0-.3,0-.9-.2-.9-.4,0-.9,0-1.2.2-.5.4-.8,1-1.3,1.5-3.1,3.4-7.6,4.8-11.9,1.2-1.8-1.5-3.2-2.1-5.2-.5-.7.6-2.3.7-3.2.3-4.4-1.8-8.8-1.6-13.2-.4-7.4,2.1-14.6,4.6-20.8,9.3-2.3,1.8-4,4.3-5.8,6.7-.6.7-.7,1.9-.9,2.8,0,.6.2,1.3.4,1.9.5-.3,1.1-.4,1.5-.8,2.6-2.5,5.8-3.7,9.2-4.8.4-.1.9.4,1.4.6-.2.4-.4.9-.6,1.3-2.4,1.4-4.7,2.7-7,4.2-.4.2-.7,1.2-.5,1.5.3.5,1.2,1,1.6.8,1-.3,2.2-.8,2.9-1.6,1.2-1.5,2.1-3.2,3.1-4.9h-.2ZM13.4,339.5c0-.3,0-.8-.2-.9-.4-.3-1-.4-1.4-.6.2.5.3,1,.6,1.5.1.2.6,0,.9.1-.2,2-2.8,3.1-1.9,5.7,1.1,3,2.4,5.9,4.7,8.1,1.1,1,2.3,2,3.6,2.7,12.7,6.5,25.5,13.1,39.5,16.4,9.5,2.2,19.1,4.4,28.7,6.1,15.7,2.8,29,10.2,41.2,20.1,4.5,3.7,9,7.5,13.8,10.7s10.2,5.6,15.3,8.4c.5.3,1.2,0,1.8,0-.2-.6-.4-1.2-.8-1.7-.4-.5-.9-1-1.4-1.4-5.6-4.7-11-9.7-16.9-14s-12.2-8-18.5-11.7c-6.2-3.6-12.6-6.8-18.8-10.3-1.7-1-3-2.6-4.5-3.9,1.8.7,3.7,1.2,5.4,2.1,6.8,3.4,13.6,6.9,20.5,10.4,8.2,4.1,15.8,9.3,22.9,15.1.3.3.8.4,1.2.5,0-.4,0-1-.1-1.3-9.1-17.1-21.3-31-40.7-36.8-2-.6-3.9-.8-5.8.2-2.8,1.4-5.7,1.3-8.7.5-6.3-1.6-12.6-2.9-18.9-4.4-2.1-.5-3.2.4-3.9,2.1-.3.7-.3,1.6-.6,2.4-1.1,2.5-3.4,3.1-5.7,1.6-.6-.4-1-.9-1.5-1.4-5.2-6-12.3-8.9-19.6-11.4-5.8-2-11.5-4.2-17.3-6.4-4.9-1.9-8.7-5.4-12.7-8.6h-.2ZM84.4,116.6c-1.2-.8-2.6-1.3-3.6-2.3-12.5-12.4-25-24.9-37.5-37.3-1.2-1.2-2.7-2.2-4.1-3.3-.6,1.6-1.5,3.2-1.9,4.9-2.5,10.2-1.9,20.4-.5,30.7,1.2,9.2,2.2,18.5,3.6,27.7,2.2,14.6,4.7,29.2,7,43.7,0,.4.4.7.6,1.1.3-.4.7-.7.9-1.1,1.3-3.4,2.5-6.9,3.9-10.2,7.6-18.6,19.8-33.3,36.5-44.3,2.3-1.6,2.3-1.5.5-3.5-1.2-1.3-2.3-2.7-3.5-4,1.6,1.1,3.4,2,4.7,3.3,1.8,1.7,3.8,2.3,5.9,1.4,2.7-1.1,5.6-2.2,7.9-4,2.6-2,2.4-3.3,0-5.6-6-5.6-12-11-18-16.6-10.4-9.8-21.3-19.1-30.7-29.9-1.6-1.9-3.1-4-6.2-3.5-3.8.7-6.9,2.4-9.1,5.6-1.1,1.7,0,2.8,1,3.9,2.7,2.7,5.6,5.2,8.3,7.9,10.9,11,21.7,22.1,32.5,33.2.7.7,1.1,1.6,1.7,2.4h0v-.2ZM488,216.1c1.9-.6,4.4-1.2,6.6-2.1,10.1-4.2,20.5-6.7,31.5-6.5,8.5.1,16.4,2.3,23.4,7.3,5.6,3.9,11.1,7.9,16.6,11.9,5.8,4.2,12.2,6.7,19.4,7,2.4.1,4.9,1,7.3,1.5,1.6.3,2.6-.8,2.2-2.4-.6-2.7-2.6-3.9-5.1-2.5-2.7,1.5-5.3,1.4-8.1.6-5-1.4-9.6-3.6-13.8-6.7-7.3-5.3-14.6-10.5-22.1-15.4-3-2-6.5-3.4-9.9-4.7-5.1-1.9-10.4-2.5-15.5,0-.1,0-.3.2-.5.2h-3.3c.8-.8,1.4-1.9,2.4-2.3,8.5-3.8,17.3-7.1,25.5-11.4,16.9-9,33.6-18.4,50.2-27.9,19.5-11.1,38.9-22.4,59.5-31.5,4.2-1.8,8.3-3,13-1.9,3.7.9,7.3-.3,10.4-2.5,5.7-4.1,11.9-7.3,18.3-10.1,2-.9,4-1.8,4.9-3.9.3-.8,0-1.8,0-2.7-.8,0-1.6,0-2.3,0-.9.3-1.7,1.1-2.6,1.5-4.7,2.1-9.4,4.2-14.1,6.3-.9.4-1.9.7-2.9.8-4.3.7-6.2-.8-5.7-5.1.3-2.8,1-5.6,2.2-8.1,2.9-6,6.2-11.7,9.3-17.6.6-1.1,1.3-2.4,1.3-3.6s-.8-1.7-1.5-2.3c-.2-.2-1.5.6-1.9,1.2-2.5,4.1-5.2,8.2-7.3,12.5-3.5,7.7-6.8,15.5-9.8,23.5-1,2.6-2.3,4.2-4.7,5.4-18.6,9.2-37.2,18.6-55.9,27.7-3.4,1.7-7,3.1-10.6,4.3-2.6.9-4.2,2.4-5.1,5-.5,1.3-1.4,2.6-2.4,3.6s-1.7.4-2.3,0c-.5-.3-1-1.6-.8-2,2.4-4.4.9-8.5-.9-12.4-2.7-5.8-1-10.7,2.9-15.1,1.8-2,3.9-3.6,5.9-5.4s2-1.8,2.8-2.8c.3-.4.2-1.2,0-1.8s-.9-.6-1.3-.6c-1.3.3-2.6.7-3.8,1.3-5.9,2.7-9.8,7.4-12.3,13.2-1.5,3.6-2.2,7.6-3.3,11.4-.5,1.7-.4,3.2.5,4.8,1.4,2.2.8,4.4-.1,6.7-2.7,6.4-7.6,11-13.1,14.8-8.2,5.7-16.9,10.6-26.1,14.5-14.7,6.2-29.5,12.3-44.2,18.4-2.8,1.1-5.6,2-8.4,3.1-.3.1-.6.6-.8.9,0,0,.4.5.7.6,1.6.4,3.2.7,5.4,1.1h.3ZM51.9,183.9c.5,2.9.7,4.6,1,6.4,2.3-.7,2.1-3.1,3.1-4.6.2-.3.2-.7.3-.9.4-.6.9-1.1,1.4-1.7,0,.6,0,1.3-.2,1.9-.6,1.9-1.4,3.7-1.8,5.7-.9,4-1.5,8.1-2.2,12.2,0,.4.3.9.5,1.4.5-.4,1.1-.6,1.3-1.1,3.8-6.8,7.2-13.9,11.4-20.4,7-10.8,16.3-19.2,27.2-26,8.4-5.3,16.6-11.1,24.8-16.8,1.8-1.2,3.4-2.7,4.9-4.2,1.4-1.4,2.6-3.2,3.8-4.7-2.6-.3-5.4-1.5-7.7-.8-5.3,1.7-10.6,2.7-15.9,4-3.6.9-6.8,3.4-10.2,5.2-2.2,1.1-4.4,2.1-6.5,3.2.8-2.9,3.5-3.5,5.6-4.8,8.3-5.6,17.2-10.2,26.4-14.1,1-.4,1.8-1.2,2.8-1.7-1.1-.3-2.2-.9-3.3-1-5.9-.5-11.6.7-17.1,2.5-9,3-16.7,8.3-23.7,14.6-10.1,9.2-18.5,19.7-22.9,32.8-1.5,4.5-2.1,9.3-2.9,13.1h0v-.2ZM165.3,127.5c4.8-.5,9.5-1.1,13.8-3.7,1.9-1.1,2.6-2.4,2-4.5-.3-1.3-.7-2.6-1-3.9-2.9-12.4-10-20.8-22.5-24.2-4.2-1.1-8.3-2.5-12.4-3.8-5-1.5-9.6-3.6-13.4-7.4-2.1-2.1-2.5-1.8-3.6.8-1.3,3-2.9,5.9-4.4,8.9-.8,1.6-.4,2.6,1.4,2.7,8.2.2,14.8,4.8,21.9,7.8.4.2.6.7.8,1.1-.5,0-1,.3-1.4.2-5.9-1.7-11.8-3.5-17.7-5.2-.6-.2-1.3-.4-1.9-.5-2.3-.4-4.6-.7-6.9-1-.5,2-1,4-1.4,6.1-.3,1.5-1.1,3.4-.6,4.6.4.9,2.6,1,4,1.5,2.1.7,4.1,1.4,6.2,2.1,2.7.9,5.5,1.5,6.8,4.5.3.7,2.3.5,1.4,1.8-.3.5-1.9.2-2.8,0-4.9-1-9.7-2.3-14.5-3.3-3.8-.7-8,1.5-9.5,4.8-.4.9-.2,1.6.9,1.7h1c5.9-2,11.5,0,17.1,1.4,8.5,2.1,17.1,4.3,25.7,6.2,3.6.8,7.3.9,11,1.3h0ZM447.4,210.4c-16-.1-28.6,6.4-38.2,19-.6.8-1.2,1.6-1.7,2.5-.4.7-.5,1.5-.8,2.2.8,0,1.6.3,2.3.2,3.8-1,7.6-2.3,11.5-3.1,12.3-2.6,24.7-5,37.1-7.4,1.3-.2,2.6,0,3.9.1-1.2.5-2.4,1.3-3.7,1.6-7.8,1.7-15.6,3.3-23.4,5-.5.1-1,.5-1.5.7.5.2.9.3,1.4.5,3.5,1.4,6.4,4.4,10.6,3.5.2,0,.7.5.6.6-.2.4-.5.9-.9,1-2.8.8-5.5,1.2-8.2-.3-.7-.4-1.5-.7-2.2-.8-.5,0-1.1.5-1.6.8.3.4.5.9.9,1,1.1.4,2.2.8,3.3.9,8,.5,16.1.2,23.6-2.9,10.4-4.3,20.7-9.1,31-13.7.9-.4,1.5-1.2,2.3-1.8-1-.5-1.9-1.2-2.9-1.5-1.9-.6-3.8-1.1-5.8-1.5-9.7-2-19.5-4-29.3-5.9-2.8-.5-5.6-.6-8.4-.8h0ZM45.1,328.7c-7.2.5-13.3-1.7-19.5-3.5-1.6-.5-3.1-1.1-4.7-1.5-2.8-.6-3.3,0-3,2.9,0,.5-.2,1.1-.3,1.7-.4-.2-.9-.3-1.3-.6-.9-.8-1.5-1.2-2,.4-1.4,5.3.5,9.5,4.3,12.9,3.5,3.1,7.7,5.1,12.2,6.6s12,3.9,17.8,6.3c3.8,1.5,7.4,3.7,11,5.7,1.1.6,1.9,1,3,0,2.3-2.3,4.9-4.4,7.3-6.7,1.4-1.4,2.7-2.9,3.5-4.6,1.4-3,.6-5.1-2.5-6.4-2.9-1.2-5.9-2.2-8.9-3.1-3.5-1-6.7-2.5-8-6.1-1.3-3.5-3.5-4.6-6.9-3.9-.8.2-1.7,0-1.9,0h-.1ZM596.5,118.5c.3,1,.6,2.8,1.4,4.5,1.3,2.7,4,3.7,7.1,2.9,4.5-1.1,8.1-3.8,11.8-6.3,1.2-.8,2.5-1.6,3.9-2.1.6-.2,1.4.3,2.2.5-.4.5-.7,1.2-1.1,1.6-3.6,3-7.2,5.8-10.8,8.8-.5.4-.8,1.1-1.1,1.6.7.2,1.5.5,2.2.4,6.9-1.4,13.4-3.9,19.4-7.5,8.8-5.2,17-11.2,22.8-19.8,1.4-2,2.3-4.4,3.2-6.7.2-.6-.2-1.5-.4-2.2-.5.4-1.1.8-1.4,1.3-4.7,6.7-11.1,10.9-19,12.7-.6,0-1.3.3-1.9.4-.5,0-.9-.2-1.4-.3.2-.4.4-.9.7-1.1,1-.6,2-1.1,3-1.7,4.7-2.6,8.7-6.1,12.3-10,.5-.6.7-1.4,1.1-2.1-.8-.2-1.6-.6-2.3-.4-10.5,2.5-21,5-31.4,7.9-5.5,1.5-10.6,3.9-14.9,7.7-3.3,2.8-5.1,6.1-5.2,10.1h0l-.2-.2ZM951.2,59.6h-1.2c-1.1.2-2.2.6-3.2.9.8.7,1.5,1.5,2.4,2.1,4.4,2.6,7.9,6.1,10.3,10.6.3.6,0,1.4,0,2.2-.7-.3-1.6-.5-2-1.1-2.6-3.8-6-6.7-10.2-8.6-2.5-1.2-5.1-1.4-7.7,0-3,1.5-3.7,2.6-2.8,5.9,5.2,19.9,17.3,32.9,37.6,37.8.6.2,1.3.3,2,.3,1.8,0,3.6.2,5.4.2-1.1-1.4-2.1-2.8-3.3-4.1-4.5-4.6-6.9-10-7.3-16.5-.5-7.9-2.5-15.5-7.1-22-3-4.3-6.8-7.9-12.9-7.6h0ZM13.2,273.8v5c0,.4.3.8.5,1.2.3-.4.7-.7.9-1.1,8.6-16.9,22.4-28.2,39.3-36,3.7-1.7,3.7-1.8,1.6-5.4-2.3-3.9-5-7.4-8.7-10.1-5.3-3.8-10.6-4-15.5.2-2.6,2.2-5,4.9-6.8,7.9-6.9,11.8-10.7,24.6-11.3,38.3h0ZM397.1,170.3c2.8-.2,5.6-.5,8.4-.7.4,0,.8.4,1.2.6-.2.4-.4.9-.7,1.2-.4.3-.9.6-1.3.7-5.5,1-8.6,5.1-11.5,9.4-.2.2-.3.5-.4.8.4,0,1.1.2,1.2,0,2-2.3,4.4-3.2,7.4-3.6,1.4-.2,2.6-1.3,3.9-2.1,4-2.4,8.3-3.5,12.9-1.9.4.1,1.1.6,1,.8,0,.6-.4,1.3-.9,1.5-2.1,1-4.4,1.6-6.5,2.6-5.1,2.4-10.2,4.9-15.2,7.5-1.9,1-1.9,2.1,0,3.3,2.6,1.7,5.4,3.3,8.2,4.8,2.1,1.1,2.9.6,3.6-1.6.2-.5.2-1,.4-1.4,1.2-3.4,2.5-4.1,6-3.1,3,.8,6,1.8,9,2.8,3.9,1.3,7.2.4,9.9-2.7.5-.6,1.2-1.1,1.8-1.6.8-.7,2.4-1.3,2.4-2s-1.1-1.9-1.7-2.9c-2.5-4-6.5-5.5-11-5.9-.6,0-1.2-.7-1.9-1.1.5-.2,1.1-.7,1.6-.7,2.2,0,2.6-.7,1.6-2.7-1-1.9-2-4-2.2-6.1-.4-3.5-2.1-5-5.4-5.2-.8,0-1.6-.4-2.4-.6.7-.4,1.3-1,2-1.2,2.1-.7,3-2.1,2.6-4.2-.2-1.3-.4-2.9-1.2-3.6-1.5-1.3-2.1.9-3.1,1.5-1.6,1.1-3.1,1.8-5.1,1.1-2.9-1-5.1-.3-6.5,2.7-1.4,3.1-4.3,4-7.4,4h-10.5c-3.5,0-.9.3-1.3.4.3.3.6.8,1,1,3.9,2.3,7.8,3.3,12.3,1.6,3.4-1.3,7-2,10.6-2.9.6-.1,1.4.4,2.1.7-.4.7-.6,1.5-1.1,2-.6.5-1.4.8-2.2,1.1-4.6,1.4-9.2,2.7-13.8,4.1-.4.1-.8.4-1.2.5.5.4.9,1,1.4,1.2.6.2,1.3,0,2,0h0q0-.1,0-.1ZM284.7,73.3c11.4.3,22.1-2.3,31.5-8.9.5-.4,1.1-.7,1.6-1.1.7-.7,1.3-1.5,2-2.2-1,0-2-.3-2.9,0-4.2,1-8.3.1-12.3-.9-2.6-.7-5.1-1.5-7.6-2.3-9.4-3.1-19-2.4-28.7-2.2-.5,0-.9.3-1.3.4.4.2.9.5,1.3.5,7,1.2,13.8,4,21.1,2.9.5,0,1.1.4,1.6.7-.6.2-1.2.4-1.7.6-.4.1-.8.3-1.1.4.3.2.5.4.8.6,0,0,.3.1.5.2,1.7.7,3.4,1.5,5.1,2.2-1.8-.1-3.6-.2-5.4-.5-9.8-1.5-19.7-3.3-29.5-4.6-8.8-1.2-17.6-1.4-26.3.6-.5.1-1,.8-1.4,1.2.4.2.7.6,1.2.7,14.6,4.6,29,9.7,44.2,11.7,2.5.3,5,0,7.5,0h-.2ZM96.1,362.6c4.4,0,5.2-.7,6.3-4.7.6-1.9,1.6-3.6,2.4-5.4.5-1,1.1-2.1,1.2-3.2.1-2.1.9-3.4,3-4,1.4-.4,2.6-1.3,2.1-2.9-.3-1-1.3-1.7-2.1-2.5-.2-.2-.6-.2-.9-.4-.5-.3-1-.7-1.5-1,.7-.4,1.3-.9,2-1.1,1.1-.3,2.4-.1,3.4-.6,1.1-.5,2.6-1.5,2.7-2.4.1-.9-1.2-2.2-2.1-2.9-1.2-1-2.7-1.6-4-2.4,1.3-.7,2.7-1.3,3.7-2.3,1.5-1.4,2.7-3,3.9-4.5.3-.5.7-1.5.4-1.7-.5-.5-1.4-1-2.1-.9-4.4.6-8.9,1.4-13.3,2.2-2.3.4-4.5,1.2-6.8,1.4-3.3.4-6.7.5-9.8-1-1.9-.9-3.8-1.3-5.7-.4-.5.3-1,.8-1.4,1.2.5.4.9,1,1.4,1,6.4,1.1,12.8,2.1,19.2,3.2,1.6.3,3.4.3,4.9.9.9.3,1.9,1.5,2.1,2.4.3,1.5-1,2.4-2.4,2.7-.6.1-1.3,0-2,0-2.5.2-4.9.5-7.4.7-1.3,0-2.8.2-3.8-.4-1.1-.6-1.9-.4-3-.3-1.7.2-3.5-.4-5.1-1.1-2-.9-3.9-1.9-6.2-1.1-.4.1-1,.1-1.5,0-1.7-.5-2.8-3.5-5.2-1.3-1.8-.8-3.6-1.6-5.5-2.3-.4-.2-1-.2-1.5-.1-.2,0-.5.3-.7.5,0,0,0,.4.2.5,1,.6,1.9,1.3,3,1.8,9.4,4.3,19.3,7.2,29.4,9.2,3.2.6,6.1,2.4,9.1,3.8.6.3.9,1.2,1.3,1.9-.7.4-1.4,1-2.1,1-5,0-9.9.1-14.9-.2-2.6-.1-5.1-1.1-7.7-1.5-1.4-.2-1.6.6-1,1.8,1.1,2.4,3.1,3.4,5.5,4,3.2.8,6.5,1.4,9.7,2.4,1.9.6,3.6,1.7,5.3,2.6.3.2.5.9.3,1.3s-.8.8-1.1.7c-5.6-1.8-11.2-.7-16.9-.7s-1.8-.2-2.5.1c-.7.3-1.4,1.1-1.5,1.8,0,.5.9,1.4,1.5,1.5,2.8.5,5.6.9,8.4,1.3,3.3.5,6.6.9,9.3,1.3h0ZM120.3,61.6c.1,7.8,1.7,14.1,3.4,20.3.1.4.6.7,1,1,.2-.4.5-.8.6-1.2.5-1.9.8-3.9,1.5-5.8.7-2.2,2-2.4,3.7-.9,1,.9,1.8,1.9,2.7,2.9,5.1,5.3,11.6,7.6,18.7,8.4,2.5.3,3.5-.5,3.3-3-.3-6.3-2.4-12-5.8-17.2-.9-1.4-1.8-1-2.8,0-.9.9-2.1,2.5-2.7,2.3-1.8-.6-3.8-1.6-4.9-3.1-4.6-5.9-6.8-12.8-7.7-20.2-.5-4.1-.7-8.3-1-12.4,0-.5-.2-1-.3-1.4-.2.4-.4.8-.6,1.2-2.1,5.6-4.4,11.1-6.4,16.7-1.6,4.4-2.9,8.8-2.7,12.4h0ZM112.6,463.1c-1.3-5.4-2.5-10.8-4.1-16-3.9-12.8-10-24.6-16.4-36.3-2.6-4.8-5-9.8-9.5-13.3-1.9-1.4-1.9-3.7-2.3-5.9-.5-2.7-1.1-5.6-2.3-8-2.1-4.1-6.1-5.4-10.5-5.2-1.9,0-2.4,1.2-1,2.6,5.2,5.5,8,12.1,9.9,19.3.7,2.5,1.9,5,3.4,7.1,9,12.9,15.9,26.9,21.7,41.5,2.1,5.2,4.8,10.2,7.4,15.2.3.7,1.7,1.5,2.2,1.3.7-.2,1-1.4,1.6-2.4h0ZM610.8,230.7c15.2-.9,28.7-4.7,40.1-14.3,2.8-2.4,5.6-4.7,8.3-7.1.5-.5.6-1.4.9-2.1-.6-.2-1.2-.5-1.8-.6-6.7-.5-13.2.3-19.7,2-11.4,3-21.9,7.6-31.1,15-.9.7-1.9,1.4-2.6,2.3-.6.8-1.5,2.2-1.2,2.9.3.8,1.7,1.4,2.8,1.6,1.6.3,3.3.2,4.4.3h0ZM701.6,64.8c.1.5.4,1.1.4,1.8,0,3.5,1.9,3.5,4,1.7,5.9-4.9,11.8-9.7,17.8-14.5.3-.3.8-.3,1.2-.5,0,.5.1,1-.1,1.3-1.4,1.7-2.7,3.4-4.3,4.8-4.8,4.4-9.8,8.6-14.6,12.9-3.1,2.8-4.5,6.5-5.4,10.5,0,.4.2.9.3,1.3.3-.2.6-.3.9-.5,8-6.8,16.1-13.4,23.9-20.4,6.5-5.9,10.7-13.1,11.5-22.1,0-.6-.1-1.3-.2-2-.6.2-1.2.2-1.7.6-3.7,2.8-7.9,4.1-12.4,5-3.3.6-6.5,1.6-9.6,2.7-7.1,2.6-11,8.7-11.7,17.3h0ZM25.4,40.9c.7,4.5,1.7,9.5,5.1,13.7,2.2,2.8,4.9,4.1,8.5,4.3,4.9.3,10,.6,14.8,1.7,4,.9,7.8,2.7,11.7,4.2,4.8,1.9,9.4,4,14.2,5.8,4,1.5,7.4,3.6,10.6,6.4,7.5,6.7,14.2,14,20.3,21.9.6.8,1.2,1.6,1.9,2.3.7.7,1.4,1.4,2.1,2,.6-1.1,1.5-2.2,1.6-3.4,0-1.2-.6-2.7-1.4-3.6-3.8-4.2-7.5-8.5-11.7-12.2-17.1-14.9-36.2-26.4-57.6-34-4.3-1.5-8.2-3.5-11.3-6.9-1.8-1.9-3.9-3.6-6-5.3-.5-.4-1.4-.6-2.1-.6s-.4,1.1-.6,1.7v1.7h0v.3ZM10.1,286.4c-1.7-14.7.7-28.8,6.2-42.4,2.2-5.6,5-10.9,9.2-15.3,4.3-4.4,9.5-7.1,15.3-9.1,2.8-.9,3.1-1.7,1.3-3.8-2.7-3.3-5.6-6.6-8.7-9.6-2.5-2.4-3.7-2-5.2,1.2-1.8,3.9-3.3,8-5.4,11.8-2.4,4.3-5,8.6-8.2,12.4-5.8,6.9-8.7,14.8-9.8,23.6-.2,1.2.1,2.7.7,3.8,2.8,5.8,3,11.7,2.4,18-.3,3.5.6,7.2,1,10.8,0,.4.6.8.8,1.2.2-.5.4-1,.5-1.6v-1h0ZM777.8,88.1c1.1-.5,2.7-.9,3.7-1.8,3-2.8,6.7-3.4,10.6-3.6,4.1-.2,8.3-.7,12.4-1.2.8,0,1.6-.4,2.4-.7,1.4-.6,1.6-1.8.3-2.7-1.9-1.3-4-2.3-6.1-3.4-1-.6-.9-1.2-.2-1.9.9-.9,2-1.7,2.7-2.8.8-1.3.1-2.9-1.4-2.9s-3.6.4-5.4.6c-.3,0-.6-.2-.9-.2,0-.3,0-.6.3-.8.4-.5,1-.9,1.4-1.4,1.5-2.1,1.3-3.5-1.1-4.2-2-.6-2.9-1.9-3.9-3.5-1.6-2.6-3.6-5.1-5.5-7.6-1.1-1.5-2.7-1.6-4-1-5.2,2.3-10.3,4.7-15.3,7.2-.6.3-.7,1.3-1.1,2,.8,0,1.6.4,2.3.2,5-1.2,10.2-1.6,14.6-4.7.4-.3,1.2,0,1.8,0-.2.7-.1,1.7-.6,2.1-3.2,2.4-6.6,4.5-9.8,6.9-1.6,1.2-2.9,2.7-4.2,4.1-.3.3-.1,1.2.1,1.8,0,.2.9.2,1.3.2s.7,0,.9-.3c4.8-3.6,11-3.7,16.3-6.1.7-.3,1.8,0,2.7,0-.3.7-.5,1.7-1,2.1-2.5,2.1-5,4.6-7.8,6.1-6.4,3.4-12.3,7.4-17.8,11.9-1.5,1.2-2.9,2.7-4.3,4.1-.2.2,0,.5-.1.8.3,0,.7.2.9,0,3.8-4,9.5-4.7,13.6-8,3.1-2.5,6.5-3.9,10.2-5,2.2-.7,4.5-1.2,6.8-1.7.8-.2,1.7,0,2.4.2,1.7.6,2,2.5.6,3.5-1.2.8-2.6,1.5-3.9,2.2-4.9,2.5-9.8,4.9-14.7,7.4-.5.3-.8.9-1.2,1.4.6.2,1.2.5,2.2.8h-.2ZM375.6,190.6c-8.6.4-14.8,4.4-18.1,12.1-1.9,4.4-2.8,9.2-4,13.8-.4,1.6-.7,3.2-1,4.9s.5,2.4,2.2,2.3c4.4-.2,8.1-2,11.1-5.1,3.1-3.2,6-6.7,8.9-10.1,4.1-4.9,8.7-9.1,15-11.2.6-.2,1-.8,1.5-1.2-.5-.4-.9-1-1.4-1.3-4.4-2.5-9.1-3.9-14-4.2h-.2ZM618.6,243.3c10.6-.5,21-1.6,31-4.8,4.9-1.5,9.4-4,14.1-6.2,1.5-.7,1.3-1.7,0-2.5-6-3.5-12.5-4.1-19.2-2.6-2.4.5-4.8,1.4-7.1,2.4-7.1,3-14.6,4.4-22.3,4.3h-8c-2.7,0-1.7-.1-2.5,0-2.1.3-3.9,2.4-3.9,4.6s1.4,2.9,3.2,3.2c4.9.6,9.9,1.1,14.8,1.7h-.1ZM1054.3,85.2c5.2-1.6,10.1-3.1,15-4.6.3,0,.4-.4.7-.6-.3-.2-.5-.4-.8-.5-10-3.4-17.9-10.1-26.4-15.9-5-3.3-10.1-6.3-16.1-7.6-4.2-.9-8.3-.5-12.3.8-.7.2-1.2,1-1.7,1.5.5.4,1,.9,1.5,1.1,1.1.4,2.2.7,3.3,1.1.6.2,1.4.3,1.8.8,4.9,5.9,12,8.7,17.8,13.3,3.7,2.9,7.5,5.5,11.4,8,1.7,1.1,3.8,1.7,5.8,2.6h0ZM111.3,109.5c-.5-4.7-1.8-8.9-4.9-12.1-12.3-12.5-25.2-24.2-41.6-31.1-1.2-.5-2.5-1-3.7-1.4-.4,0-.9,0-1.4,0,.2.4.3.9.6,1.2,4.4,4.7,8.7,9.7,13.4,14.1,10.4,9.8,21.1,19.3,31.7,28.9.7.7,1.4,1.5,2.3,1.9.8.4,1.9.5,2.7.3.5-.2.7-1.3.9-1.8h0ZM708.1,138.1c.1,7,2.5,13.3,6.4,19.1.3.4.8.6,1.1.9.1-.6.4-1.1.3-1.7-.2-1.7-.5-3.3-.6-4.9,0-.5.6-1,.9-1.6.5.4,1.2.7,1.3,1.2,1.3,3.5,2.7,7,3.8,10.6,1,3.2,1.7,3.4,4.2,1,3.5-3.3,4.5-7.2,2.9-11.8-.9-2.7-1.7-5.4-2.5-8.1-1.7-5.8-1.7-11.5,1.3-16.9.3-.5.3-1.2.4-1.8-.7.2-1.5.3-2.1.7-4.6,3.8-7,8.7-7.3,14.7,0,1.6-.5,3.2-.9,4.9,0,.2-.5.4-.7.6-.2-.2-.4-.5-.4-.7-.8-8.7.8-19.2,11.2-24.7.9-.5,1.8-.8,2.7-1.2.2,0,.4-.6.3-.7-.3-.3-.8-.8-1.1-.7-1.1.5-2,1.1-3.1,1.7-2.5,1.3-5,2.7-7.6,3.7-8,3.1-11,7.3-10.8,15.9h0l.3-.2ZM970.1,115.8c3.8-.6,7.5-1.1,11.3-1.7.4,0,.7-.6,1.1-.9-.4-.2-.8-.4-1.2-.4-6-.5-11.8-1.8-17.5-3.7-6.9-2.3-12.2-6.5-16.4-12.4-5.5-7.7-9.5-15.9-12.1-25-.4-1.5-.3-4-2.3-3.8-1.8.2-2.4,2.3-2.8,4.2-1.6,7.7-.5,14.9,4.2,21.3,2.7,3.6,5.4,7.2,8.3,10.6,7.2,8.5,16.7,11.7,27.5,11.8h0ZM865,119.6c-8.8.4-16.1,3.7-21.8,10.6-.3.4-.3,1.1-.4,1.7h1.4c5.7-1.2,11.3-2.6,17-3.5,3.6-.6,7.3-.4,10.9-.6.5,0,1,.2,1.4.3-.5.3-1,.7-1.6.8-3.8.7-7.5,1.2-11.3,1.8-1.3.2-2.6.4-3.9.7-.6,0-1.2.5-1.8.8.5.3,1.1.5,1.6.9.4.3.8,1.1.7,1.2-.6.5-1.2,1-1.9,1.2-5.6,1.5-11.2,2.9-16.8,4.4-.6.2-1,.8-1.5,1.2.7.2,1.4.6,2.1.5,8-1.4,16-2.8,24-4.4,5.5-1.2,10.9-2.9,16.4-4.2,3.8-.9,7.8-1.4,11.7-2,.5,0,.9-.3,1.4-.4-.5-.3-.9-.7-1.4-.9-3.7-1.8-7.5-3.5-11.1-5.5-4.8-2.6-9.8-4.1-15.1-4.3h0v-.3ZM723.5,180.3c.3-4.2-.9-8-3.3-11.3-3.4-4.7-7-9.3-10.5-13.9-.2-.3-.7-.5-1-.8,0,.5-.2,1-.2,1.4.3,4.6.7,9.2.9,13.9.2,5.9-1.1,11.5-3.8,16.8-1.6,3.2-1.3,3.4,2.2,3.2.5,0,1-.1,1.5,0,.4.1.9.6.9.9s-.4.9-.8,1c-.8.3-1.8.4-2.6.7.9.6,1.7,1.4,2.7,1.9,5.5,2.3,9.1,1,11.9-4.3,1.6-3,2.4-6.2,2.2-9.5h-.1ZM656,192c-.6.2-1.3.4-1.9.6-8.8,2.4-17.6,4.9-26.4,7-11.3,2.7-20.9,8.3-28.7,16.9-.5.5-1,1-1.2,1.6-.4,1.3-1.4,3.3-.8,4,1.3,1.6,2.6-.3,3.7-1.1,8.6-6.2,18.3-10.2,28.5-12.5,10.4-2.3,19-7.7,26.6-14.9.4-.3.6-.8.9-1.1-.2-.1-.4-.3-.6-.4h-.1ZM1083.3,142.5c.9,0,2,0,3.2-.3.4,0,.8-.5,1.1-.8-.3-.3-.5-.8-.9-1-7.7-4-13.3-10.5-19.6-16.1-4.2-3.8-8.6-7.4-13.2-10.6-2.8-1.9-6.3-2.9-9.5-4.2-.4-.2-.9.2-1.4.2,0,.4,0,1,.4,1.3,5.3,7.4,9.9,15.4,16.7,21.8,6.4,6.1,14,9.4,23.2,9.6h0ZM377.6,243.7c13.6-.5,23.9-7,31.8-17.8.2-.2.2-.5.4-.8-.4,0-1-.2-1.3,0-4.5,3.5-9.5,6.1-15.1,7.4-12.4,2.9-24.3,1.4-36-3.4-1.4-.6-3-.8-4.6-1.2.7,1.6,1.1,3.4,2,4.7,5.5,7.8,13.2,11.3,22.7,11.1h0ZM637.5,243.9c-9,.3-17.9.6-26.9.8-2.1,0-4.3-.2-6.5-.2h-3.1c.7.7,1.3,1.5,2.1,2.1,5.9,4.3,12.5,6.7,19.9,7.1,7.7.5,15.3-.8,22.8-2.2,4.9-.9,9.7-2.2,14.8-1.9.4,0,.8-.3,1.3-.4-.3-.3-.6-.8-1-1-5.6-2.9-11.7-3.6-17.8-4.2-1.8-.2-3.7,0-5.5,0h0ZM305.7,262.7c1-2.4,2-4.7,2.9-7,.5-1.2,1.2-2.4,1.6-3.6.1-.3-.3-.9-.5-1.3-.4.2-1,.3-1.3.6-1.1,1.7-2.1,3.4-3,5.2-2.6,5-5.2,10.1-7.5,15.2-2.9,6.5-7.2,11.1-14.4,12.6-.6.1-1.1.7-1.7,1.1.7.4,1.4,1.1,2.1,1.1,1.3,0,2.7-.1,3.8-.7,2.2-1.1,4.3-2.5,6.4-3.7.6-.3,1.3-.5,1.9-.8,0,.6,0,1.3-.3,1.9-1.7,3.4-4.5,5.2-8.2,5.8-.6,0-1.1.7-1.6,1,.5.4,1,.9,1.6,1.2,3.6,1.8,7.2,1.5,10.6-.2,6-3,10.2-7.5,10.4-14.7,0-1.2,0-2.4.3-3.5.6-2.5,0-4.6-1.3-6.6-.7-1-1.1-2.3-1.8-3.6h0ZM312.6,221.2c-4.1.5-8.3.8-12.3,1.6-4.3.9-8.3.4-12.2-.9-4.4-1.4-8.7-3.3-13.1-4.9-1.4-.5-2.8-1-4.3-1.4-.5-.1-1.4,0-1.4,0-.3,1.7-.7,3.4-.7,5s.9,1.4,1.6,1.6c3.6,1.2,7.3,2.4,11,3.2,10.1,2.1,20.1,4,30.3,5.8,5.6,1,7.3-.2,9.4-5.6.2-.6.5-1.3.8-1.8.9-1.4,0-1.9-1.1-2-2.6-.3-5.3-.4-8-.5v-.2h0ZM313.4,253.7c.9,6.3.5,13.4-.9,20.4,0,.3,0,.6.1.9.3-.3.6-.5.8-.9,1.1-2.6,2.2-5.2,3.3-7.8,4.6-10.5,9.1-21,13.7-31.5,1.5-3.3,1.2-3.8-2.6-4.2-7.1-.7-7.7-.4-11,5.8-2.6,5-3.8,10.1-3.6,17.2h.2ZM190.2,108.5c-2.2-.2-4.7-.6-7.1-.7-.8,0-1.6.8-2.4,1.3.7.8,1.5,1.6,2.2,2.3h.5c7.2.2,13.5,3.1,19.5,6.7,2.5,1.5,3.1,1.2,3.3-1.7.7-7.5-3-13.9-10-16.7-5.3-2.1-11-2.7-16.7-1.9-1.2.2-3,.2-3,2s1.1,2.9,2.7,3.2,3.3.2,4.9.5c3.7.7,7.4,1.6,11.1,2.5.7.2,1.1,1,1.7,1.6-.7.3-1.3.8-2,.8-1.5,0-3,0-4.8,0h.1ZM326.2,219.6c1.5.2,3,.5,4.4.5,2.2,0,3.3-1.9,2.1-3.7-2-3-4.3-5.9-6.7-8.6-.7-.8-2.4-1-3.6-1.1-2.5-.4-4.9-.5-7.4-.8-6.6-.8-12.9.5-18.7,3.8-.6.3-1,1.1-1.5,1.7.5.4,1,.9,1.6,1.1,5.1,1.1,10.1,1.7,15.3.7,2.1-.4,4.3-.2,6.4,0,.6,0,1.5,1,1.6,1.6,0,.5-.7,1.3-1.3,1.8-.5.4-1.2.5-1.8.8-.4.2-.6.6-.8.9.3.1.6.3.9.4,3.1.4,6.2.8,9.4,1.2v-.3h.1ZM800.7,55.3c.7-1.8,1.2-4,2.4-5.7,1.9-2.7,4.1-5.2,6.4-7.6,1.6-1.8,2.8-3.7,2.8-6.2s-.9-3.3-2.9-2.9c-1.5.2-3.2,1-4.3,2-4.1,3.8-8.1,7.8-12.1,11.7-2.8,2.7-3,3.2-.4,6.1,2.7,2.9,5.8,5.4,8.7,8,.2.2.6.4.6.4,1.3-1,2.8-1.9,3.6-3.2.6-1.1.6-2.8.4-4.2-.1-1.2-.8-2.4-1.2-3.6-.6,1.1-1.2,2.2-1.6,3.4-.3.8-.4,1.6-.7,2.4-.1.5-.4.9-.6,1.3-.3-.5-.6-1-1.1-1.9h0ZM697.4,93.3c-.2-.9-.6-2-1.3-2.5-5.7-4-5.7-4.6-7.8,2-1.9,6.2-4.2,12.2-6.2,18.4-.3.8.1,1.7.2,2.6.7-.2,1.5-.3,2.2-.6,4.1-2.1,8.3-4.3,12.4-6.3,1.7-.8,2.8-1.8,2.2-4.2-.5-2.9-1-6.1-1.7-9.4h0ZM181,153.1c2.6-.9,5.2-1.7,7.8-2.8.7-.3,1.3-1.4,1.5-2.3,0-.3-1-1.1-1.7-1.4-1.5-.7-3.1-1.2-4.6-1.8-6.2-2.5-11.9-5.8-15.8-11.6-.7-1.1-1.8-3-3.4-1.7-1.5,1.3-.2,2.8.9,3.8,2.4,2,4.9,3.9,7.5,5.8,1.1.8,2.2,1.4,3.3,2.2.3.2.4.8.5,1.2-.3,0-.6.3-.9.3-7.1-1.3-13.1-4.5-17.5-10.4-.3-.4-.1-1-.4-1.4-.1-.3-.6-.4-.9-.6-.1.3-.4.6-.4.9.2.8.4,1.6.8,2.3,3.9,6.5,9,11.9,15.9,15.4,2.2,1.1,4.7,1.5,7.4,2.3h0v-.2ZM315,203.8h6.3c.6,0,1.2-.8,1.9-1.2-.6-.6-1.2-1.6-2-1.8-1.1-.3-2.3,0-3.5,0-7.1.5-14.3,1.2-21.4,1.6-6.7.4-12.1,3.2-16.6,8.1-1.9,2-1.8,2.9.5,4.3,5.1,3.1,10.5,4.9,16.5,4.8,2,0,3.9-.5,5.9-.8-1.8-.7-3.6-1.6-5.4-2.2-3.2-1-6.4-1.9-9.7-.4-.5.2-1.4-.3-2.1-.6.3-.7.3-1.7.8-2.2,3.6-3.2,7.4-6.1,11.9-8.1,5.1-2.2,10.3-2.2,16.9-1.7h0v.2ZM60.2,393.5c-.2,1.5-.2,3-.5,4.4-.2.8-.8,1.5-1.2,2.2-.3-.9-.7-1.8-.9-2.7-.2-1.6,0-3.3-.5-4.8-.5-1.6-1.6-2.9-2.5-4.4.2,1.5.4,2.9.5,4.4.2,4.8-1.2,9.2-3.8,13.2-1.9,2.9-4.1,5.6-6.1,8.5-.2.3-.3.6-.4.9.5,0,1,.4,1.3.2,5.3-2.2,10.8-4.3,15.4-8,3-2.3,5.2-5.2,4.8-9.3-.2-2.4-.9-4.6-3.4-5.6-.5-.2-1.1-.7-1.4-1.1-.5-.6.6-2.2-1.1-2-.2,0-.3,1.7-.3,2.6v1.5h.1ZM76.4,301.6c-.8-5.3-1.9-11.9-3-18.4-.3-1.7-1.1-1.9-2.3-.8-1.7,1.5-2.6,3.3-2.7,5.6-.2,5.3-.5,10.6-.8,15.9-.1,2.9.8,3.8,3.9,3.6,3.9-.3,5-1.3,4.8-5.9h.1ZM742.2,32.1v-1c0-1.4-.2-2.8-.3-4.3,2.1.7,1.8,2.9,2.5,4.4.6,1.3,1,2.6,1.6,4,2.1-1.2.6-3,.7-4.5,0-1-.3-2-.4-3-.2-1.3.4-1.3,1.4-.9,0,0,.8-.9.7-1.1-1.4-1.8-2.5-4.2-4.4-5.2-2.8-1.5-6.2-2.3-9.3-3.1-1.9-.5-4-.4-5.9-.5-.5,0-1.1.1-1.7.2.3.4.5.8.9,1.1,1.3,1,2.7,1.9,4,3,4.1,3.5,7.8,7.2,9,12.8.1.6.7,1.1,1,1.6.2-.6.4-1.1.4-1.7v-2h0l-.2.2ZM184.3,131.9c-.4-4.2,1.2-7.4,5.3-9.5,3-1.5,3-2.8.5-5.3s-1.8-1.6-2.8-2c-1.3-.6-3.1-1.6-4.1-1.1-1.8.9-.1,2.6,0,4,.8,5.4,0,7-4.9,9.4-.6.3-1.3.4-1.8.7-1.3.6-2.5,1.3-3.7,2,1,.8,2,1.8,3.1,2.5,1.7,1.1,3.4,2.1,5.2,2.9,2.8,1.3,3.3.8,3.3-2.4v-1.2h-.1ZM236.5,242.9c-.5-4-.9-7.9-1.5-11.9-.2-1-.9-1.9-1.4-2.9,0,.9-.2,1.9-.3,2.9,0,.7,0,1.3.2,2,2,10.8-.3,21.1-3.3,31.4-.8,2.6-2.2,4.4-5,4.9-1.4.2-2.9,1-2.4,2.5.4,1.2,1.9,2.1,3.1,2.9,1.4.8,2.9.6,4-.7.2-.2.3-.6.4-.9,2.4-10,6.3-19.6,6.2-30.2h0ZM132.3,487.4c0,3.6,4.7,8.5,8.3,8.2.6,0,1.4-.8,1.7-1.4,1.1-2.4,2.2-4.7,3.1-7.2.2-.5-.2-1.8-.6-1.9-3.2-.8-6.4-1.7-9.6-2.1-1.8-.2-2.8,1.7-2.9,4.4h0ZM63.8,302.5c-.2-4-.4-7.9-.5-11.9,0-1.3-.4-1.8-1.7-.9-3.9,2.5-7.8,4.9-11.8,7.4-.4.3-.7.7-1.1,1,.4.2.7.5,1.2.7,4.3,1.7,8.6,3.4,12.9,5.1,1.9.8,1.4-.5,1-1.4h0ZM384.5,153.4c-.3-.6-.8-2-1.4-3.3-1.2-2.3-2.6-4.6-3.8-6.9-1.3-2.7-5.1-4.8-8-4.2-.2,0-.4.7-.4,1.1s.3.6.6.8c5.7,4.8,7.7,11.4,8.6,18.4,0,.8,0,1.7.3,2.4,0,.1.9.3,1,.2,1.7-2.3,3-4.8,3.1-8.5h0ZM75.1,314c-2.1.8-4.3,1.4-6.3,2.3-5.6,2.6-11.1,5.3-16.6,8-.4.2-.8.5-1.2.8.5.2,1.1.5,1.6.5,9.1-.6,17.5-3.5,25-8.8.5-.4.8-1,1.3-1.5-.7-.3-1.3-.6-2-.7-.5-.1-1,0-1.5,0,0-.2-.1-.4-.2-.6h0ZM277.1,270.9v-7.5c0-.5-.6-1-.9-1.6-.4.5-.8.9-1.2,1.4-2.6,4.3-2.6,9.2-2.4,13.9.2,4.7,3.7,8,7.1,11,0,.1.6,0,.9-.1,0-.3,0-.6-.2-.8-3.4-5-3.4-10.6-3.3-16.3h0ZM124.9,140.7c-1.3.9-2.8,2-4.3,3.2-.1,0,.2,1.2.6,1.5,1.7,1.3,3.5,2.5,5.3,3.7,7,4.5,4.9,4.3,6.7-3,.4-1.8-.4-2.8-2.1-3.3-1.9-.6-3.7-1.3-6.2-2.1h0ZM763.7,90.3c-3.3.5-6.5.9-9.8,1.4-.3,0-.6.2-.9.4.3,0,.6.4.9.4,2.9.6,5.9,1.1,8.8,1.7,5,1.1,10.1,1.7,15.3,1.3.5,0,1.1-.4,1.6-.6-.4-.5-.8-1.1-1.3-1.4-4.6-2.1-9.4-3.1-14.5-3.2h-.1ZM981.6,33.1c-2.8,1-5.7,2.1-8.6,3.3-4,1.7-7.9,3.5-11.8,5.3-.6.3-1.3.7-1.4,1.2,0,.4.6,1.1,1,1.4,2.1,1.5,4.3,1.5,6.4-.2,4.6-3.9,9.6-7,15.3-9.2.6-.2,1-.7,1.5-1.1-.7-.2-1.3-.4-2.3-.6h-.1ZM60.4,377.8c-.5-.5-1-1.7-1.9-2-4.8-1.8-9.7-3.3-14.6-4.9-.4-.1-.9.1-1.4.2.3.4.5.9.9,1.1,4.5,3.1,9.1,6.1,13.6,9.2,1.5,1,2.4.7,2.8-1.1.1-.6.3-1.3.5-2.5h.1ZM864.5,20.8h1.3c.6-.1,1.2-.3,1.8-.5-.4-.5-.7-1.1-1.2-1.5-1.5-1.3-2.9-2.8-4.5-3.8s-2.4-.7-3-.2c-1.2,1-2,2.5-2.9,3.7,1.3.6,2.5,1.4,3.9,1.8,1.4.4,2.9.4,4.6.6h0ZM928.6,40.9c.3.3.5.8.9,1.1,4.8,3.6,4.8,8.4,3,13.4-1,2.8-1.1,5.5.8,7.9.2.3.4.5.7.7,0-.4.5-1.1.3-1.3-1.7-2.5-.5-4.7.3-7.1,1.9-5.7,0-12-4.5-15.1-.3-.2-.8,0-1.3,0,0,0,0,.3-.2.5h0ZM761.3,17.2c-.4,0-.6-.1-.7-.1-2.4.3-9,7.1-9.2,9.6,0,.5.2.9.3,1.4.5-.3,1.1-.5,1.5-.9,2.9-2.6,5.8-5.2,8.8-7.9.3-.3.5-.8.8-1.1-.5-.4-1.1-.7-1.4-1h0ZM80.9,340.1c-.2-.2-.5-.5-.7-.6-6.6-2.6-13.3-5.2-19.9-7.8-.3-.1-.6,0-.9,0,.2.3.3.8.6.9,6.1,3.7,12.8,6.2,19.8,7.9.4-.2.8-.4,1.2-.6v.2ZM153.6,498.3c.9-.2,1.8-.3,2.6-.6,1-.3,2-.8,3-1.2-.7-.9-1.3-1.8-2.1-2.7-.5-.6-1.2-1.2-1.8-1.7-1-.8-1.9-.4-2.5.6-.5.8-.9,1.8-1.2,2.7-.6,2,.2,2.9,2,2.7h0v.2ZM1039.4,88.6c.4,0,.8-.3,1.2-.5-.3-.3-.6-.8-1.1-1-2.8-1.5-5.6-2.9-8.5-4.2-.4-.2-1-.2-1.3,0-.2.2-.3.9,0,1.3,1.6,3.9,2.4,4.4,7.2,4.4h2.6ZM205.6,124.3c-.2,0,0,0,0,0,0-.4,0-.9-.3-1.1-2.7-1.9-5.3-3.9-8.2-5.6-1.2-.7-2.8-.8-4.3-1.1,1.1,1,2,2.2,3.3,2.9,3,1.7,6.1,3.2,9.4,5h0ZM145.4,498.6v2c0,.4.2.9.4,1.3.2-.4.5-.9.5-1.3.2-3.8,1.6-7.1,4.1-9.9.3-.3.3-.8.4-1.3h-1.3c-4,1.6-4.5,4.9-4.1,9h0v.2ZM384.5,223.7c.9-.2,1.5-.4,2.1-.6-.6-.3-1.1-.7-1.7-.9-2.9-1.1-5.8-2.3-8.7-3.2-.8-.3-2.4,0-2.5.3-.5,1.5.9,1.2,1.8,1.4,1.6.5,3,1.3,4.6,1.8,1.5.5,3.1.8,4.5,1.2h0ZM132.8,139.6c.3,0,.9,0,1.3-.2.5-.3,1-.8,1.1-1.4,0-.3-.3-1.1-.6-1.2-1.1-.3-2.3-.8-3.3-.6-1.2.3-2.2,1.3-3.3,1.9,1.1.4,2.1.9,3.2,1.3.5.2,1,0,1.7,0h0ZM158,142.7c.4,0,1-.3,1.6-.4-.4-.7-.5-1.6-1.1-2-.9-.6-2-1.2-3.1-1.3-.6,0-1.9.8-1.8,1.1.1.8.6,1.8,1.3,2.2.8.4,1.9.3,3.1.4h0ZM5.5,347.8c0,.4,0,1.1.2,1.4.3.3,1.2.6,1.4.4.6-.8,1.4-1.6,1.4-2.5,0-1.4-.4-3.9-.7-4-2.1-.2-1.3,2.1-2.1,3.2-.2.3-.1,1-.2,1.5h0ZM271.2,276.1v-2.4c0-.1-.7-.3-.9-.2-1.4,1.2-2.3,4.4-1.5,5.7.3.5.9.8,1.4,1.2.3-.5.9-.9,1-1.4.2-.9.2-1.9.2-2.9h-.2ZM139.6,126.9c-.6.6-1.2.9-1.6,1.5-.9,1.2-3,1.7-2.3,3.8,0,.2.6.3.8.3,1.3-.2,3.7-3.6,3.5-4.9,0-.2-.3-.4-.5-.7h.1ZM731.9,32c-.3.2-.7.4-.8.6-.9,1.7-1.7,3.5-2.5,5.3-.2.3,0,.9.1,1.3.4-.2,1-.3,1.2-.6.9-1.7,1.6-3.5,2.3-5.2.1-.3-.2-.9-.3-1.3h0ZM712.7,88.4c.4-.5.8-.7.8-.9,0-1,0-2.1-.3-2.9-.4-.8-1.4-1.2-2.2-1.8,0,.9-.3,1.9,0,2.7.4,1,1.2,1.9,1.8,2.8h0ZM310.2,262.8v-3c0-.2-.3-.3-.5-.4s-.3.2-.4.3c-1.2,1.4-1.3,4.5-.3,6.1.2.2.6.3.8.5.1-.3.3-.6.4-.9v-2.5h0ZM815.9,64c-1-1.7-2-3.4-3.1-5-.2-.3-.7-.4-1-.6,0,.3-.1.7,0,.9,1.1,1.8,2.2,3.6,3.4,5.4,0,0,.2.2.6.5,0-.5.3-1,.1-1.2ZM374.7,223.5s-.8,0-1.4.2c-.5.2-.9.9-1.3,1.3.5.2,1.1.6,1.6.6.8,0,1.6-.2,2.4-.5.6-.2,1-.8,1.5-1.2-.6-.1-1.2-.3-1.8-.4h-1ZM695.4,64.9c.5.6.6,1,.8,1,.4,0,1.2,0,1.3-.2.6-1.3,1-2.6,1.5-4,0-.2-.2-.5-.3-.7-.1,0-.3.1-.4.3-1,1.2-1.9,2.5-2.8,3.6h-.1ZM218.9,219.6c.2,0,1-.3,1.8-.6-1-.4-2-.8-3-1.2-.3,0-.7,0-.9.3-.4.3-.7.7-1,1.1.4.2.8.4,1.3.5h1.8ZM189,125.8c-.6,1.7-1.2,3.2-1.7,4.7,0,0,.1.4.2.4.2,0,.6,0,.7-.2.6-1.3,1.2-2.7,1.8-4.1,0,0-.3-.3-.9-.8h-.1ZM14.2,296.3c.5-.4.9-.5.9-.6,0-.5-.1-1-.3-1.4-.6-1.1-1.2-2.2-1.8-3.3-.1.2-.5.5-.4.7.5,1.5,1.1,3,1.7,4.6h-.1ZM1039.7,116.9c1.4.7,2.4,1.3,3.5,1.7,0,0,.8-.6.8-.7-.5-1.2-1-2.4-2.6-2.1-.4,0-.7.5-1.6,1.2h-.1ZM781.6,99.2c-.4-.2-.7-.5-1-.7h-.5c-1.4-.2-2.8-.3-4.2-.5,0,0,0,.3.2.3,1.4.5,2.7,1,3.8,1.4.8-.2,1.3-.3,1.8-.5h0ZM398.9,195.3c.4,0,.8-.1,1-.2-.2-.2-.3-.5-.6-.6-1.2-.5-2.3-1-3.5-1.4,0,0,0,.2-.2.3,1.1.7,2.2,1.4,3.2,2h0ZM12,353.5c-.5.2-.8.2-.8.3,0,.2,0,.6.1.7.8.6,1.7,1.1,2.5,1.6.2.1.6-.2.8-.3,0-.1,0-.4-.2-.4-.9-.7-1.8-1.3-2.5-1.9h.1ZM48.5,200c.2.4.3.7.4,1,.2-.3.4-.5.5-.8.3-1.1.7-2.2.9-3.3,0-.2-.3-.6-.4-.9-.1.1-.3.2-.3.4-.4,1.3-.8,2.5-1.1,3.6h0ZM77.6,312.5h1.6c.5,0,.9-.3,1.3-.4-.4-.2-.9-.5-1.3-.5-.8-.1-1.6-.2-2.4,0-.6,0-1.2.4-1.8.5.6.2,1.2.4,1.8.5h.8,0ZM722.9,115.4h1.7c.3,0,.6-.2.9-.2-.4,0-.8-.3-1.2-.4h-1c-.8,0-1.6.2-2.4.2.9.2,1.7.4,1.9.5h.1ZM240.8,222.6c.6-.2,1.2-.4,1.8-.6-.4-.1-.9-.4-1.3-.4-.8,0-1.5.3-2.3.4.6.2,1.2.4,1.8.5h0ZM713.6,77.4s.3.4.5.6c.4-.5.8-.9,1.1-1.4,0,0-.3-.4-.6-.8-.4.6-.7,1.1-1,1.6ZM729.4,128.1c.1.3.3.7.4,1.1.1-.3.3-.6.3-.8,0-.4-.2-.8-.4-1.2-.1.3-.2.6-.4,1h.1ZM91.9,342.3c-.4-.2-.6-.5-.8-.5-.4,0-.7.2-1,.3.1,0,.3.2.4.2h1.5,0ZM155,135.2c-.2-.4-.4-.8-.7-1.1-.1,0-.6.3-1,.5.2.3.5.7.7,1,.5-.2.7-.3,1-.4ZM78.9,308c.3.3.6.6.7.6.4,0,.8-.3,1.1-.5-.1-.1-.2-.3-.4-.3-.4,0-.9,0-1.5.1h0ZM135.9,249v.2h.4c0,0,.3-.1.4-.2h-.9.1ZM92.8,331.1c.2,0,.3.1.5.1s.3-.1.4-.2c-.2,0-.3-.1-.5-.1s-.3.1-.4.2h0ZM783.6,78.1c.3,0,.5.2.8.2s.2-.2.3-.2c-.3,0-.5-.2-.8-.2s-.2.2-.3.3h0ZM89.4,329.9c-.2,0-.3,0-.5.1.2,0,.4.2.6.3,0,0,.2-.2.3-.2-.2,0-.3-.1-.5-.2h0ZM391.5,177.6c0,.2.3.3.4.5,0-.3.2-.5.2-.8s-.2-.2-.3-.3c0,.2-.3.4-.4.6h.1ZM74.6,353.5c0,.3.2.5.3.8,0-.1.2-.3.2-.4,0-.3-.2-.5-.3-.8l-.2.4h0ZM254.3,217.3c0,0,.2-.2.3-.4h-.5c0,0-.2.2-.3.2.2,0,.3.2.4.1h0ZM224.2,220.3c0,0,.3,0,.4-.1-.2-.1-.3-.3-.5-.3,0,0-.2.1-.3.2,0,0,.3.1.4.2h0ZM233,222v.2h.4c0,0,.2-.1.3-.2h-.8,0ZM69.9,464.1c.3.1.6.3.9.3,0,0,.2-.2.3-.4-.3-.1-.6-.3-.8-.3,0,0-.2.2-.3.3h0ZM125,128.4c.3,0,.5-.2.8-.3-.1,0-.3-.3-.4-.2-.3,0-.5.2-.8.3.1,0,.2.2.4.3h0ZM278.7,128.2h.3l-.2-.2v.2h0ZM275.7,126.1h.3l-.2-.3v.3h0ZM7.8,311.2v-.2c.1,0-.2,0-.2,0l.2.2h0ZM152.6,525.2h.2c0,.1,0-.2,0-.2l-.2.2h0Z"/>
            <path class="cls-1" d="M399.3,1.6h3c5.3,3,11.3,3.6,17,5,2.1.5,4.2,1,6.2,1.5-2.2.2-4.4.7-6.5.4-4.3-.5-8.5-1.3-12.8-2-2.5-.4-2.6-.1-2.5,2.5,0,2.4,0,4.9-.3,7.4-.2,2.1,0,2.5,2,2.2,1.8-.3,3.6-.9,5.4-.9,4,.1,7.9.5,11.9.9,5.1.5,10.2,1.4,15.3,1.8,4.3.4,8.3-.8,11.6-3.6,3.1-2.5,5.9-5.3,8.9-8,2.2-2,2.9-4.4,1.7-7.2h3c.7,3.2-.5,5.7-2.5,8.1-1.3,1.6-.8,2.7,1.2,2.7s3-.1,4.4-.5c3.2-.9,3.4-1.5,1.6-4.3-1.2-1.9-1.9-3.8-1.6-6h2c.1.5.1,1,.4,1.4.2.4.6.7,1,1.1.2-.5.5-1,.6-1.5v-1h20c.2.2.4.5.7.7.9.4,1.9.7,2.9,1-1.1.4-2.1,1.1-3.2,1.2-4.3.3-8.6.4-12.9.6-.6,0-1.1.4-1.7.6.4.4.8.9,1.2,1.1,7.6,2.3,15.4,2.6,23.2,1.3,1.6-.3,3.2-.9,4.9-1.1.5,0,1.3.4,1.5.9.2.4-.2,1.5-.5,1.6-5.4,2.1-10.7,5.3-16.7,3.9-3.2-.7-4.7.4-6,2.8-.2.4-.6.8-.7,1.3-.3.9-.6,1.8-.9,2.7,1,0,2,.3,2.9.1,2.9-.7,5.7,0,8.1,1.4,5.4,3.1,11.1,3,17,3.1,1.4,0,2.4-.6,2-2.1-.4-1.7-.8-3.6-1.9-4.9-1.4-1.6-.7-2.2.6-3,3.6-2.2,3.8-2.3,2.5-6.1-1-2.7-.3-4.8,1-7.1h1l1,10.5c-.2.6-.4,1.3-.7,1.8-1.7,2.4-1.5,5-1.4,7.7,0,1.3.2,2.7.2,4s-.8,2.1-2.2,1.9c-2-.2-4-.8-5.9-.7-5.1.3-9.8-.7-14.3-3.3-5.1-2.9-9.9-1.7-14.1,2.1-1.4,1.2-2.5,2.7-4,3.8-1.4,1.1-2.9,2.3-4.6,2.9-4.1,1.4-4.3,1.3-2.2,5.3,1.1,2,2.3,4.1,3.7,5.9,3.3,4.6,6.9,8.9,10.2,13.5,3.7,5.1,8.4,9.1,14,11.8,5.2,2.5,10.7,4.6,16.1,6.6,4,1.5,8.4,2.2,12.3,3.9,14.2,6.2,22.4,17.8,27.6,31.9,0,.2.1.3.1.5,0,.5-.2.9-.3,1.4-.5,0-.9-.2-1.4-.4-.4-.2-.9-.5-1.2-.9-4.3-4-9.5-6-15.1-7.3-4.4-1-8.7-1.9-13.1-3-7.5-1.9-14.4-4.9-20.4-10-3.6-3.1-7.7-5.8-11.6-8.5-3-2.1-6.3-3.8-9.3-5.9-9-6.3-18-12.6-26.9-19-10.1-7.2-17.8-16.4-22-28.3-.2-.6-.4-1.3-.7-1.9-.4-.8-1-1.5-1.7-.4-5.2,7.4-12.8,11.4-20.7,15.1-2.9,1.3-5.5,3-8.3,4.6-3.6,2-6.1,5-8.1,8.6-2.4,4.4-4.9,8.7-7.5,12.9-4.9,8-10.2,15.6-17.1,22-7.9,7.3-16.8,11.8-27.9,10.8-3.3-.3-6.6-.7-9.9-1.1-.4,0-.8-.5-1.1-.7.4-.4.8-1.1,1.2-1.1,5.4,0,9.4-2.9,13.4-5.9,4.3-3.3,7.2-7.8,9.9-12.4,2.7-4.8,5.3-9.6,8.2-14.3,3.9-6.3,8.8-11.7,15.5-15.2,2-1.1,3.9-2.5,5.8-3.9,3.1-2.2,4.7-5.1,4.8-8.9.2-6,2.4-11.3,5.9-16.1,2.3-3.1,4.7-6.1,7.1-9,1.6-1.9,2.5-3.8,1.6-6.4-.5-1.5-.5-3.3-.6-4.9h-.3ZM400.3,41.6c.3-.3.6-.7,1-1,.2,0,.4-.2.5-.3h-.2s0,.2-.2.3c-.3.3-.6.7-1,1,0,0-.2.1-.4.2,0-.1.2-.2.3-.3h0ZM404.3,38.5c0,0,.3,0,.4-.2,0,0-.2.2-.3.3-.2,0-.4.3-.5.4,0,0,.2,0,.2,0s0-.2.2-.4h0ZM411.4,37.6c6-2.4,11-6.1,14-12,1.3-2.6,1-3.5-1.8-4.4-6.5-2-13-2.4-19.5.2-3.3,1.3-4,.7-3.5-2.5.3-1.6.3-3.2.5-4.8-1.3,1.2-2.8,2.2-3.9,3.6-4.3,5.1-8.2,10.6-9.4,17.3-.7,3.7-.9,7.6-1.4,11.4-.3,2.6-.6,5.3-.9,7.9,0,.3,0,.6.2,1,.2-.2.5-.4.6-.7,1.1-1.9,2.1-3.7,3.3-5.6,2.8-4.6,6.1-8.7,10.1-12.3,2.6-2.2,5.4-3.8,8.8-4.5.7-.1,1.6,0,2.3,0-.5.8-1,1.6-1.5,2.4,0,0-.3.3-.4.4,0,0,.2,0,.2-.2v-.4h2c2,0,1.9.7.7,1.9-.3.3-.4.8-.5,1.2-.5,0-1,.2-1.5.4,0,0,.3.2.3.2.4-.2.7-.4,1.1-.7h.2ZM503.3,90.7c-.1-.2-.2-.4-.4-.5v.3c.1,0,.2,0,.4.2,6.8,5.1,14.5,8.4,22.9,9.9,2.8.5,5.5,1.2,8.3,1.6,3.5.5,6.7,1.7,9.7,3.7.5.3,1.2.3,1.7.4,0-.6.1-1.3-.1-1.8-3.2-6.6-8-11.8-13.9-16.1-7.5-5.6-16.1-8.6-25.1-10.5-8.9-1.9-17.9-3.4-26.9-5-.8-.2-1.7,0-2.5,0-.1,0-.4.7-.3.9.3.4.7.6,1.1,1,6.5,5.1,13.7,8.6,21.6,11,9,2.8,18,5.8,27,8.7.6.2,1.1.6,1.6.9-.6,0-1.3.3-1.9.4-1.3.2-2.6.3-3.8.7-1.3.4-2.2.3-2.9-1-.4-.6-1.1-1.3-1.8-1.4-4.7-1.2-9.3-2.2-14-3.3h-1,.3ZM452.4,45.5c2,2,4,3.9,5.9,6,5.6,6.2,11.7,11.9,18.8,16.3,5.6,3.5,11.4,6.2,18.2,5.8.5,0,.9-.2,1.4-.4-.4-.3-.7-.7-1.1-1-10.2-5.6-17.1-14.6-24.1-23.5-3.9-5-7.7-10-11.6-14.9-.8-1-.9-1.8.5-2.3.5.6,1.1,1.2,1.6,1.8.2.2.6.3,1,.4,0-.3,0-.7-.3-.9-.8-.5-1.6-.8-2.4-1.3-2-1-4-2-6-3-.1-.2-.3-.4-.4-.5v.3c.1,0,.3,0,.4.2,4,6.1,8,12.1,11.9,18.2.2.4,0,1.1.1,1.6-.4-.2-1-.3-1.3-.6-.9-.9-1.9-1.9-2.7-2.9-3-4.2-6.1-8.3-8.9-12.6-1.1-1.6-1.7-3.5-2.3-5.3-.5-1.5-1.4-2.1-2.9-2.3-.4-.3-.7-.6-1.1-.7-.3,0-.7.2-1.1.3.3,0,.6.1.9.2.5,0,.9,0,1.4.1.2.7.5,1.5.7,2.2-.8.2-1.7.5-2.5.5s-1.5-.4-2.3-.6c0-.5-.2-.9-.3-1.4,0,.4.3.9.4,1.3,0,3.2,2,5.5,3.3,8.2.2.4.2.9.2,1.3-.4,0-.9-.2-1.2-.4-2.6-2.4-4.9-5-5.7-8.6-.6-2.5-1.9-3.5-4.6-3.5-7.3.2-7.9-1.5-4.5,6.4,5.6,13.1,14.6,23.3,26.7,30.6,4.4,2.6,9.1,4.6,13.7,6.9.1,0,.2.3.3.4-.1,0-.2-.2-.4-.3-1.1-1.1-2.2-2.3-3.4-3.4-5.8-4.9-11.1-10.3-15.7-16.4-.5-.6-.6-1.5-1-2.2l.2-.2h0l.2.2ZM338.6,99.3c14.6-1.5,25.2-8.3,33.3-19.2,1.1-1.5,1.6-3.5,2.4-5.3.9-1.9,1.8-3.9,2.8-5.7.6-1.2,1.7-2.1,2.4-3.2.4-.6.4-1.5.6-2.3-.5.5-1.1.9-1.6,1.4-.9.9-1.8,1.9-2.8,2.8-1.1,1-1.3,3.3-3.8,2.3-.3,0-1.4,1.7-2.1,2.5-2.4,2.7-4.8,5.5-7.2,8.2,0,.2-.5,0-.8.2,0-.3-.2-.7,0-.9,6.8-8.1,10-18.9,19.3-25.2.6-.4,1.2-1.2,1.5-1.9.3-.6,0-1.5.2-2.2-.6,0-1.4-.3-1.9,0-3.6,2.1-7.3,3.9-10.6,6.5-5,3.9-8.6,9.2-12,14.6-2,3.2-4.1,6.5-5.9,9.8-3.4,6.3-8,11.4-13.6,15.7-.6.5-1.1,1.1-1.7,1.7.8,0,1.5.3,1.5.3h0ZM465.6,27.8c7.3,0,11.6-3,13.4-8.9.7-2.4.2-3-2.2-2.6-5.9.9-11.6.5-17.1-1.9-.6-.3-1.3-.6-1.9-.6-1.4,0-2.4.8-2.2,2.1,0,.6,1.4,1.6,1.9,1.5,3.8-.7,6.1,2.3,9,3.4.3.1.6.9.5,1.3-.1.3-.8.7-1.2.6-3-.7-6.1-1.4-9.1-2.3-1.3-.4-2.4-1.2-3.6-1.6-1.2-.4-4.3,1.2-4.1,2.1.2.9,1.2,1.8,2.1,2.4,4.6,2.9,9.5,4.9,14.5,4.7h0v-.2ZM473,14.7c.5,0,2-.2,3.4-.5.3,0,.6-.8.5-1.1-.1-.4-.6-1-.9-1-2,.3-4.1.7-6.1,1.2-.4.1-.7.6-1.1.9.4.1.8.4,1.2.4h3ZM478.6,13.1c.1,0,.3.3.4.3.3,0,.6-.2.9-.3-.1,0-.3-.3-.4-.3-.3,0-.6.2-.9.3h0Z"/>
            <path class="cls-1" d="M920.3,1.6c1,1,2.1,2,3.1,3-1.8-.5-4.1-.2-4.1-3h1Z"/>
            <path class="cls-1" d="M1027.4,129.5h0c3.2,5.4,7.1,10.1,12.8,12.8,3.3,1.6,6.7,3,10.1,4.2,6.3,2.2,13,2.3,19.6,3.1.5,0,1,.3,1.5.5-.5,0-1,.2-1.5.2-8.9.6-17.7-.3-25.9-3.8-3.5-1.5-6.8-3.5-9.7-5.9-3.4-2.8-6.5-6.2-6.8-11.1h0Z"/>
            <path class="cls-1" d="M237.4,273.5h0c2.8,2.9,4.2,7.5,9.2,7.5s.5.6.4.7c0,.2-.5.5-.8.5-4.8.2-8.3-3.4-8.7-8.8h0Z"/>
            <path class="cls-1" d="M120.4,310.5c2.1,1.9,4.1,3.9,6.2,5.8-.2.2-.3.4-.5.6-2.5-1.5-4.8-3.3-5.9-6.1l.2-.2h0Z"/>
            <path class="cls-1" d="M1019.2,82.7l-6-6,.4-.4c2.8,1.3,4.7,3.3,5.9,6.1l-.3.3h0Z"/>
            <path class="cls-1" d="M1012.5,75.4c0,0-.2.2-.4.4-1.3-1.1-2.5-2.2-3.8-3.3h0c1.4,1,2.8,1.9,4.2,2.9h0Z"/>
            <path class="cls-1" d="M1022.3,86.6h0c-1.1-1.3-2.1-2.6-3.2-3.9l.3-.3,2.8,4.2h.1Z"/>
            <path class="cls-1" d="M84.4,537.7l-.2-.2,2.1-2.9h0c-.6,1-1.3,2-1.9,3.1h0Z"/>
            <path class="cls-1" d="M1115.9,133.1c.3,0,.6-.2.9-.2s.6.2.9.2c-.3,0-.6.2-.9.2s-.6,0-.9-.2h0Z"/>
            <path class="cls-1" d="M1079.4,148.7h0c-.4.2-.7.6-1.1.7-.4,0-.8-.2-1.2-.3.3,0,.6-.2.9-.3h1.4,0Z"/>
            <path class="cls-1" d="M100.2,272.7h.1c0-.1-2-1.1-2-1.1h0c.7.4,1.3.8,2,1.1h-.1Z"/>
            <path class="cls-1" d="M102.3,273.6h.1c-.7-.4-1.3-.8-2-1.1h-.1c.7.4,1.3.8,2,1.1h0Z"/>
            <path class="cls-1" d="M105.3,275.6h0c-.7-.4-1.3-.7-2-1h0c.7.4,1.4.7,2,1.1h0Z"/>
            <path class="cls-1" d="M974.3,54.6c.4.2.7.5,1.1.7-.3-.3-.7-.5-1-.8h0Z"/>
            <path class="cls-1" d="M884.3,70.5c0,0,0,.2-.2.4,0,0,0,0-.2,0,.2,0,.3-.3.5-.4h0Z"/>
            <path class="cls-1" d="M1008.4,72.6c-.3-.3-.7-.7-1-1h0c.3.4.7.8,1,1.1h0Z"/>
            <path class="cls-1" d="M1013.5,76.4l-.4.4c-.4-.3-.7-.6-1.1-.9,0,0,.2-.2.4-.4.3.3.7.6,1.1,1h0Z"/>
            <path class="cls-1" d="M809.3,85.6h0c-.1-.2-.2-.3-.3-.4,0,0,.1.3.2.4h0Z"/>
            <path class="cls-1" d="M103.4,274.6l-1-1h-.1c.3.4.7.8,1,1.1h.1Z"/>
            <path class="cls-1" d="M397.3,331.6h0c.2-.1.5-.3.7-.4-.2.1-.4.3-.7.4h0Z"/>
            <path class="cls-1" d="M130.4,526.6h0c.3.4.7.7,1,1.1h0c-.3-.4-.7-.7-1-1.1h0Z"/>
            <path class="cls-1" d="M131.4,527.6h0c.3.4.7.8,1,1.1h0c-.3-.4-.7-.8-1-1.1h0Z"/>
            <path class="cls-1" d="M132.3,528.6l1,1h0l-1-1.1h0Z"/>
            <path class="cls-1" d="M133.3,529.6c.3.3.7.7,1,1h0c-.3-.4-.7-.8-1-1.1h0Z"/>
            <path class="cls-1" d="M119.5,309.4c.3.4.6.7.9,1.1l-.2.2c-.3-.3-.7-.7-1-1l.3-.3h0Z"/>
            <path class="cls-1" d="M134.4,530.6h0c.3.4.7.7,1,1.1h0c-.3-.4-.7-.7-1-1.1h0Z"/>
            <path class="cls-1" d="M135.4,531.6h0c.4.3.7.6,1.1.9l-.3.3c-.3-.4-.5-.8-.8-1.2h0Z"/>
            <path class="cls-1" d="M83.6,538.9c-.2-.2-.4-.3-.5-.5.4-.3.8-.6,1.1-.9l.2.2c-.3.4-.5.8-.8,1.2h0Z"/>
            <path class="cls-1" d="M441.4,8.5h-3c-.2,0-.5-.3-.7-.5.3-.3.5-.9.9-1,1.3-.2,2.8,0,3.9-.4,2.9-1.2,7.2,1,8.7-3.5,0-.2.9-.3,1.3-.1.8.2,1.6.5,2.3,1,.5.3.9.8,1.3,1.2-.4.3-.8.6-1.2.8-4.3,1.7-8.8,2.6-13.5,2.7h0v-.2Z"/>
            <path class="cls-1" d="M85.3,117.5c.4.4.7.7,1.1,1.1-.4-.4-.7-.7-1.1-1.1Z"/>
            <path class="cls-1" d="M84.3,116.5c.4.4.7.8,1.1,1.1-.4-.4-.7-.8-1.1-1.1Z"/>
            <path class="cls-1" d="M756.4,139.6h0c.7.4,1.3.7,2,1.1h0c-.7-.4-1.3-.8-2-1.1h0Z"/>
            <path class="cls-1" d="M758.3,140.5h0c.1.2.2.3.3.4,0,0-.2-.2-.2-.4h0Z"/>
            <path class="cls-1" d="M60.2,498.7h.1c-.2-1.1-.5-2-.7-3,0,0,.2-.2.3-.2.1.9.2,1.8.4,2.8v.5h0Z"/>
            <path class="cls-1" d="M76.8,534.2c0,.3.2.5.2.8s-.2.2-.2.3c0-.3-.2-.5-.3-.8,0-.1.2-.2.3-.3Z"/>
            <path class="cls-1" d="M75.3,538.6h.1c0,.1.2-1.3.2-1.3.2.1.3.2.5.3-.3.3-.5.6-.8,1h0Z"/>
            <path class="cls-1" d="M79.9,520.9s-.2-.1-.2-.2v-.4c.1,0,.3.1.3.3,0,0,0,.2-.1.4h0Z"/>
            <path class="cls-1" d="M61.3,176.6h0c.2-.7.3-1.6.7-2.3,2.2-3.8,4.5-7.6,6.9-11.4.2-.3.6-.5,1-.7,0,.4,0,1-.2,1.3-1.3,2.5-2.6,5-4.1,7.3-1.3,2-2.8,3.8-4.3,5.7h0Z"/>
            <path class="cls-1" d="M61.4,176.6h0c-.3.6-.7,1.3-1,1.9h0c.3-.6.6-1.2.9-1.9h.1Z"/>
            <path class="cls-1" d="M60.4,178.7h0s-.2,0-.3.2c.1,0,.3-.1.4-.2h-.1Z"/>
            <path class="cls-1" d="M171,120.6c-1.2,0-1.8.2-2.2,0-1.2-.5-3.3-1.4-3.2-1.7.5-1.8,2.1-.9,3.3-.9s1,.3,1.5.3,1,0,1.4-.2c-.3-.4-.6-.8-1-1.1-3.7-2.8-7.5-5.6-11.2-8.3-.4-.3-.6-.7-1-1,.5,0,1.1-.3,1.6-.2,5.1,1.5,9.1,4.6,12.9,8.2,1,1,1.8,2.3,2.7,3.4-1.4.5-2.7,1-4.1,1.4-.5.2-1,0-.8,0h.1Z"/>
            <path class="cls-1" d="M156.2,122.9c-1.9-.4-4-.8-6-1.4-.4,0-.8-1.1-.7-1.5s1-.9,1.4-.8c2,.5,4,1.2,6,1.9.3,0,.5.8.7,1.2l-1.4.7h0Z"/>
            <path class="cls-1" d="M138.2,292.7l.3-.3c1.8,1,3.7,2,5.5,3.1,4.3,2.5,8.5,5.1,12.8,7.6.6.4,1.2.8,1.8,1.2-.8.1-1.6.3-2.4.3s-1-.2-1.4-.4c-5.9-3.3-12-6.3-16.6-11.5h0Z"/>
            <path class="cls-1" d="M135.3,301.6h0c-.2,0-.3,0-.4-.1,0,0,0-.2-.1-.3.2.2.3.3.5.5h0Z"/>
            <path class="cls-1" d="M138.5,292.5l-.3.3c-.1-.3-.3-.6-.4-.9.2.2.4.4.7.6h0Z"/>
            <path class="cls-1" d="M338.5,219.8c-.1-.1-.3-.3-.4-.4,1.7-5.3,3.5-10.7,5-16.1.8-2.9,2-5.6,4.4-7.6.4-.3,1-.4,1.6-.6,0,.4,0,1-.3,1.3-2.9,4.5-4.5,9.5-5.9,14.7-.8,3.1-1.6,6.5-4.3,8.7h-.1Z"/>
            <path class="cls-1" d="M347.9,175.9c-1-.3-1.6-.5-2.2-.6.4-.5.7-1.2,1.3-1.4,2.6-1.1,5.2-2,7.9-2.9.3-.1.8.3,1.2.4-.2.4-.4,1-.7,1.2-2.5,1.2-5.1,2.3-7.5,3.4h0Z"/>
            <path class="cls-1" d="M303.3,169.6c-1-1.5-2-2.9-3-4.4-1.1-1.5-2.2-2.8-3.3-4.3-.2-.3,0-.8,0-1.2.3,0,.7,0,.9.3,2.7,2.9,5.5,5.7,7.9,8.8,1.3,1.6-.4,1.8-1.6,1.9-.3-.3-.6-.7-.9-1.1h0Z"/>
            <path class="cls-1" d="M290.5,160.5l-.3.3c-4.1-3.8-8.3-7.6-12.3-11.4-.3-.2-.2-.9-.2-1.3.4,0,1,0,1.2.2,3.9,4,7.8,8.1,11.7,12.1h-.1Z"/>
            <path class="cls-1" d="M291.6,161.3c-.2.2-.3.3-.5.5-.3-.3-.6-.7-1-1.1l.3-.3c.4.3.7.6,1.1.9h.1Z"/>
            <path class="cls-1" d="M188.4,522.6h0s0,.3-.1.4c0,0-.2,0-.3.1.2-.2.4-.3.5-.5h0Z"/>
            <path class="cls-1" d="M183.5,88.3c.2-.3.3-.6.5-.8,1.2-.7,2.5-1.4,3.7-2.1l.2.3c-1,.8-2,1.6-3,2.4-.3.2-.5.5-.8.6h-.7v-.5h.1Z"/>
            <path class="cls-1" d="M189.5,80c.3.4.4.7.6.9-1.7.8-3.4,1.6-5.1,2.4,0-.2-.2-.6,0-.7,1.5-.9,3.1-1.8,4.6-2.7h-.1Z"/>
            <path class="cls-1" d="M210.3,79.6h0c.7-.2,1.3-.6,2-.9h0c-.7.2-1.3.6-2,.9h0Z"/>
            <path class="cls-1" d="M212.3,78.6h0s.2,0,.3-.2c0,0-.2,0-.3.2h0Z"/>
            <path class="cls-1" d="M498,133.7c.2.8.4,1.3.3,1.7-.5,4.6-1.7,9.1-4,13.2-.2.4-.7.6-1.1.8,0-.4-.2-.8-.2-1.2s.1-.3.1-.5c1.4-4.2,2.7-8.5,4.1-12.7.1-.4.4-.8.7-1.4h0Z"/>
            <path class="cls-1" d="M497.3,172.6h0c1.1-2.5,2.2-5,3.3-7.5,0-.2.6-.3.8-.2s.5.5.4.8c-.5,2.9-1.3,5.7-4.6,6.9h.1Z"/>
            <path class="cls-1" d="M500.4,152.6h-.1s0,.2-.1.3c0,0-.2,0-.2,0,.1,0,.3-.3.5-.4h0Z"/>
            <path class="cls-1" d="M497.3,172.6h0c-.4.3-.7.6-1.1,1h.1l1-1h0Z"/>
            <path class="cls-1" d="M730.3,90.6h0c1.4-2.4,3-4.5,6-5h0c-1.5,2.3-3.2,4.4-6,5.1h0Z"/>
            <path class="cls-1" d="M737.4,84.6l.3-.2c-.1,0-.3,0-.4,0h.1Z"/>
            <path class="cls-1" d="M737.3,84.5c-.3.4-.6.7-.9,1.1h0c.4-.4.7-.7,1.1-1h-.2Z"/>
            <path class="cls-1" d="M730.3,90.6h0l-1.1.9h0c.3-.2.6-.6.9-.9h.2Z"/>
            <path class="cls-1" d="M729.4,91.6h0s0,.2-.1.3c0,0-.2,0-.3,0,.2-.2.3-.3.5-.5h-.1Z"/>
            <path class="cls-1" d="M727.4,94.7v-.4s.1,0,.2-.2c-.1.2-.3.3-.4.5h.2Z"/>
            <path class="cls-1" d="M44.4,309.6c-.1,0-.2,0-.3-.1v-.2c.1.1.2.3.4.4h-.1Z"/>
            <path class="cls-1" d="M174.3,246.5h0c.4,0,.8-.2,1.2-.3l-1.3.3h.1Z"/>
            <path class="cls-1" d="M677.3,53.6h0c-.2-.2-.6-.4-.7-.6v-1.7c.2.5.5.9.6,1.4v.9h.1Z"/>
            <path class="cls-1" d="M752.4,106.6c-.1.2-.3.4-.4.7-.1,0-.3-.3-.4-.4.2,0,.5-.2.7-.3h0Z"/>
            <path class="cls-1" d="M65,397.5c-.4.8-.8,1.6-1.3,2.5-.2-.8-.4-1.5-.6-2.3-.1-.6-.2-1.3-.2-2s.1-1.1.2-1.6c.4.5,1,.9,1.3,1.4s.4,1.3.6,2.1h0Z"/>
            <path class="cls-1" d="M136.5,498.4c.4.3.7.6,1.1.9-.5-.2-1-.3-1.5-.5.1-.1.3-.3.4-.4Z"/>
            <path class="cls-1" d="M207.3,210.5c.8.9,1.6,2,2.5,2.8,1,.9,3,.7,2.8,2.7-1.3-.5-2.7-.8-4-1.5-1-.5-2.1-1.1-2.7-2-1.2-1.7.4-1.8,1.5-1.9h-.1Z"/>
            <path class="cls-1" d="M452.2,45.7c-.1-.3-.2-.5-.3-.8.2.2.3.4.5.6l-.2.2Z"/>
          </g>
        </g>
      </g>
    </g>
  </g>
</svg>